# Blender v3.4.1 OBJ File: 'RPG_Tool_Bits_Export.blend'
# www.blender.org
mtllib blueprint.mtl
o blueprint
v -0.610815 0.147732 0.610815
v 0.738348 -0.000000 0.724143
v -0.736621 0.000000 -0.724287
v 0.639225 0.161937 -0.610815
v -0.000000 -0.000000 0.716036
v -0.001283 0.000000 -0.712119
v 0.722483 0.000000 -0.008065
v -0.000000 0.000000 0.000000
v 0.372710 0.000000 -0.729197
v 0.367175 0.000000 -0.000898
v -0.369515 -0.000000 0.727794
v -0.364150 0.000000 -0.000432
v 0.741167 0.000000 -0.359222
v -0.000000 0.000000 -0.355125
v -0.722220 0.000000 -0.356729
v 0.369330 0.000000 -0.355125
v -0.367175 0.000000 -0.355305
v -0.739024 -0.000000 0.355047
v 0.739178 -0.000000 0.354170
v -0.000000 -0.000000 0.353868
v 0.369330 -0.000000 0.355125
v -0.369330 -0.000000 0.355125
v -0.744747 -0.000000 0.537034
v -0.551255 -0.000000 0.730358
v -0.591103 0.142256 0.591103
v 0.724455 0.048297 0.710250
v -0.722161 0.048297 -0.710441
v 0.623908 0.180318 -0.595498
v -0.000000 0.048297 0.699021
v -0.001283 0.048297 -0.694853
v 0.705205 0.048297 -0.008021
v -0.000000 0.048297 0.000000
v 0.365937 0.047889 -0.706857
v 0.367036 0.048297 -0.000956
v -0.369330 0.048297 0.710250
v -0.363923 0.048297 -0.000451
v 0.718441 0.047846 -0.352581
v -0.000000 0.048297 -0.355125
v -0.705205 0.048297 -0.356729
v 0.369330 0.048297 -0.355125
v -0.367036 0.048297 -0.355316
v -0.721334 0.048297 0.354865
v 0.722161 0.048297 0.354169
v -0.000000 0.048297 0.353787
v 0.369330 0.048297 0.355125
v -0.369330 0.048297 0.355125
v -0.717988 0.046784 0.526220
v -0.539786 0.046460 0.703143
v 0.421116 -0.000000 0.727191
v 0.348106 -0.000000 0.724698
v 0.370277 -0.000000 0.658319
v 0.338088 0.048297 0.708061
v 0.428291 0.048297 0.710021
v 0.368982 0.048297 0.650005
v -0.720719 -0.000000 0.004834
v -0.722138 0.000000 -0.039666
v -0.650680 0.000000 -0.002730
v -0.391938 0.000000 -0.725337
v -0.347514 0.000000 -0.723576
v -0.369663 0.000000 -0.654232
v -0.705205 0.048297 -0.048028
v -0.705205 0.048297 0.016409
v -0.644576 0.048297 -0.001604
v -0.337751 0.048297 -0.706733
v -0.401730 0.048297 -0.709255
v -0.369676 0.048297 -0.647717
vt 0.106713 0.060745
vt 0.084237 0.060745
vt 0.100495 0.124003
vt 0.016569 0.060745
vt 0.037594 0.060745
vt 0.038953 0.060745
vt 0.038962 0.060745
vt 0.038974 0.060745
vt 0.061502 0.060745
vt 0.061502 0.060745
vt 0.061502 0.060745
vt 0.039289 0.060745
vt 0.039105 0.060745
vt 0.061502 0.060745
vt 0.084031 0.060745
vt 0.083900 0.060745
vt 0.105573 0.060745
vt 0.106591 0.060745
vt 0.061424 0.060745
vt 0.084031 0.060745
vt 0.017539 0.091995
vt 0.016423 0.091995
vt 0.017502 0.110861
vt 0.018485 0.110861
vt 0.040304 0.060745
vt 0.016423 0.060745
vt 0.017539 0.060745
vt 0.021811 0.060745
vt 0.084089 0.060745
vt 0.106541 0.060745
vt 0.061502 0.091995
vt 0.082737 0.091995
vt 0.082126 0.110861
vt 0.061502 0.110861
vt 0.027876 0.060745
vt 0.016073 0.060745
vt 0.024243 0.118454
vt 0.038962 0.091995
vt 0.038974 0.110861
vt 0.061424 0.091995
vt 0.040304 0.091995
vt 0.040900 0.110861
vt 0.061424 0.110861
vt 0.105573 0.091995
vt 0.106713 0.091995
vt 0.105326 0.110684
vt 0.104519 0.110861
vt 0.017452 0.060745
vt 0.017448 0.060745
vt 0.100495 0.155253
vt 0.084237 0.091995
vt 0.083824 0.110702
vt 0.099560 0.162433
vt 0.106591 0.091995
vt 0.105553 0.110861
vt 0.016569 0.091995
vt 0.017448 0.091995
vt 0.018485 0.110861
vt 0.017451 0.110861
vt 0.027876 0.091995
vt 0.028576 0.110143
vt 0.016073 0.091995
vt 0.024243 0.149704
vt 0.025446 0.147565
vt 0.017706 0.110270
vt 0.037594 0.091995
vt 0.036997 0.110861
vt 0.106541 0.091995
vt 0.105693 0.110861
vt 0.084089 0.091995
vt 0.084010 0.110861
vt 0.087190 0.091995
vt 0.087628 0.110861
vt 0.021811 0.091995
vt 0.022184 0.110861
vt 0.017452 0.091995
vt 0.018485 0.110861
vt 0.038953 0.091995
vt 0.038953 0.110861
vt 0.087190 0.060745
vt 0.082737 0.060745
vt 0.263586 0.505837
vt 0.515156 0.505520
vt 0.515156 0.755486
vt 0.261437 0.755620
vt 1.011791 0.753695
vt 0.946445 0.924680
vt 0.768117 1.003064
vt 0.259850 0.005587
vt 0.515156 0.013491
vt 0.515156 0.256495
vt 0.259850 0.255553
vt 0.770463 0.255553
vt 1.014364 0.256226
vt 1.002644 0.511166
vt 0.768876 0.506192
vt 0.770463 0.755486
vt 0.514268 0.994614
vt 0.015948 1.005587
vt 0.259611 0.961437
vt 0.237452 1.004752
vt 0.016522 0.255736
vt 0.069581 0.506649
vt 0.748866 0.007128
vt 0.770221 0.047992
vt 0.142019 0.010589
vt 0.018833 0.135122
vt 0.106544 0.089453
vt 0.811220 0.005748
vt 1.015949 0.005587
vt 0.281678 1.002976
vt 0.027669 0.756615
vt 0.027669 0.493969
vt 0.027669 0.539325
vn 0.5940 -0.5452 -0.5916
vn 0.0000 -1.0000 -0.0000
vn -0.9429 0.3297 -0.0471
vn -0.0244 0.3266 0.9448
vn -0.6793 0.2763 0.6799
vn 0.0293 0.3367 0.9412
vn 0.0323 0.3299 -0.9435
vn 0.9235 0.3813 0.0421
vn 0.0857 0.5137 -0.8537
vn 0.9415 0.3343 -0.0437
vn -0.9517 0.3042 0.0414
vn -0.0139 0.4285 0.9035
vn -0.0361 0.3783 -0.9250
vn -0.6740 0.7382 -0.0271
vn 0.0002 0.2959 -0.9552
vn -0.9061 0.4231 -0.0043
vn 0.9525 0.3045 -0.0019
vn 0.1108 0.7109 0.6945
vn 0.8607 0.5076 -0.0398
vn 0.9004 0.2046 0.3840
vn -0.7428 0.2127 0.6348
vn 0.0044 0.3064 0.9519
vn -0.1893 0.1695 -0.9672
vn -0.5243 0.1873 0.8307
vn 0.9103 0.1796 -0.3729
vn -0.9059 0.1837 -0.3816
vn -0.9434 0.3316 0.0001
vn -0.0000 1.0000 0.0000
vn -0.5568 0.6188 0.5541
vn 0.0005 1.0000 -0.0006
vn 0.0007 1.0000 -0.0006
vn 0.0013 1.0000 -0.0012
vn -0.0098 0.9999 0.0104
vn 0.6413 -0.4128 -0.6467
usemtl tools
s off
f 13/1/1 9/2/1 4/3/1
f 3/4/2 58/5/2 60/6/2
f 11/7/2 22/8/2 20/9/2 5/10/2
f 8/11/2 20/9/2 22/8/2 12/12/2
f 12/12/2 17/13/2 14/14/2 8/11/2
f 21/15/2 10/16/2 7/17/2 19/18/2
f 20/9/2 8/11/2 10/16/2 21/15/2
f 14/14/2 6/19/2 9/2/2 16/20/2
f 55/21/3 18/22/3 42/23/3 62/24/3
f 60/6/2 59/25/2 6/19/2
f 18/26/2 55/27/2 57/28/2
f 17/13/2 60/6/2 6/19/2 14/14/2
f 8/11/2 14/14/2 16/20/2 10/16/2
f 10/16/2 16/20/2 13/1/2 7/17/2
f 11/7/2 18/26/2 22/8/2
f 51/29/2 21/15/2 19/18/2 2/30/2
f 5/31/4 50/32/4 52/33/4 29/34/4
f 16/20/2 9/2/2 13/1/2
f 24/35/2 23/36/2 18/26/2 11/7/2
f 1/37/5 23/36/5 24/35/5
f 11/38/6 5/31/6 29/34/6 35/39/6
f 6/40/7 59/41/7 64/42/7 30/43/7
f 7/44/8 13/45/8 37/46/8 31/47/8
f 57/28/2 56/48/2 15/49/2
f 4/50/9 9/51/9 33/52/9 28/53/9
f 19/54/10 7/44/10 31/47/10 43/55/10
f 3/56/11 15/57/11 39/58/11 27/59/11
f 24/60/12 11/38/12 35/39/12 48/61/12
f 9/51/13 6/40/13 30/43/13 33/52/13
f 23/62/14 1/63/14 25/64/14 47/65/14
f 58/66/15 3/56/15 27/59/15 65/67/15
f 18/22/16 23/62/16 47/65/16 42/23/16
f 5/10/2 20/9/2 21/15/2 51/29/2
f 2/68/17 19/54/17 43/55/17 26/69/17
f 1/63/18 24/60/18 48/61/18 25/64/18
f 13/45/19 4/50/19 28/53/19 37/46/19
f 50/32/20 51/70/20 54/71/20 52/33/20
f 51/70/21 49/72/21 53/73/21 54/71/21
f 49/72/22 2/68/22 26/69/22 53/73/22
f 12/12/2 57/28/2 15/49/2 17/13/2
f 57/74/23 55/21/23 62/24/23 63/75/23
f 56/76/24 57/74/24 63/75/24 61/77/24
f 60/78/25 58/66/25 65/67/25 66/79/25
f 59/41/26 60/78/26 66/79/26 64/42/26
f 22/8/2 18/26/2 57/28/2 12/12/2
f 15/49/2 3/4/2 60/6/2 17/13/2
f 15/57/27 56/76/27 61/77/27 39/58/27
f 49/80/2 51/29/2 2/30/2
f 50/81/2 5/10/2 51/29/2
usemtl tools_blueprint
f 36/82/28 32/83/28 38/84/28 41/85/28
f 37/86/29 28/87/29 33/88/29
f 35/89/28 29/90/28 44/91/28 46/92/28
f 46/92/28 44/91/28 32/83/28 36/82/28
f 45/93/28 43/94/28 31/95/28 34/96/28
f 44/91/28 45/93/28 34/96/28 32/83/28
f 38/84/30 40/97/30 33/88/30 30/98/30
f 27/99/28 66/100/28 65/101/28
f 41/85/28 38/84/28 30/98/28 66/100/28
f 42/102/28 46/92/28 36/82/28 63/103/28
f 32/83/28 34/96/28 40/97/28 38/84/28
f 34/96/31 31/95/31 37/86/31 40/97/31
f 35/89/28 46/92/28 42/102/28
f 29/90/28 52/104/28 54/105/28
f 40/97/32 37/86/32 33/88/32
f 48/106/33 35/89/33 42/102/33 47/107/33
f 25/108/34 48/106/34 47/107/34
f 54/105/28 53/109/28 26/110/28
f 66/100/28 30/98/28 64/111/28
f 63/103/28 36/82/28 41/85/28 39/112/28
f 39/112/28 41/85/28 66/100/28 27/99/28
f 62/113/28 42/102/28 63/103/28
f 61/114/28 63/103/28 39/112/28
f 44/91/28 29/90/28 54/105/28 45/93/28
f 45/93/28 54/105/28 26/110/28 43/94/28
