# Blender v3.4.1 OBJ File: 'RPG_Tool_Bits_Export.blend'
# www.blender.org
mtllib bucket_metal.mtl
o bucket_metal
v 0.000000 0.720000 -0.363177
v 0.181588 0.720000 -0.314520
v 0.314521 0.720000 -0.181588
v 0.363177 0.720000 0.000000
v 0.314520 0.720000 0.181589
v 0.181589 0.720000 0.314521
v -0.000000 0.720000 0.363177
v -0.181588 0.720000 0.314521
v -0.314521 0.720000 0.181589
v -0.363177 0.720000 0.000000
v -0.314521 0.720000 -0.181588
v -0.181589 0.720000 -0.314520
v -0.000000 0.202703 -0.323428
v -0.000000 0.157297 -0.316707
v -0.000000 0.180000 -0.332472
v -0.000000 0.562703 -0.376716
v -0.000000 0.517297 -0.369995
v -0.000000 0.540000 -0.387825
v 0.184998 0.517297 -0.320425
v 0.188358 0.562703 -0.326246
v 0.193913 0.540000 -0.335866
v 0.158353 0.157297 -0.274276
v 0.161714 0.202703 -0.280097
v 0.166236 0.180000 -0.287929
v 0.320425 0.517297 -0.184998
v 0.326246 0.562703 -0.188358
v 0.335867 0.540000 -0.193913
v 0.274276 0.157297 -0.158353
v 0.280097 0.202703 -0.161714
v 0.287929 0.180000 -0.166236
v 0.369995 0.517297 0.000000
v 0.376716 0.562703 0.000000
v 0.387825 0.540000 0.000000
v 0.316707 0.157297 0.000000
v 0.323428 0.202703 0.000000
v 0.332472 0.180000 0.000000
v 0.320425 0.517297 0.184998
v 0.326246 0.562703 0.188358
v 0.335867 0.540000 0.193913
v 0.274276 0.157297 0.158354
v 0.280097 0.202703 0.161714
v 0.287929 0.180000 0.166236
v 0.184998 0.517297 0.320425
v 0.188358 0.562703 0.326246
v 0.193913 0.540000 0.335867
v 0.158353 0.157297 0.274276
v 0.161714 0.202703 0.280097
v 0.166236 0.180000 0.287929
v -0.000000 0.517297 0.369995
v -0.000000 0.562703 0.376716
v -0.000000 0.540000 0.387825
v -0.000000 0.157297 0.316707
v -0.000000 0.202703 0.323428
v -0.000000 0.180000 0.332472
v -0.184998 0.517297 0.320425
v -0.188358 0.562703 0.326246
v -0.193913 0.540000 0.335867
v -0.158353 0.157297 0.274276
v -0.161714 0.202703 0.280097
v -0.166236 0.180000 0.287929
v -0.320425 0.517297 0.184998
v -0.326246 0.562703 0.188358
v -0.335867 0.540000 0.193913
v -0.274276 0.157297 0.158353
v -0.280097 0.202703 0.161714
v -0.287929 0.180000 0.166236
v -0.369995 0.517297 0.000000
v -0.376716 0.562703 0.000000
v -0.387825 0.540000 0.000000
v -0.316707 0.157297 0.000000
v -0.323428 0.202703 0.000000
v -0.332472 0.180000 0.000000
v -0.320425 0.517297 -0.184998
v -0.326246 0.562703 -0.188358
v -0.335867 0.540000 -0.193913
v -0.274276 0.157297 -0.158353
v -0.280097 0.202703 -0.161714
v -0.287929 0.180000 -0.166236
v -0.184998 0.517297 -0.320425
v -0.188358 0.562703 -0.326246
v -0.193913 0.540000 -0.335866
v -0.158354 0.157297 -0.274276
v -0.161714 0.202703 -0.280097
v -0.166236 0.180000 -0.287929
v 0.200000 0.720000 -0.346410
v 0.000000 0.720000 -0.400000
v 0.346410 0.720000 -0.200000
v 0.400000 0.720000 0.000000
v 0.346410 0.720000 0.200000
v 0.200000 0.720000 0.346410
v -0.000000 0.720000 0.400000
v -0.200000 0.720000 0.346410
v -0.346410 0.720000 0.200000
v -0.400000 0.720000 0.000000
v -0.346410 0.720000 -0.200000
v -0.200000 0.720000 -0.346410
v 0.000000 0.727039 -0.381588
v 0.190794 0.727039 -0.330465
v 0.330465 0.727039 -0.190794
v 0.381588 0.727039 0.000000
v 0.330465 0.727039 0.190794
v 0.190794 0.727039 0.330465
v -0.000000 0.727039 0.381589
v -0.190794 0.727039 0.330465
v -0.330465 0.727039 0.190794
v -0.381588 0.727039 0.000000
v -0.330465 0.727039 -0.190794
v -0.190794 0.727039 -0.330465
v 0.131443 0.016000 -0.227666
v -0.000000 0.016000 -0.262886
v 0.227666 0.016000 -0.131443
v 0.262886 0.016000 0.000000
v 0.227666 0.016000 0.131443
v 0.131443 0.016000 0.227666
v -0.000000 0.016000 0.262886
v -0.131443 0.016000 0.227666
v -0.227666 0.016000 0.131443
v -0.262886 0.016000 0.000000
v -0.227666 0.016000 -0.131443
v -0.131443 0.016000 -0.227666
v -0.000000 0.000000 0.000000
v -0.000000 0.018302 -0.296132
v 0.148066 0.018302 -0.256458
v 0.256458 0.018302 -0.148066
v 0.296132 0.018302 0.000000
v 0.256458 0.018302 0.148066
v 0.148066 0.018302 0.256458
v -0.000000 0.018302 0.296132
v -0.148066 0.018302 0.256458
v -0.256458 0.018302 0.148066
v -0.296132 0.018302 -0.000000
v -0.256458 0.018302 -0.148066
v -0.148066 0.018302 -0.256458
v 0.137141 0.000000 -0.237536
v -0.000000 0.000000 -0.274283
v 0.237536 0.000000 -0.137141
v 0.274283 -0.000000 0.000000
v 0.237536 -0.000000 0.137141
v 0.137141 -0.000000 0.237536
v -0.000000 -0.000000 0.274283
v -0.137141 -0.000000 0.237536
v -0.237536 -0.000000 0.137141
v -0.274283 0.000000 -0.000000
v -0.237536 0.000000 -0.137141
v -0.137141 0.000000 -0.237536
vt 0.825288 0.646794
vt 0.826078 0.663498
vt 0.836018 0.663498
vt 0.834649 0.646794
vt 0.823479 0.608563
vt 0.825060 0.641972
vt 0.834254 0.641972
vt 0.831516 0.608563
vt 0.837619 0.641972
vt 0.834458 0.608563
vt 0.834254 0.641972
vt 0.831516 0.608563
vt 0.825060 0.641972
vt 0.823479 0.608563
vt 0.812500 0.641972
vt 0.812500 0.608563
vt 0.799941 0.641972
vt 0.801521 0.608563
vt 0.790746 0.641972
vt 0.793484 0.608563
vt 0.787381 0.641972
vt 0.790542 0.608563
vt 0.790746 0.641972
vt 0.793484 0.608563
vt 0.824828 0.663498
vt 0.833853 0.663498
vt 0.827956 0.588736
vt 0.821424 0.588736
vt 0.799941 0.641972
vt 0.801521 0.608563
vt 0.812500 0.646794
vt 0.812500 0.663498
vt 0.802448 0.588981
vt 0.801749 0.603742
vt 0.812500 0.603742
vt 0.812500 0.588981
vt 0.812500 0.608563
vt 0.812500 0.641972
vt 0.795089 0.588981
vt 0.793879 0.603742
vt 0.790351 0.646794
vt 0.788982 0.663498
vt 0.798922 0.663498
vt 0.799712 0.646794
vt 0.792396 0.588981
vt 0.790999 0.603742
vt 0.786925 0.646794
vt 0.785344 0.663498
vt 0.795089 0.588981
vt 0.793879 0.603742
vt 0.790351 0.646794
vt 0.788982 0.663498
vt 0.802448 0.588981
vt 0.801749 0.603742
vt 0.799712 0.646794
vt 0.798922 0.663498
vt 0.812500 0.588981
vt 0.812500 0.603742
vt 0.812500 0.646794
vt 0.812500 0.663498
vt 0.822552 0.588981
vt 0.823251 0.603742
vt 0.825288 0.646794
vt 0.826078 0.663498
vt 0.829911 0.588981
vt 0.831121 0.603742
vt 0.834649 0.646794
vt 0.836018 0.663498
vt 0.832604 0.588981
vt 0.834001 0.603742
vt 0.838075 0.646794
vt 0.839656 0.663498
vt 0.829911 0.588981
vt 0.831121 0.603742
vt 0.822552 0.588981
vt 0.823251 0.603742
vt 0.801521 0.639813
vt 0.812500 0.639813
vt 0.812500 0.637402
vt 0.801214 0.637402
vt 0.801214 0.574902
vt 0.812500 0.574902
vt 0.812500 0.572492
vt 0.801749 0.572492
vt 0.799712 0.678044
vt 0.812500 0.678044
vt 0.812500 0.675633
vt 0.799335 0.675633
vt 0.799335 0.613133
vt 0.812500 0.613133
vt 0.812500 0.610722
vt 0.799941 0.610722
vt 0.793484 0.639813
vt 0.792953 0.637402
vt 0.792953 0.574902
vt 0.793879 0.572492
vt 0.790351 0.678044
vt 0.789698 0.675633
vt 0.789698 0.613133
vt 0.790746 0.610722
vt 0.790542 0.639813
vt 0.789928 0.637402
vt 0.789928 0.574902
vt 0.790999 0.572492
vt 0.786925 0.678044
vt 0.786171 0.675633
vt 0.786171 0.613133
vt 0.787381 0.610722
vt 0.793484 0.639813
vt 0.792953 0.637402
vt 0.792953 0.574902
vt 0.793879 0.572492
vt 0.790351 0.678044
vt 0.789698 0.675633
vt 0.789698 0.613133
vt 0.790746 0.610722
vt 0.801521 0.639813
vt 0.801214 0.637402
vt 0.801214 0.574902
vt 0.801749 0.572492
vt 0.799712 0.678044
vt 0.799335 0.675633
vt 0.799335 0.613133
vt 0.799941 0.610722
vt 0.812500 0.639813
vt 0.812500 0.637402
vt 0.812500 0.574902
vt 0.812500 0.572492
vt 0.812500 0.678044
vt 0.812500 0.675633
vt 0.812500 0.613133
vt 0.812500 0.610722
vt 0.823479 0.639813
vt 0.823786 0.637402
vt 0.823786 0.574902
vt 0.823251 0.572492
vt 0.825288 0.678044
vt 0.825665 0.675633
vt 0.825665 0.613133
vt 0.825060 0.610722
vt 0.831516 0.639813
vt 0.832047 0.637402
vt 0.832047 0.574902
vt 0.831121 0.572492
vt 0.834649 0.678044
vt 0.835302 0.675633
vt 0.835302 0.613133
vt 0.834254 0.610722
vt 0.834458 0.639813
vt 0.835072 0.637402
vt 0.835072 0.574902
vt 0.834001 0.572492
vt 0.838075 0.678044
vt 0.838829 0.675633
vt 0.838829 0.613133
vt 0.837619 0.610722
vt 0.831516 0.639813
vt 0.832047 0.637402
vt 0.832047 0.574902
vt 0.831121 0.572492
vt 0.834649 0.678044
vt 0.835302 0.675633
vt 0.835302 0.613133
vt 0.834254 0.610722
vt 0.823479 0.639813
vt 0.823786 0.637402
vt 0.823786 0.574902
vt 0.823251 0.572492
vt 0.825288 0.678044
vt 0.825665 0.675633
vt 0.825665 0.613133
vt 0.825060 0.610722
vt 0.812500 0.679871
vt 0.825453 0.679871
vt 0.826078 0.679123
vt 0.812500 0.679123
vt 0.834935 0.679871
vt 0.836018 0.679123
vt 0.838406 0.679871
vt 0.839656 0.679123
vt 0.834935 0.679871
vt 0.836018 0.679123
vt 0.825453 0.679871
vt 0.826078 0.679123
vt 0.812500 0.679871
vt 0.812500 0.679123
vt 0.799547 0.679871
vt 0.798922 0.679123
vt 0.790065 0.679871
vt 0.788982 0.679123
vt 0.786594 0.679871
vt 0.785344 0.679123
vt 0.790065 0.679871
vt 0.788982 0.679123
vt 0.799547 0.679871
vt 0.798922 0.679123
vt 0.800172 0.679123
vt 0.812500 0.679123
vt 0.791147 0.679123
vt 0.787844 0.679123
vt 0.791147 0.679123
vt 0.800172 0.679123
vt 0.812500 0.679123
vt 0.824828 0.679123
vt 0.833853 0.679123
vt 0.837156 0.679123
vt 0.833853 0.679123
vt 0.824828 0.679123
vt 0.821424 0.588736
vt 0.812500 0.588736
vt 0.803576 0.588736
vt 0.797044 0.588736
vt 0.794653 0.588736
vt 0.797044 0.588736
vt 0.803576 0.588736
vt 0.812500 0.588736
vt 0.830347 0.588736
vt 0.827956 0.588736
vt 0.812500 0.663498
vt 0.800172 0.663498
vt 0.833853 0.663498
vt 0.824828 0.663498
vt 0.787844 0.663498
vt 0.791147 0.663498
vt 0.812500 0.663498
vt 0.837156 0.663498
vt 0.791147 0.663498
vt 0.800172 0.663498
vt 0.812500 0.604606
vt 0.822552 0.604606
vt 0.821810 0.602662
vt 0.812500 0.602662
vt 0.829911 0.604606
vt 0.828626 0.602662
vt 0.832604 0.604606
vt 0.831121 0.602662
vt 0.829911 0.604606
vt 0.828626 0.602662
vt 0.822552 0.604606
vt 0.821811 0.602662
vt 0.812500 0.604606
vt 0.812500 0.602662
vt 0.802448 0.604606
vt 0.803189 0.602662
vt 0.795089 0.604606
vt 0.796374 0.602662
vt 0.792396 0.604606
vt 0.793879 0.602662
vt 0.795089 0.604606
vt 0.796374 0.602662
vt 0.802448 0.604606
vt 0.803190 0.602662
vt 0.812500 0.571412
vt 0.812500 0.571412
vt 0.821810 0.571412
vt 0.820923 0.571412
vt 0.828626 0.571412
vt 0.827090 0.571412
vt 0.831121 0.571412
vt 0.829347 0.571412
vt 0.828626 0.571412
vt 0.821811 0.571412
vt 0.812500 0.571412
vt 0.803189 0.571412
vt 0.804077 0.571412
vt 0.796374 0.571412
vt 0.797910 0.571412
vt 0.793879 0.571412
vt 0.795653 0.571412
vt 0.796374 0.571412
vt 0.803190 0.571412
vn 0.4946 -0.1464 -0.8567
vn 0.8567 -0.1464 -0.4946
vn 0.9892 -0.1464 0.0000
vn 0.8567 -0.1464 0.4946
vn 0.4946 -0.1464 0.8567
vn -0.0000 -0.1464 0.9892
vn -0.4946 -0.1464 0.8567
vn -0.8567 -0.1464 0.4946
vn -0.9892 -0.1464 0.0000
vn -0.8567 -0.1464 -0.4946
vn -0.4950 0.1410 -0.8574
vn -0.8574 0.1410 -0.4950
vn -0.4946 -0.1464 -0.8567
vn 0.0000 -0.1464 -0.9892
vn -0.4427 -0.4650 -0.7667
vn -0.0000 -0.4650 -0.8853
vn -0.7667 -0.4650 -0.4427
vn -0.8853 -0.4650 -0.0000
vn -0.7667 -0.4650 0.4427
vn -0.4427 -0.4650 0.7667
vn -0.0000 -0.4650 0.8853
vn 0.4427 -0.4650 0.7667
vn 0.7667 -0.4650 0.4427
vn 0.8853 -0.4650 0.0000
vn 0.7667 -0.4650 -0.4427
vn 0.4427 -0.4650 -0.7667
vn -0.4645 0.3701 -0.8045
vn 0.0000 0.3701 -0.9290
vn -0.4107 -0.5704 -0.7113
vn 0.0000 -0.5704 -0.8214
vn -0.4491 0.4395 -0.7779
vn 0.0000 0.4395 -0.8982
vn -0.3932 -0.6177 -0.6811
vn 0.0000 -0.6177 -0.7864
vn -0.8045 0.3701 -0.4645
vn -0.7113 -0.5704 -0.4107
vn -0.7779 0.4395 -0.4491
vn -0.6811 -0.6177 -0.3932
vn -0.9290 0.3701 0.0000
vn -0.8214 -0.5704 -0.0000
vn -0.8982 0.4395 0.0000
vn -0.7865 -0.6177 -0.0000
vn -0.8045 0.3701 0.4645
vn -0.7113 -0.5704 0.4107
vn -0.7779 0.4395 0.4491
vn -0.6811 -0.6177 0.3932
vn -0.4645 0.3701 0.8045
vn -0.4107 -0.5704 0.7113
vn -0.4491 0.4395 0.7779
vn -0.3932 -0.6177 0.6811
vn -0.0000 0.3701 0.9290
vn -0.0000 -0.5704 0.8214
vn -0.0000 0.4395 0.8982
vn -0.0000 -0.6177 0.7865
vn 0.4645 0.3701 0.8045
vn 0.4107 -0.5704 0.7113
vn 0.4491 0.4395 0.7779
vn 0.3932 -0.6177 0.6811
vn 0.8045 0.3701 0.4645
vn 0.7113 -0.5704 0.4107
vn 0.7779 0.4395 0.4491
vn 0.6811 -0.6177 0.3932
vn 0.9290 0.3701 0.0000
vn 0.8214 -0.5704 0.0000
vn 0.8982 0.4395 -0.0000
vn 0.7864 -0.6177 0.0000
vn 0.8045 0.3701 -0.4645
vn 0.7113 -0.5704 -0.4107
vn 0.7779 0.4395 -0.4491
vn 0.6811 -0.6177 -0.3932
vn 0.4645 0.3701 -0.8045
vn 0.4107 -0.5704 -0.7113
vn 0.4491 0.4395 -0.7779
vn 0.3932 -0.6177 -0.6811
vn 0.0000 0.9982 -0.0593
vn 0.0297 0.9982 -0.0514
vn 0.1785 0.9341 -0.3093
vn -0.0000 0.9341 -0.3571
vn 0.0514 0.9982 -0.0297
vn 0.3093 0.9341 -0.1785
vn 0.0593 0.9982 0.0000
vn 0.3571 0.9341 -0.0000
vn 0.0514 0.9982 0.0297
vn 0.3093 0.9341 0.1785
vn 0.0297 0.9982 0.0514
vn 0.1785 0.9341 0.3093
vn -0.0000 0.9982 0.0593
vn -0.0000 0.9341 0.3571
vn -0.0297 0.9982 0.0514
vn -0.1785 0.9341 0.3093
vn -0.0514 0.9982 0.0297
vn -0.3093 0.9341 0.1785
vn -0.0593 0.9982 0.0000
vn -0.3571 0.9341 0.0000
vn -0.0514 0.9982 -0.0297
vn -0.3093 0.9341 -0.1785
vn -0.0297 0.9982 -0.0514
vn -0.1785 0.9341 -0.3093
vn -0.0000 1.0000 0.0000
vn -0.0000 0.1410 0.9900
vn 0.4950 0.1410 0.8574
vn -0.8574 0.1410 0.4950
vn -0.4950 0.1410 0.8574
vn 0.9900 0.1410 -0.0000
vn 0.8574 0.1410 -0.4950
vn 0.0000 0.1410 -0.9900
vn -0.9900 0.1410 -0.0000
vn 0.8574 0.1410 0.4950
vn 0.4950 0.1410 -0.8574
vn 0.1949 -0.9209 -0.3376
vn -0.0000 -0.9209 -0.3899
vn 0.3376 -0.9209 -0.1949
vn 0.3899 -0.9209 -0.0000
vn 0.3376 -0.9209 0.1949
vn 0.1949 -0.9209 0.3376
vn -0.0000 -0.9209 0.3899
vn -0.1949 -0.9209 0.3376
vn -0.3376 -0.9209 0.1949
vn -0.3899 -0.9209 -0.0000
vn -0.3376 -0.9209 -0.1949
vn -0.1949 -0.9209 -0.3376
vn -0.0000 -1.0000 -0.0000
usemtl tools
s 1
f 20/1/1 85/2/1 87/3/2 26/4/2
f 23/5/1 19/6/1 25/7/2 29/8/2
f 29/8/2 25/7/2 31/9/3 35/10/3
f 35/10/3 31/9/3 37/11/4 41/12/4
f 41/12/4 37/11/4 43/13/5 47/14/5
f 47/14/5 43/13/5 49/15/6 53/16/6
f 53/16/6 49/15/6 55/17/7 59/18/7
f 59/18/7 55/17/7 61/19/8 65/20/8
f 65/20/8 61/19/8 67/21/9 71/22/9
f 71/22/9 67/21/9 73/23/10 77/24/10
f 6/25/11 5/26/12 113/27/12 114/28/11
f 77/24/10 73/23/10 79/29/13 83/30/13
f 16/31/14 86/32/14 85/2/1 20/1/1
f 133/33/15 82/34/13 14/35/14 122/36/16
f 13/37/14 17/38/14 19/6/1 23/5/1
f 132/39/17 76/40/10 82/34/13 133/33/15
f 74/41/10 95/42/10 96/43/13 80/44/13
f 131/45/18 70/46/9 76/40/10 132/39/17
f 68/47/9 94/48/9 95/42/10 74/41/10
f 130/49/19 64/50/8 70/46/9 131/45/18
f 62/51/8 93/52/8 94/48/9 68/47/9
f 129/53/20 58/54/7 64/50/8 130/49/19
f 56/55/7 92/56/7 93/52/8 62/51/8
f 128/57/21 52/58/6 58/54/7 129/53/20
f 50/59/6 91/60/6 92/56/7 56/55/7
f 127/61/22 46/62/5 52/58/6 128/57/21
f 44/63/5 90/64/5 91/60/6 50/59/6
f 126/65/23 40/66/4 46/62/5 127/61/22
f 38/67/4 89/68/4 90/64/5 44/63/5
f 125/69/24 34/70/3 40/66/4 126/65/23
f 32/71/3 88/72/3 89/68/4 38/67/4
f 124/73/25 28/74/2 34/70/3 125/69/24
f 26/4/2 87/3/2 88/72/3 32/71/3
f 83/30/13 79/29/13 17/38/14 13/37/14
f 123/75/26 22/76/1 28/74/2 124/73/25
f 80/44/13 96/43/13 86/32/14 16/31/14
f 83/77/27 13/78/28 15/79/28 84/80/27
f 84/81/29 15/82/30 14/83/30 82/84/29
f 80/85/31 16/86/32 18/87/32 81/88/31
f 81/89/33 18/90/34 17/91/34 79/92/33
f 77/93/35 83/77/27 84/80/27 78/94/35
f 78/95/36 84/81/29 82/84/29 76/96/36
f 74/97/37 80/85/31 81/88/31 75/98/37
f 75/99/38 81/89/33 79/92/33 73/100/38
f 71/101/39 77/93/35 78/94/35 72/102/39
f 72/103/40 78/95/36 76/96/36 70/104/40
f 68/105/41 74/97/37 75/98/37 69/106/41
f 69/107/42 75/99/38 73/100/38 67/108/42
f 65/109/43 71/101/39 72/102/39 66/110/43
f 66/111/44 72/103/40 70/104/40 64/112/44
f 62/113/45 68/105/41 69/106/41 63/114/45
f 63/115/46 69/107/42 67/108/42 61/116/46
f 59/117/47 65/109/43 66/110/43 60/118/47
f 60/119/48 66/111/44 64/112/44 58/120/48
f 56/121/49 62/113/45 63/114/45 57/122/49
f 57/123/50 63/115/46 61/116/46 55/124/50
f 53/125/51 59/117/47 60/118/47 54/126/51
f 54/127/52 60/119/48 58/120/48 52/128/52
f 50/129/53 56/121/49 57/122/49 51/130/53
f 51/131/54 57/123/50 55/124/50 49/132/54
f 47/133/55 53/125/51 54/126/51 48/134/55
f 48/135/56 54/127/52 52/128/52 46/136/56
f 44/137/57 50/129/53 51/130/53 45/138/57
f 45/139/58 51/131/54 49/132/54 43/140/58
f 41/141/59 47/133/55 48/134/55 42/142/59
f 42/143/60 48/135/56 46/136/56 40/144/60
f 38/145/61 44/137/57 45/138/57 39/146/61
f 39/147/62 45/139/58 43/140/58 37/148/62
f 35/149/63 41/141/59 42/142/59 36/150/63
f 36/151/64 42/143/60 40/144/60 34/152/64
f 32/153/65 38/145/61 39/146/61 33/154/65
f 33/155/66 39/147/62 37/148/62 31/156/66
f 29/157/67 35/149/63 36/150/63 30/158/67
f 30/159/68 36/151/64 34/152/64 28/160/68
f 26/161/69 32/153/65 33/154/65 27/162/69
f 27/163/70 33/155/66 31/156/66 25/164/70
f 23/165/71 29/157/67 30/158/67 24/166/71
f 24/167/72 30/159/68 28/160/68 22/168/72
f 20/169/73 26/161/69 27/162/69 21/170/73
f 21/171/74 27/163/70 25/164/70 19/172/74
f 13/78/28 23/165/71 24/166/71 15/79/28
f 15/82/30 24/167/72 22/168/72 14/83/30
f 16/86/32 20/169/73 21/170/73 18/87/32
f 18/90/34 21/171/74 19/172/74 17/91/34
f 97/173/75 98/174/76 85/175/77 86/176/78
f 98/174/76 99/177/79 87/178/80 85/175/77
f 99/177/79 100/179/81 88/180/82 87/178/80
f 100/179/81 101/181/83 89/182/84 88/180/82
f 101/181/83 102/183/85 90/184/86 89/182/84
f 102/183/85 103/185/87 91/186/88 90/184/86
f 103/185/87 104/187/89 92/188/90 91/186/88
f 104/187/89 105/189/91 93/190/92 92/188/90
f 105/189/91 106/191/93 94/192/94 93/190/92
f 106/191/93 107/193/95 95/194/96 94/192/94
f 107/193/95 108/195/97 96/196/98 95/194/96
f 108/195/97 97/173/75 86/176/78 96/196/98
f 12/197/86 1/198/88 97/173/75 108/195/97
f 11/199/84 12/197/86 108/195/97 107/193/95
f 10/200/82 11/199/84 107/193/95 106/191/93
f 9/201/80 10/200/82 106/191/93 105/189/91
f 8/202/77 9/201/80 105/189/91 104/187/89
f 7/203/78 8/202/77 104/187/89 103/185/87
f 6/204/98 7/203/78 103/185/87 102/183/85
f 5/205/96 6/204/98 102/183/85 101/181/83
f 4/206/94 5/205/96 101/181/83 100/179/81
f 3/207/92 4/206/94 100/179/81 99/177/79
f 2/208/90 3/207/92 99/177/79 98/174/76
f 1/198/88 2/208/90 98/174/76 97/173/75
f 109/209/99 110/210/99 120/211/99 119/212/99 118/213/99 117/214/99 116/215/99 115/216/99 114/28/99 113/27/99 112/217/99 111/218/99
f 1/219/100 12/220/101 120/211/101 110/210/100
f 3/221/102 2/222/103 109/209/103 111/218/102
f 10/223/104 9/224/105 117/214/105 118/213/104
f 7/225/106 6/25/11 114/28/11 115/216/106
f 4/226/107 3/221/102 111/218/102 112/217/107
f 11/227/108 10/223/104 118/213/104 119/212/108
f 8/228/109 7/225/106 115/216/106 116/215/109
f 5/26/12 4/226/107 112/217/107 113/27/12
f 12/220/101 11/227/108 119/212/108 120/211/101
f 2/222/103 1/219/100 110/210/100 109/209/103
f 9/224/105 8/228/109 116/215/109 117/214/105
f 122/229/16 123/230/26 134/231/110 135/232/111
f 123/230/26 124/233/25 136/234/112 134/231/110
f 124/233/25 125/235/24 137/236/113 136/234/112
f 125/235/24 126/237/23 138/238/114 137/236/113
f 126/237/23 127/239/22 139/240/115 138/238/114
f 127/239/22 128/241/21 140/242/116 139/240/115
f 128/241/21 129/243/20 141/244/117 140/242/116
f 129/243/20 130/245/19 142/246/118 141/244/117
f 130/245/19 131/247/18 143/248/119 142/246/118
f 131/247/18 132/249/17 144/250/120 143/248/119
f 132/249/17 133/251/15 145/252/121 144/250/120
f 133/251/15 122/229/16 135/232/111 145/252/121
f 122/36/16 14/35/14 22/76/1 123/75/26
f 121/253/122 135/254/111 134/255/110
f 121/256/122 134/255/110 136/257/112
f 121/258/122 136/257/112 137/259/113
f 121/260/122 137/259/113 138/261/114
f 121/258/122 138/261/114 139/262/115
f 121/256/122 139/262/115 140/263/116
f 121/253/122 140/263/116 141/264/117
f 121/265/122 141/264/117 142/266/118
f 121/267/122 142/266/118 143/268/119
f 121/269/122 143/268/119 144/270/120
f 121/267/122 144/270/120 145/271/121
f 121/265/122 145/271/121 135/254/111
