# Blender v3.4.1 OBJ File: 'RPG_Tool_Bits_Export.blend'
# www.blender.org
mtllib chisel.mtl
o chisel
v -0.000000 0.217455 -0.000000
v -0.000000 -0.185125 -0.000000
v -0.031339 -0.132349 -0.075658
v -0.025279 -0.167669 -0.061028
v 0.031338 -0.132349 -0.075658
v 0.025278 -0.167669 -0.061028
v 0.075657 -0.132349 -0.031338
v 0.061028 -0.167669 -0.025279
v 0.075657 -0.132349 0.031338
v 0.061028 -0.167669 0.025278
v 0.031338 -0.132350 0.075657
v 0.025278 -0.167669 0.061028
v -0.031338 -0.132350 0.075657
v -0.025279 -0.167669 0.061028
v -0.075658 -0.132349 0.031338
v -0.061028 -0.167669 0.025278
v -0.075658 -0.132349 -0.031338
v -0.061028 -0.167669 -0.025279
v -0.022658 0.118714 -0.054700
v 0.022657 0.118714 -0.054700
v 0.054700 0.118714 -0.022658
v 0.054700 0.118714 0.022658
v 0.022657 0.118714 0.054700
v -0.022658 0.118714 0.054700
v -0.054700 0.118714 0.022658
v -0.054700 0.118714 -0.022658
v 0.010649 -0.182298 -0.025709
v -0.010649 -0.182298 -0.025709
v 0.025708 -0.182298 -0.010649
v 0.025708 -0.182298 0.010649
v 0.010649 -0.182298 0.025708
v -0.010649 -0.182298 0.025708
v -0.025709 -0.182298 0.010649
v -0.025709 -0.182298 -0.010649
v -0.031339 0.068360 -0.075658
v -0.029762 0.084458 -0.071852
v -0.026541 0.151961 -0.064075
v -0.026722 0.168432 -0.064512
v 0.026721 0.168432 -0.064512
v 0.026541 0.151961 -0.064075
v 0.029762 0.084458 -0.071852
v 0.031338 0.068360 -0.075657
v 0.064511 0.168431 -0.026722
v 0.064075 0.151961 -0.026541
v 0.071852 0.084458 -0.029762
v 0.075657 0.068360 -0.031338
v 0.064511 0.168431 0.026722
v 0.064075 0.151961 0.026541
v 0.071852 0.084458 0.029762
v 0.075657 0.068360 0.031338
v 0.026721 0.168431 0.064512
v 0.026541 0.151961 0.064075
v 0.029762 0.084458 0.071852
v 0.031338 0.068360 0.075657
v -0.026722 0.168431 0.064512
v -0.026541 0.151961 0.064075
v -0.029762 0.084458 0.071852
v -0.031338 0.068360 0.075657
v -0.064512 0.168431 0.026722
v -0.064075 0.151961 0.026541
v -0.071852 0.084458 0.029762
v -0.075658 0.068360 0.031338
v -0.064512 0.168431 -0.026722
v -0.064075 0.151961 -0.026541
v -0.071852 0.084458 -0.029762
v -0.075658 0.068360 -0.031338
v 0.015883 0.217455 -0.038346
v 0.022685 0.211631 -0.054768
v -0.022686 0.211631 -0.054768
v -0.015884 0.217455 -0.038346
v 0.038346 0.217455 -0.015883
v 0.054768 0.211631 -0.022686
v 0.038346 0.217455 0.015883
v 0.054768 0.211631 0.022686
v 0.015883 0.217455 0.038346
v 0.022685 0.211631 0.054768
v -0.015884 0.217455 0.038346
v -0.022686 0.211631 0.054768
v -0.038346 0.217455 0.015883
v -0.054768 0.211631 0.022686
v -0.038346 0.217455 -0.015883
v -0.054768 0.211631 -0.022686
v -0.037865 0.261829 0.049665
v -0.037865 0.789898 0.049665
v -0.075727 0.261829 -0.041335
v -0.075727 0.893184 -0.041335
v 0.037858 0.261829 0.049665
v 0.037858 0.789898 0.049665
v 0.075720 0.261829 -0.041335
v 0.075720 0.893184 -0.041335
v -0.028718 0.199785 -0.023187
v -0.019718 0.199785 0.031517
v 0.028711 0.199785 -0.023187
v 0.019711 0.199785 0.031517
v -0.028718 0.237411 -0.023187
v -0.019718 0.237411 0.031517
v 0.028711 0.237411 -0.023187
v 0.019711 0.237411 0.031517
v -0.037865 0.437852 0.049665
v -0.037865 0.613875 0.049665
v -0.075727 0.472280 -0.041335
v 0.075720 0.682732 -0.041335
v 0.075720 0.472280 -0.041335
v 0.037858 0.613875 0.049665
v -0.075727 0.700209 -0.041335
v -0.039571 0.682732 -0.041335
v -0.075727 0.646576 -0.041335
v -0.064341 0.662026 -0.013970
v 0.050971 0.449775 0.018150
v 0.037858 0.465289 0.049665
v 0.001702 0.437852 0.049665
v 0.037858 0.405049 0.049665
vt 0.554264 0.390696
vt 0.544737 0.377242
vt 0.541949 0.399209
vt 0.553110 0.412663
vt 0.569852 0.395380
vt 0.582367 0.381926
vt 0.577267 0.390696
vt 0.567739 0.404150
vt 0.552152 0.395380
vt 0.554264 0.404150
vt 0.539636 0.381926
vt 0.544737 0.390696
vt 0.539636 0.381926
vt 0.544737 0.390696
vt 0.567739 0.390696
vt 0.577267 0.377242
vt 0.580055 0.399209
vt 0.568894 0.412663
vt 0.582367 0.381926
vt 0.577267 0.390696
vt 0.555498 0.415978
vt 0.554539 0.415978
vt 0.546268 0.404026
vt 0.544737 0.377242
vt 0.541949 0.399209
vt 0.554264 0.390696
vt 0.553110 0.412663
vt 0.577267 0.377242
vt 0.580055 0.399209
vt 0.569852 0.395380
vt 0.567739 0.404150
vt 0.551683 0.339869
vt 0.551683 0.391258
vt 0.570320 0.391258
vt 0.570320 0.339869
vt 0.568519 0.330826
vt 0.553485 0.330826
vt 0.553485 0.317372
vt 0.568519 0.317372
vt 0.564168 0.300173
vt 0.557835 0.300173
vt 0.583499 0.326415
vt 0.579149 0.317372
vt 0.579149 0.303918
vt 0.568646 0.300173
vt 0.583499 0.326415
vt 0.579149 0.317372
vt 0.579149 0.303918
vt 0.568646 0.300173
vt 0.570320 0.339869
vt 0.568519 0.330826
vt 0.568519 0.317372
vt 0.564168 0.300173
vt 0.551683 0.339869
vt 0.553485 0.330826
vt 0.553485 0.317372
vt 0.557835 0.300173
vt 0.538505 0.326415
vt 0.542855 0.317372
vt 0.542855 0.303918
vt 0.553357 0.300173
vt 0.538505 0.326415
vt 0.542855 0.317372
vt 0.542855 0.303918
vt 0.553357 0.300173
vt 0.552152 0.395380
vt 0.554264 0.404150
vt 0.574290 0.415978
vt 0.576605 0.404026
vt 0.576605 0.404026
vt 0.583499 0.377804
vt 0.568334 0.415978
vt 0.583499 0.377804
vt 0.566506 0.415978
vt 0.567465 0.415978
vt 0.575736 0.404026
vt 0.570320 0.391258
vt 0.554539 0.415978
vt 0.566235 0.415978
vt 0.551683 0.391258
vt 0.547714 0.415978
vt 0.545398 0.404026
vt 0.553669 0.415978
vt 0.538505 0.377804
vt 0.545398 0.404026
vt 0.538505 0.377804
vt 0.567739 0.390696
vt 0.568894 0.412663
vt 0.561002 0.299449
vt 0.580184 0.403426
vt 0.568947 0.416880
vt 0.567747 0.427940
vt 0.577287 0.414486
vt 0.553056 0.416880
vt 0.554256 0.427940
vt 0.580184 0.403426
vt 0.577287 0.414486
vt 0.568947 0.416880
vt 0.567747 0.427940
vt 0.553056 0.416880
vt 0.554256 0.427940
vt 0.541819 0.403426
vt 0.544716 0.414486
vt 0.541819 0.403426
vt 0.544716 0.414486
vt 0.570320 0.418166
vt 0.551683 0.418166
vt 0.552152 0.422287
vt 0.569852 0.422287
vt 0.553056 0.443787
vt 0.568947 0.443787
vt 0.568894 0.439570
vt 0.553110 0.439570
vt 0.583499 0.404712
vt 0.582367 0.408834
vt 0.580184 0.430334
vt 0.580055 0.426116
vt 0.583499 0.404712
vt 0.582367 0.408833
vt 0.580184 0.430334
vt 0.580055 0.426116
vt 0.570320 0.418166
vt 0.569852 0.422287
vt 0.568947 0.443787
vt 0.568894 0.439570
vt 0.551683 0.418166
vt 0.552152 0.422287
vt 0.553056 0.443787
vt 0.553110 0.439570
vt 0.538505 0.404712
vt 0.539636 0.408834
vt 0.541819 0.430334
vt 0.541949 0.426116
vt 0.538505 0.404712
vt 0.539636 0.408834
vt 0.541819 0.430334
vt 0.541949 0.426116
vt 0.555153 0.429431
vt 0.566850 0.429431
vt 0.568106 0.428680
vt 0.576376 0.416729
vt 0.576896 0.415978
vt 0.576896 0.415978
vt 0.576376 0.416729
vt 0.568106 0.428680
vt 0.566850 0.429431
vt 0.555153 0.429431
vt 0.553898 0.428680
vt 0.545627 0.416729
vt 0.545107 0.415978
vt 0.545107 0.415978
vt 0.545627 0.416729
vt 0.553898 0.428680
vt 0.567465 0.415978
vt 0.555768 0.415978
vt 0.831141 0.623206
vt 0.825243 0.620343
vt 0.822119 0.614444
vt 0.804076 0.640155
vt 0.797767 0.646281
vt 0.795054 0.644499
vt 0.831141 0.648916
vt 0.831141 0.674626
vt 0.822119 0.661484
vt 0.822119 0.640155
vt 0.822119 0.653432
vt 0.822119 0.674761
vt 0.804076 0.674761
vt 0.804076 0.653432
vt 0.831141 0.714458
vt 0.795054 0.714458
vt 0.804076 0.701316
vt 0.822119 0.701316
vt 0.808400 0.593247
vt 0.817795 0.593247
vt 0.822119 0.584219
vt 0.804076 0.584219
vt 0.822492 0.593247
vt 0.817795 0.586399
vt 0.822492 0.586399
vt 0.808400 0.586399
vt 0.803702 0.593247
vt 0.803702 0.586399
vt 0.795054 0.584219
vt 0.831141 0.584219
vt 0.822119 0.627722
vt 0.813504 0.632103
vt 0.804076 0.632103
vt 0.822119 0.658972
vt 0.825243 0.651593
vt 0.813504 0.663353
vt 0.795054 0.610773
vt 0.795054 0.636483
vt 0.831141 0.636483
vt 0.831141 0.610773
vt 0.804076 0.661484
vt 0.795054 0.674626
vt 0.795054 0.653333
vt 0.804076 0.597496
vt 0.804076 0.618826
vt 0.795054 0.623206
vt 0.795054 0.597496
vt 0.795054 0.657776
vt 0.803669 0.662193
vt 0.831141 0.662193
vt 0.803669 0.693443
vt 0.795054 0.689026
vt 0.797767 0.677531
vt 0.825243 0.604718
vt 0.822119 0.607582
vt 0.813504 0.616478
vt 0.795054 0.687903
vt 0.831141 0.687903
vt 0.795054 0.637708
vt 0.803669 0.646568
vt 0.797767 0.630656
vt 0.804076 0.610773
vt 0.822119 0.610773
vt 0.831141 0.597496
vt 0.822119 0.597496
vt 0.822119 0.623207
vt 0.822119 0.636484
vt 0.795054 0.666610
vn -0.3803 0.1109 -0.9182
vn -0.9182 0.1109 -0.3803
vn -0.9125 -0.1568 -0.3780
vn -0.3780 -0.1568 -0.9125
vn 0.3577 0.3551 0.8637
vn 0.8637 0.3551 0.3577
vn 0.9182 0.1109 0.3803
vn 0.3803 0.1109 0.9182
vn -0.3577 0.3551 0.8637
vn -0.3803 0.1109 0.9182
vn -0.8637 0.3551 0.3577
vn -0.9182 0.1109 0.3803
vn -0.8637 0.3551 -0.3577
vn 0.9125 -0.1568 0.3780
vn 0.3780 -0.1568 0.9125
vn 0.8637 0.3551 -0.3577
vn 0.9182 0.1109 -0.3803
vn 0.0000 1.0000 -0.0000
vn -0.0748 0.9807 -0.1807
vn -0.1807 0.9807 -0.0748
vn -0.9125 -0.1568 0.3780
vn -0.3780 -0.1568 0.9125
vn 0.9125 -0.1568 -0.3780
vn 0.3577 0.3551 -0.8637
vn 0.3803 0.1109 -0.9182
vn -0.3750 -0.1994 -0.9053
vn -0.3799 0.1213 -0.9171
vn 0.3799 0.1213 -0.9171
vn 0.3750 -0.1994 -0.9053
vn 0.2797 -0.6824 -0.6753
vn -0.2797 -0.6824 -0.6753
vn 0.1002 -0.9651 -0.2419
vn -0.1002 -0.9651 -0.2419
vn 0.9053 -0.1994 -0.3750
vn 0.6753 -0.6824 -0.2797
vn 0.2419 -0.9651 -0.1002
vn 0.9053 -0.1994 0.3750
vn 0.6753 -0.6824 0.2797
vn 0.2419 -0.9651 0.1002
vn 0.3750 -0.1994 0.9053
vn 0.2797 -0.6824 0.6753
vn 0.1002 -0.9651 0.2419
vn -0.3750 -0.1994 0.9053
vn -0.2797 -0.6824 0.6753
vn -0.1002 -0.9651 0.2419
vn -0.9053 -0.1994 0.3750
vn -0.6753 -0.6824 0.2797
vn -0.2419 -0.9651 0.1002
vn -0.9053 -0.1994 -0.3750
vn -0.6753 -0.6824 -0.2797
vn -0.2419 -0.9651 -0.1002
vn -0.3577 0.3551 -0.8637
vn 0.1807 0.9807 0.0748
vn 0.1807 0.9807 -0.0748
vn 0.9171 0.1213 -0.3799
vn 0.0748 0.9807 -0.1807
vn 0.9171 0.1213 0.3799
vn 0.0748 0.9807 0.1807
vn 0.3799 0.1213 0.9171
vn -0.0748 0.9807 0.1807
vn -0.3799 0.1213 0.9171
vn -0.1807 0.9807 0.0748
vn -0.9171 0.1213 0.3799
vn -0.9171 0.1213 -0.3799
vn 0.3780 -0.1568 -0.9125
vn 0.0000 -1.0000 -0.0000
vn 0.9191 0.1019 -0.3807
vn 0.3807 0.1019 -0.9191
vn 0.3718 0.2372 -0.8975
vn 0.8975 0.2372 -0.3718
vn -0.3807 0.1019 -0.9191
vn -0.3718 0.2372 -0.8975
vn 0.9191 0.1019 0.3807
vn 0.8975 0.2372 0.3718
vn 0.3807 0.1019 0.9191
vn 0.3718 0.2372 0.8975
vn -0.3807 0.1019 0.9191
vn -0.3718 0.2372 0.8975
vn -0.9191 0.1019 0.3807
vn -0.8975 0.2372 0.3718
vn -0.9191 0.1019 -0.3807
vn -0.8975 0.2372 -0.3718
vn 0.1192 0.9503 -0.2877
vn -0.1192 0.9503 -0.2877
vn 0.2877 0.9503 -0.1192
vn 0.2877 0.9503 0.1192
vn 0.1192 0.9503 0.2877
vn -0.1192 0.9503 0.2877
vn -0.2877 0.9503 0.1192
vn -0.2877 0.9503 -0.1192
vn 0.9233 -0.0000 0.3841
vn -0.9233 -0.0000 0.3841
vn -0.0000 -0.0000 1.0000
vn 0.0000 0.6611 0.7503
vn 0.0000 -0.3597 0.9331
vn 0.0000 -0.5965 0.8026
vn 0.9867 0.0000 0.1623
vn 0.0000 -0.3886 -0.9214
vn 0.0000 0.0000 -1.0000
vn 0.0000 -0.5965 -0.8026
vn 0.5889 -0.7857 0.1894
vn -0.9867 -0.0000 0.1623
vn -0.5889 -0.7857 0.1894
vn 0.1449 0.1597 0.9765
vn 0.0748 0.0825 0.9938
vn 0.4037 0.4449 0.7994
vn -0.0616 -0.1274 -0.9899
vn -0.7032 0.7032 -0.1044
vn 0.5083 -0.6698 0.5412
vn -0.1031 -0.2134 -0.9715
vn -0.2964 -0.6132 -0.7322
usemtl tools
s 1
f 19/1/1 26/2/2 64/3/3 37/4/4
f 53/5/5 49/6/6 22/7/7 23/8/8
f 57/9/9 53/5/5 23/8/8 24/10/10
f 61/11/11 57/9/9 24/10/10 25/12/12
f 65/13/13 61/11/11 25/12/12 26/14/2
f 23/15/8 22/16/7 48/17/14 52/18/15
f 49/6/6 45/19/16 21/20/17 22/7/7
f 1/21/18 70/22/19 81/23/20
f 26/2/2 25/24/12 60/25/21 64/3/3
f 24/26/10 23/15/8 52/18/15 56/27/22
f 22/16/7 21/28/17 44/29/23 48/17/14
f 25/24/12 24/26/10 56/27/22 60/25/21
f 45/19/16 41/30/24 20/31/25 21/20/17
f 3/32/26 35/33/27 42/34/28 5/35/29
f 3/32/26 5/35/29 6/36/30 4/37/31
f 4/38/31 6/39/30 27/40/32 28/41/33
f 5/35/29 7/42/34 8/43/35 6/36/30
f 6/39/30 8/44/35 29/45/36 27/40/32
f 7/42/34 9/46/37 10/47/38 8/43/35
f 8/44/35 10/48/38 30/49/39 29/45/36
f 9/46/37 11/50/40 12/51/41 10/47/38
f 10/48/38 12/52/41 31/53/42 30/49/39
f 11/50/40 13/54/43 14/55/44 12/51/41
f 12/52/41 14/56/44 32/57/45 31/53/42
f 13/54/43 15/58/46 16/59/47 14/55/44
f 14/56/44 16/60/47 33/61/48 32/57/45
f 15/58/46 17/62/49 18/63/50 16/59/47
f 16/60/47 18/64/50 34/65/51 33/61/48
f 17/62/49 3/32/26 4/37/31 18/63/50
f 18/64/50 4/38/31 28/41/33 34/65/51
f 36/66/52 65/13/13 26/14/2 19/67/1
f 1/68/18 73/69/53 71/70/54
f 5/35/29 42/34/28 46/71/55 7/42/34
f 1/68/18 71/70/54 67/72/56
f 7/42/34 46/71/55 50/73/57 9/46/37
f 1/74/18 75/75/58 73/76/53
f 9/46/37 50/73/57 54/77/59 11/50/40
f 1/21/18 77/78/60 75/79/58
f 11/50/40 54/77/59 58/80/61 13/54/43
f 1/81/18 79/82/62 77/83/60
f 13/54/43 58/80/61 62/84/63 15/58/46
f 1/81/18 81/85/20 79/82/62
f 15/58/46 62/84/63 66/86/64 17/62/49
f 17/62/49 66/86/64 35/33/27 3/32/26
f 20/87/25 19/1/1 37/4/4 40/88/65
f 21/28/17 20/87/25 40/88/65 44/29/23
f 2/89/66 28/41/33 27/40/32
f 2/89/66 27/40/32 29/45/36
f 2/89/66 29/45/36 30/49/39
f 2/89/66 30/49/39 31/53/42
f 2/89/66 31/53/42 32/57/45
f 2/89/66 32/57/45 33/61/48
f 2/89/66 33/61/48 34/65/51
f 2/89/66 34/65/51 28/41/33
f 43/90/67 39/91/68 68/92/69 72/93/70
f 39/91/68 38/94/71 69/95/72 68/92/69
f 47/96/73 43/90/67 72/93/70 74/97/74
f 51/98/75 47/96/73 74/97/74 76/99/76
f 55/100/77 51/98/75 76/99/76 78/101/78
f 59/102/79 55/100/77 78/101/78 80/103/80
f 63/104/81 59/102/79 80/103/80 82/105/82
f 38/94/71 63/104/81 82/105/82 69/95/72
f 42/106/28 35/107/27 36/108/52 41/109/24
f 38/110/71 39/111/68 40/112/65 37/113/4
f 46/114/55 42/106/28 41/109/24 45/115/16
f 39/111/68 43/116/67 44/117/23 40/112/65
f 50/118/57 46/114/55 45/115/16 49/119/6
f 43/116/67 47/120/73 48/121/14 44/117/23
f 54/122/59 50/118/57 49/119/6 53/123/5
f 47/120/73 51/124/75 52/125/15 48/121/14
f 58/126/61 54/122/59 53/123/5 57/127/9
f 51/124/75 55/128/77 56/129/22 52/125/15
f 62/130/63 58/126/61 57/127/9 61/131/11
f 55/128/77 59/132/79 60/133/21 56/129/22
f 66/134/64 62/130/63 61/131/11 65/135/13
f 59/132/79 63/136/81 64/137/3 60/133/21
f 35/107/27 66/134/64 65/135/13 36/108/52
f 63/136/81 38/110/71 37/113/4 64/137/3
f 41/30/24 36/66/52 19/67/1 20/31/25
f 68/92/83 69/95/84 70/138/19 67/139/56
f 72/93/85 68/92/83 67/140/56 71/141/54
f 74/97/86 72/93/85 71/142/54 73/143/53
f 76/99/87 74/97/86 73/144/53 75/145/58
f 78/101/88 76/99/87 75/146/58 77/147/60
f 80/103/89 78/101/88 77/148/60 79/149/62
f 82/105/90 80/103/89 79/150/62 81/151/20
f 69/95/84 82/105/90 81/152/20 70/153/19
f 1/74/18 67/154/56 70/155/19
f 103/156/91 109/157/91 112/158/91
f 100/159/92 108/160/92 107/161/92
f 102/162/91 90/163/91 88/164/91 104/165/91
f 104/166/93 88/167/93 84/168/93 100/169/93
f 90/170/94 86/171/94 84/172/94 88/173/94
f 96/174/95 98/175/95 87/176/96 83/177/96
f 97/178/97 98/175/97 94/179/97 93/180/97
f 98/175/95 96/174/95 92/181/93 94/179/93
f 95/182/98 97/178/98 93/180/99 91/183/99
f 97/178/98 95/182/98 85/184/100 89/185/100
f 98/175/101 97/178/101 89/185/101 87/176/101
f 96/174/102 95/182/102 91/183/102 92/181/102
f 95/182/103 96/174/103 83/177/103 85/184/103
f 103/156/91 102/162/91 104/165/91
f 112/186/104 111/187/105 99/188/93
f 99/188/93 104/166/93 100/169/93
f 112/189/104 109/190/106 111/191/105
f 85/192/99 101/193/99 103/194/99 89/195/99
f 84/196/92 86/197/92 105/198/92
f 83/199/92 99/200/92 101/201/92 85/202/92
f 107/203/99 106/204/107 102/205/99
f 106/206/108 107/207/108 108/208/108
f 109/209/109 110/210/109 111/211/109
f 102/205/99 86/212/99 90/213/99
f 105/214/110 106/215/107 108/216/111
f 83/217/93 87/218/93 99/188/93
f 89/219/91 103/156/91 87/220/91
f 103/156/91 104/165/91 110/221/91
f 110/222/93 104/166/93 99/188/93
f 99/200/92 100/159/92 101/201/92
f 103/194/99 101/193/99 102/205/99
f 105/223/110 86/212/99 102/205/99
f 100/159/92 84/196/92 108/160/92
f 108/160/92 84/196/92 105/198/92
f 101/201/92 100/159/92 107/161/92
f 109/157/91 103/156/91 110/221/91
f 111/187/105 110/222/93 99/188/93
f 87/218/93 112/186/104 99/188/93
f 87/220/91 103/156/91 112/158/91
f 106/204/107 105/223/110 102/205/99
f 101/193/99 107/203/99 102/205/99
