# Blender v3.4.1 OBJ File: 'RPG_Tool_Bits_Export.blend'
# www.blender.org
mtllib compass_base_compass_needle.mtl
o compass_needle
v 0.000009 0.056036 -0.165712
v 0.000009 0.056036 0.165712
v -0.024306 0.056036 -0.030363
v 0.024323 0.056036 0.030364
v 0.024323 0.056036 -0.030363
v -0.024306 0.056036 0.030364
v 0.000009 0.084074 -0.151677
v 0.024323 0.084074 -0.030363
v 0.000009 0.084074 0.151677
v -0.024306 0.084074 0.030364
v -0.024306 0.084074 -0.030363
v 0.024323 0.084074 0.030364
v 0.000009 0.072649 0.186258
v -0.039773 0.072649 0.030364
v 0.039791 0.072649 0.030364
v -0.039773 0.072649 -0.030363
v 0.000009 0.072649 -0.186257
v 0.039791 0.072649 -0.030363
vt 0.046392 0.130454
vt 0.078604 0.130454
vt 0.062498 0.130454
vt 0.187498 0.130454
vt 0.203604 0.130454
vt 0.171392 0.130454
vt 0.046392 0.203958
vt 0.062498 0.203959
vt 0.078604 0.203958
vt 0.187498 0.203959
vt 0.171392 0.203958
vt 0.203604 0.203958
vt 0.036146 0.135955
vt 0.062498 0.135955
vt 0.062498 0.141459
vt 0.046392 0.141458
vt 0.187498 0.135955
vt 0.161146 0.135955
vt 0.171392 0.141458
vt 0.187498 0.141459
vt 0.213850 0.135955
vt 0.203604 0.141458
vt 0.088850 0.135955
vt 0.078604 0.141458
vn 0.0000 -1.0000 0.0000
vn 0.0000 1.0000 -0.0000
vn -0.6888 0.7073 0.1593
vn -0.6888 0.7073 -0.1593
vn 0.6888 0.7073 -0.1593
vn 0.6888 0.7073 0.1593
vn 0.8420 -0.5066 0.1853
vn -0.8420 -0.5066 0.1853
vn 0.8420 -0.5066 -0.1853
vn -0.8420 -0.5066 -0.1853
usemtl tools
s off
f 6/1/1 4/2/1 2/3/1
f 1/4/1 5/5/1 3/6/1
f 10/7/2 9/8/2 12/9/2
f 7/10/2 11/11/2 8/12/2
f 14/13/3 13/14/3 9/15/3 10/16/3
f 17/17/4 16/18/4 11/19/4 7/20/4
f 18/21/5 17/17/5 7/20/5 8/22/5
f 13/14/6 15/23/6 12/24/6 9/15/6
f 2/3/7 4/2/7 15/23/7 13/14/7
f 6/1/8 2/3/8 13/14/8 14/13/8
f 5/5/9 1/4/9 17/17/9 18/21/9
f 1/4/10 3/6/10 16/18/10 17/17/10
