# Blender v3.4.1 OBJ File: 'RPG_Tool_Bits_Export.blend'
# www.blender.org
mtllib drafting_compass_wheel.mtl
o drafting_compass_wheel
v -0.018592 -0.276762 -0.083776
v 0.018594 -0.276762 -0.083776
v -0.018592 -0.318650 -0.072552
v 0.018594 -0.318650 -0.072552
v -0.018592 -0.349314 -0.041888
v 0.018594 -0.349314 -0.041888
v -0.018592 -0.360538 -0.000000
v 0.018594 -0.360538 -0.000000
v -0.018592 -0.349314 0.041888
v 0.018594 -0.349314 0.041888
v -0.018592 -0.318650 0.072552
v 0.018594 -0.318650 0.072552
v -0.018592 -0.276762 0.083776
v 0.018594 -0.276762 0.083776
v -0.018592 -0.234874 0.072552
v 0.018594 -0.234874 0.072552
v -0.018592 -0.204209 0.041888
v 0.018594 -0.204209 0.041888
v -0.018592 -0.192985 -0.000000
v 0.018594 -0.192985 -0.000000
v -0.018592 -0.204209 -0.041888
v 0.018594 -0.204209 -0.041888
v -0.018592 -0.234874 -0.072552
v 0.018594 -0.234873 -0.072552
v -0.010586 -0.284948 -0.088822
v 0.010588 -0.284948 -0.088822
v 0.010588 -0.314083 -0.081015
v -0.010586 -0.314083 -0.081015
v -0.010586 -0.328262 -0.072829
v 0.010588 -0.328262 -0.072829
v 0.010588 -0.349590 -0.051500
v -0.010586 -0.349590 -0.051500
v -0.010586 -0.357776 -0.037321
v 0.010588 -0.357776 -0.037321
v 0.010588 -0.365583 -0.008186
v -0.010586 -0.365583 -0.008186
v -0.010586 -0.365583 0.008186
v 0.010588 -0.365583 0.008186
v 0.010588 -0.357776 0.037321
v -0.010586 -0.357776 0.037321
v -0.010586 -0.349590 0.051500
v 0.010588 -0.349590 0.051500
v 0.010588 -0.328262 0.072829
v -0.010586 -0.328262 0.072829
v -0.010586 -0.314083 0.081015
v 0.010588 -0.314083 0.081015
v 0.010588 -0.284948 0.088822
v -0.010586 -0.284948 0.088822
v -0.010586 -0.268575 0.088822
v 0.010588 -0.268575 0.088822
v 0.010588 -0.239440 0.081015
v -0.010586 -0.239440 0.081015
v -0.010586 -0.225261 0.072829
v 0.010588 -0.225261 0.072829
v 0.010588 -0.203933 0.051500
v -0.010586 -0.203933 0.051500
v -0.010586 -0.195747 0.037321
v 0.010588 -0.195747 0.037321
v 0.010588 -0.187940 0.008186
v -0.010586 -0.187940 0.008186
v -0.010586 -0.187940 -0.008186
v 0.010588 -0.187940 -0.008186
v 0.010588 -0.195747 -0.037321
v -0.010586 -0.195747 -0.037321
v -0.010586 -0.203933 -0.051500
v 0.010588 -0.203933 -0.051500
v 0.010588 -0.225261 -0.072829
v -0.010586 -0.225261 -0.072829
v -0.010586 -0.239440 -0.081015
v 0.010588 -0.239440 -0.081015
v 0.010588 -0.268575 -0.088822
v -0.010586 -0.268575 -0.088822
v 0.026253 -0.295761 -0.032908
v 0.026253 -0.276762 -0.037998
v 0.026253 -0.257762 -0.032908
v 0.026253 -0.243854 -0.018999
v 0.026253 -0.238763 -0.000000
v 0.026253 -0.243854 0.018999
v 0.026253 -0.257762 0.032908
v 0.026253 -0.276762 0.037998
v 0.026253 -0.295761 0.032908
v 0.026253 -0.309669 0.018999
v 0.026253 -0.314760 -0.000000
v 0.026253 -0.309669 -0.018999
v -0.026251 -0.276762 -0.037998
v -0.026251 -0.295761 -0.032908
v -0.026251 -0.309669 -0.018999
v -0.026251 -0.314760 -0.000000
v -0.026251 -0.309669 0.018999
v -0.026251 -0.295761 0.032908
v -0.026251 -0.276762 0.037998
v -0.026251 -0.257762 0.032908
v -0.026251 -0.243854 0.018999
v -0.026251 -0.238763 -0.000000
v -0.026251 -0.243854 -0.018999
v -0.026251 -0.257762 -0.032908
v 0.033788 -0.294652 -0.030987
v 0.033788 -0.276762 -0.035780
v 0.033788 -0.307748 -0.017890
v 0.033788 -0.258871 -0.030987
v 0.033788 -0.245775 -0.017890
v 0.033788 -0.240981 -0.000000
v 0.033788 -0.245775 0.017890
v 0.033788 -0.258871 0.030987
v 0.033788 -0.276762 0.035780
v 0.033788 -0.294652 0.030987
v 0.033788 -0.307748 0.017890
v 0.033788 -0.312542 -0.000000
v -0.033787 -0.276762 -0.035780
v -0.033787 -0.294652 -0.030987
v -0.033787 -0.258871 -0.030987
v -0.033787 -0.307748 -0.017890
v -0.033787 -0.312542 -0.000000
v -0.033787 -0.307748 0.017890
v -0.033787 -0.294652 0.030987
v -0.033787 -0.276762 0.035780
v -0.033787 -0.258871 0.030987
v -0.033787 -0.245775 0.017890
v -0.033787 -0.240981 -0.000000
v -0.033787 -0.245775 -0.017890
v 0.033788 -0.276762 -0.000000
v -0.033787 -0.276762 -0.000000
vt 0.801371 0.624125
vt 0.803604 0.624125
vt 0.803605 0.615150
vt 0.801371 0.615150
vt 0.801371 0.611747
vt 0.803605 0.611747
vt 0.803604 0.605177
vt 0.801371 0.605177
vt 0.801371 0.603212
vt 0.803604 0.603212
vt 0.803604 0.600807
vt 0.801371 0.600808
vt 0.801371 0.600808
vt 0.803604 0.600808
vt 0.803605 0.603213
vt 0.801371 0.603212
vt 0.801371 0.605177
vt 0.803605 0.605177
vt 0.803604 0.611747
vt 0.801371 0.611747
vt 0.801371 0.615150
vt 0.803605 0.615150
vt 0.803605 0.624125
vt 0.801371 0.624125
vt 0.801371 0.628054
vt 0.803605 0.628054
vt 0.803605 0.637029
vt 0.801371 0.637029
vt 0.801371 0.640431
vt 0.803605 0.640431
vt 0.803605 0.647002
vt 0.801371 0.647002
vt 0.801371 0.648966
vt 0.803605 0.648966
vt 0.803604 0.651371
vt 0.801371 0.651371
vt 0.801371 0.651371
vt 0.803605 0.651371
vt 0.803604 0.648966
vt 0.801371 0.648966
vt 0.804449 0.579214
vt 0.804449 0.573361
vt 0.804449 0.573361
vt 0.804449 0.579214
vt 0.801371 0.647002
vt 0.803604 0.647002
vt 0.803604 0.640431
vt 0.801371 0.640431
vt 0.801371 0.637029
vt 0.803604 0.637029
vt 0.803605 0.628054
vt 0.801371 0.628054
vt 0.800527 0.573361
vt 0.800527 0.579214
vt 0.800527 0.579214
vt 0.800527 0.573361
vt 0.800527 0.626089
vt 0.804449 0.626089
vt 0.804449 0.613185
vt 0.800527 0.613185
vt 0.804449 0.603739
vt 0.800527 0.603739
vt 0.804449 0.600281
vt 0.800527 0.600281
vt 0.804449 0.603739
vt 0.800527 0.603739
vt 0.804449 0.613185
vt 0.800527 0.613185
vt 0.804449 0.626089
vt 0.800527 0.626089
vt 0.804449 0.638994
vt 0.800527 0.638994
vt 0.804449 0.648440
vt 0.800527 0.648440
vt 0.804449 0.651897
vt 0.800527 0.651897
vt 0.804449 0.648440
vt 0.800527 0.648440
vt 0.804449 0.638994
vt 0.800527 0.638994
vt 0.804449 0.626089
vt 0.804449 0.620236
vt 0.804449 0.631942
vt 0.804449 0.636227
vt 0.804449 0.637795
vt 0.804449 0.636227
vt 0.804449 0.631942
vt 0.804449 0.626089
vt 0.804449 0.620236
vt 0.804449 0.615952
vt 0.804449 0.614384
vt 0.804449 0.615952
vt 0.800527 0.620236
vt 0.800527 0.626089
vt 0.800527 0.615952
vt 0.800527 0.614384
vt 0.800527 0.615952
vt 0.800527 0.620236
vt 0.800527 0.626089
vt 0.800527 0.631942
vt 0.800527 0.636227
vt 0.800527 0.637795
vt 0.800527 0.636227
vt 0.800527 0.631942
vt 0.804449 0.569077
vt 0.804449 0.573361
vt 0.804449 0.573361
vt 0.804449 0.569077
vt 0.800527 0.585067
vt 0.800527 0.585067
vt 0.804449 0.569077
vt 0.804449 0.569077
vt 0.800527 0.579214
vt 0.800527 0.573361
vt 0.800527 0.573361
vt 0.800527 0.579214
vt 0.804449 0.579214
vt 0.804449 0.585067
vt 0.804449 0.585067
vt 0.804449 0.579214
vt 0.800527 0.589352
vt 0.800527 0.589352
vt 0.804449 0.567509
vt 0.804449 0.567509
vt 0.800527 0.585067
vt 0.800527 0.585067
vt 0.804449 0.589352
vt 0.804449 0.589352
vt 0.800527 0.590920
vt 0.800527 0.590920
vt 0.800527 0.569077
vt 0.800527 0.569077
vt 0.804449 0.590920
vt 0.804449 0.590920
vt 0.800527 0.589352
vt 0.800527 0.589352
vt 0.800527 0.567509
vt 0.800527 0.567509
vt 0.804449 0.589352
vt 0.804449 0.589352
vt 0.800527 0.569077
vt 0.800527 0.569077
vt 0.804449 0.585067
vt 0.804449 0.585067
vt 0.804449 0.575803
vt 0.804449 0.579214
vt 0.804449 0.582625
vt 0.804449 0.585122
vt 0.804449 0.586036
vt 0.804449 0.573306
vt 0.804449 0.572392
vt 0.800527 0.579214
vt 0.800527 0.575803
vt 0.800527 0.573306
vt 0.800527 0.572392
vt 0.800527 0.582625
vt 0.800527 0.585122
vt 0.800527 0.586036
vn 0.0000 -0.2588 -0.9659
vn 0.0000 -0.7071 -0.7071
vn -0.0000 -0.9659 -0.2588
vn 0.0000 -0.9659 0.2588
vn 0.0000 -0.7071 0.7071
vn 0.0000 -0.2588 0.9659
vn 0.0000 0.2588 0.9659
vn 0.0000 0.7071 0.7071
vn 0.0000 0.9659 0.2588
vn -0.0000 0.9659 -0.2588
vn 0.2824 0.0000 0.9593
vn 0.2824 -0.4797 0.8308
vn 0.0000 0.7071 -0.7071
vn -0.0000 0.2588 -0.9659
vn -0.2824 -0.4797 0.8308
vn -0.2824 -0.0000 0.9593
vn -0.0000 0.5247 -0.8513
vn 0.6578 -0.1949 -0.7275
vn 0.0000 -0.8800 -0.4749
vn -0.6578 -0.1949 -0.7275
vn 0.0000 0.0287 -0.9996
vn 0.6578 -0.5326 -0.5326
vn 0.0000 -0.9996 0.0287
vn -0.6578 -0.5326 -0.5326
vn 0.0000 -0.4749 -0.8800
vn 0.6578 -0.7275 -0.1949
vn 0.0000 -0.8513 0.5247
vn -0.6578 -0.7275 -0.1949
vn -0.0000 -0.8513 -0.5247
vn 0.6578 -0.7275 0.1949
vn 0.0000 -0.4749 0.8800
vn -0.6578 -0.7275 0.1949
vn -0.0000 -0.9996 -0.0287
vn 0.6578 -0.5326 0.5326
vn 0.0000 0.0287 0.9996
vn -0.6578 -0.5326 0.5326
vn 0.0000 -0.8800 0.4749
vn 0.6578 -0.1949 0.7275
vn 0.0000 0.5247 0.8513
vn -0.6578 -0.1949 0.7275
vn 0.0000 -0.5247 0.8513
vn 0.6578 0.1949 0.7275
vn 0.0000 0.8800 0.4749
vn -0.6578 0.1949 0.7275
vn 0.0000 -0.0287 0.9996
vn 0.6578 0.5326 0.5326
vn 0.0000 0.9996 -0.0287
vn -0.6578 0.5326 0.5326
vn 0.0000 0.4749 0.8800
vn 0.6578 0.7275 0.1949
vn -0.0000 0.8513 -0.5247
vn -0.6578 0.7275 0.1949
vn 0.0000 0.8513 0.5247
vn 0.6578 0.7275 -0.1949
vn -0.0000 0.4749 -0.8800
vn -0.6578 0.7275 -0.1949
vn 0.0000 0.9996 0.0287
vn 0.6578 0.5326 -0.5326
vn 0.0000 -0.0287 -0.9996
vn -0.6578 0.5326 -0.5326
vn -0.0000 0.8800 -0.4749
vn 0.6578 0.1949 -0.7275
vn 0.0000 -0.5247 -0.8513
vn -0.6578 0.1949 -0.7275
vn 0.9863 -0.0825 -0.1429
vn 0.9863 0.0000 -0.1650
vn 0.9863 0.0825 -0.1429
vn 0.9863 0.1429 -0.0825
vn 0.9863 0.1650 -0.0000
vn 0.9863 0.1429 0.0825
vn 0.9863 0.0825 0.1429
vn 0.9863 0.0000 0.1650
vn 0.9863 -0.0825 0.1429
vn 0.9863 -0.1429 0.0825
vn 0.9863 -0.1650 -0.0000
vn 0.9863 -0.1429 -0.0825
vn -0.9863 -0.0000 -0.1650
vn -0.9863 -0.0825 -0.1429
vn -0.9863 -0.1429 -0.0825
vn -0.9863 -0.1650 0.0000
vn -0.9863 -0.1429 0.0825
vn -0.9863 -0.0825 0.1429
vn -0.9863 -0.0000 0.1650
vn -0.9863 0.0825 0.1429
vn -0.9863 0.1429 0.0825
vn -0.9863 0.1650 0.0000
vn -0.9863 0.1429 -0.0825
vn -0.9863 0.0825 -0.1429
vn 0.2824 -0.8308 -0.4797
vn 0.2824 -0.4797 -0.8308
vn -0.2824 0.4797 0.8308
vn 0.2824 -0.8308 0.4797
vn -0.2824 0.0000 -0.9593
vn -0.2824 -0.4797 -0.8308
vn 0.2824 0.0000 -0.9593
vn 0.2824 0.4797 -0.8308
vn -0.2824 0.8308 0.4797
vn 0.2824 -0.9593 0.0000
vn -0.2824 0.4797 -0.8308
vn 0.2824 0.8308 -0.4797
vn -0.2824 0.9593 -0.0000
vn -0.2824 -0.8308 -0.4797
vn 0.2824 0.9593 -0.0000
vn -0.2824 0.8308 -0.4797
vn -0.2824 -0.9593 -0.0000
vn 0.2824 0.8308 0.4797
vn -0.2824 -0.8308 0.4797
vn 0.2824 0.4797 0.8308
vn 1.0000 0.0000 -0.0000
vn -1.0000 -0.0000 0.0000
usemtl tools
s 1
f 25/1/1 26/2/1 27/3/1 28/4/1
f 29/5/2 30/6/2 31/7/2 32/8/2
f 33/9/3 34/10/3 35/11/3 36/12/3
f 37/13/4 38/14/4 39/15/4 40/16/4
f 41/17/5 42/18/5 43/19/5 44/20/5
f 45/21/6 46/22/6 47/23/6 48/24/6
f 49/25/7 50/26/7 51/27/7 52/28/7
f 53/29/8 54/30/8 55/31/8 56/32/8
f 57/33/9 58/34/9 59/35/9 60/36/9
f 61/37/10 62/38/10 63/39/10 64/40/10
f 80/41/11 81/42/12 106/43/12 105/44/11
f 65/45/13 66/46/13 67/47/13 68/48/13
f 69/49/14 70/50/14 71/51/14 72/52/14
f 90/53/15 91/54/16 116/55/16 115/56/15
f 1/57/17 2/58/17 26/2/17 25/1/17
f 2/58/18 4/59/18 27/3/18 26/2/18
f 4/59/19 3/60/19 28/4/19 27/3/19
f 3/60/20 1/57/20 25/1/20 28/4/20
f 3/60/21 4/59/21 30/6/21 29/5/21
f 4/59/22 6/61/22 31/7/22 30/6/22
f 6/61/23 5/62/23 32/8/23 31/7/23
f 5/62/24 3/60/24 29/5/24 32/8/24
f 5/62/25 6/61/25 34/10/25 33/9/25
f 6/61/26 8/63/26 35/11/26 34/10/26
f 8/63/27 7/64/27 36/12/27 35/11/27
f 7/64/28 5/62/28 33/9/28 36/12/28
f 7/64/29 8/63/29 38/14/29 37/13/29
f 8/63/30 10/65/30 39/15/30 38/14/30
f 10/65/31 9/66/31 40/16/31 39/15/31
f 9/66/32 7/64/32 37/13/32 40/16/32
f 9/66/33 10/65/33 42/18/33 41/17/33
f 10/65/34 12/67/34 43/19/34 42/18/34
f 12/67/35 11/68/35 44/20/35 43/19/35
f 11/68/36 9/66/36 41/17/36 44/20/36
f 11/68/37 12/67/37 46/22/37 45/21/37
f 12/67/38 14/69/38 47/23/38 46/22/38
f 14/69/39 13/70/39 48/24/39 47/23/39
f 13/70/40 11/68/40 45/21/40 48/24/40
f 13/70/41 14/69/41 50/26/41 49/25/41
f 14/69/42 16/71/42 51/27/42 50/26/42
f 16/71/43 15/72/43 52/28/43 51/27/43
f 15/72/44 13/70/44 49/25/44 52/28/44
f 15/72/45 16/71/45 54/30/45 53/29/45
f 16/71/46 18/73/46 55/31/46 54/30/46
f 18/73/47 17/74/47 56/32/47 55/31/47
f 17/74/48 15/72/48 53/29/48 56/32/48
f 17/74/49 18/73/49 58/34/49 57/33/49
f 18/73/50 20/75/50 59/35/50 58/34/50
f 20/75/51 19/76/51 60/36/51 59/35/51
f 19/76/52 17/74/52 57/33/52 60/36/52
f 19/76/53 20/75/53 62/38/53 61/37/53
f 20/75/54 22/77/54 63/39/54 62/38/54
f 22/77/55 21/78/55 64/40/55 63/39/55
f 21/78/56 19/76/56 61/37/56 64/40/56
f 21/78/57 22/77/57 66/46/57 65/45/57
f 22/77/58 24/79/58 67/47/58 66/46/58
f 24/79/59 23/80/59 68/48/59 67/47/59
f 23/80/60 21/78/60 65/45/60 68/48/60
f 23/80/61 24/79/61 70/50/61 69/49/61
f 24/79/62 2/58/62 71/51/62 70/50/62
f 2/58/63 1/57/63 72/52/63 71/51/63
f 1/57/64 23/80/64 69/49/64 72/52/64
f 4/59/65 2/58/66 74/81/66 73/82/65
f 2/58/66 24/79/67 75/83/67 74/81/66
f 24/79/67 22/77/68 76/84/68 75/83/67
f 22/77/68 20/75/69 77/85/69 76/84/68
f 20/75/69 18/73/70 78/86/70 77/85/69
f 18/73/70 16/71/71 79/87/71 78/86/70
f 16/71/71 14/69/72 80/88/72 79/87/71
f 14/69/72 12/67/73 81/89/73 80/88/72
f 12/67/73 10/65/74 82/90/74 81/89/73
f 10/65/74 8/63/75 83/91/75 82/90/74
f 8/63/75 6/61/76 84/92/76 83/91/75
f 6/61/76 4/59/65 73/82/65 84/92/76
f 1/57/77 3/60/78 86/93/78 85/94/77
f 3/60/78 5/62/79 87/95/79 86/93/78
f 5/62/79 7/64/80 88/96/80 87/95/79
f 7/64/80 9/66/81 89/97/81 88/96/80
f 9/66/81 11/68/82 90/98/82 89/97/81
f 11/68/82 13/70/83 91/99/83 90/98/82
f 13/70/83 15/72/84 92/100/84 91/99/83
f 15/72/84 17/74/85 93/101/85 92/100/84
f 17/74/85 19/76/86 94/102/86 93/101/85
f 19/76/86 21/78/87 95/103/87 94/102/86
f 21/78/87 23/80/88 96/104/88 95/103/87
f 23/80/88 1/57/77 85/94/77 96/104/88
f 84/105/89 73/106/90 97/107/90 99/108/89
f 91/54/16 92/109/91 117/110/91 116/55/16
f 81/42/12 82/111/92 107/112/92 106/43/12
f 85/113/93 86/114/94 110/115/94 109/116/93
f 74/117/95 75/118/96 100/119/96 98/120/95
f 92/109/91 93/121/97 118/122/97 117/110/91
f 82/111/92 83/123/98 108/124/98 107/112/92
f 96/125/99 85/113/93 109/116/93 111/126/99
f 75/118/96 76/127/100 101/128/100 100/119/96
f 93/121/97 94/129/101 119/130/101 118/122/97
f 83/123/98 84/105/89 99/108/89 108/124/98
f 86/114/94 87/131/102 112/132/102 110/115/94
f 76/127/100 77/133/103 102/134/103 101/128/100
f 94/129/101 95/135/104 120/136/104 119/130/101
f 87/131/102 88/137/105 113/138/105 112/132/102
f 77/133/103 78/139/106 103/140/106 102/134/103
f 95/135/104 96/125/99 111/126/99 120/136/104
f 88/137/105 89/141/107 114/142/107 113/138/105
f 78/139/106 79/143/108 104/144/108 103/140/106
f 89/141/107 90/53/15 115/56/15 114/142/107
f 79/143/108 80/41/11 105/44/11 104/144/108
f 73/106/90 74/117/95 98/120/95 97/107/90
f 97/107/109 98/120/109 121/145/109
f 98/120/109 100/119/109 121/146/109
f 100/119/109 101/128/109 121/147/109
f 101/128/109 102/134/109 121/148/109
f 102/134/109 103/140/109 121/149/109
f 103/140/109 104/144/109 121/148/109
f 104/144/109 105/44/109 121/147/109
f 105/44/109 106/43/109 121/146/109
f 106/43/109 107/112/109 121/145/109
f 107/112/109 108/124/109 121/150/109
f 108/124/109 99/108/109 121/151/109
f 99/108/109 97/107/109 121/150/109
f 109/116/110 110/115/110 122/152/110
f 110/115/110 112/132/110 122/153/110
f 112/132/110 113/138/110 122/154/110
f 113/138/110 114/142/110 122/155/110
f 114/142/110 115/56/110 122/154/110
f 115/56/110 116/55/110 122/153/110
f 116/55/110 117/110/110 122/152/110
f 117/110/110 118/122/110 122/156/110
f 118/122/110 119/130/110 122/157/110
f 119/130/110 120/136/110 122/158/110
f 120/136/110 111/126/110 122/157/110
f 111/126/110 109/116/110 122/156/110
