# Blender v3.4.1 OBJ File: 'RPG_Tool_Bits_Export.blend'
# www.blender.org
mtllib file.mtl
o file
v -0.000000 -0.185125 -0.000000
v -0.031339 -0.132349 -0.075658
v -0.025279 -0.167669 -0.061028
v 0.031338 -0.132349 -0.075658
v 0.025278 -0.167669 -0.061028
v 0.075657 -0.132349 -0.031338
v 0.061028 -0.167669 -0.025279
v 0.075657 -0.132349 0.031338
v 0.061028 -0.167669 0.025278
v 0.031338 -0.132350 0.075657
v 0.025278 -0.167669 0.061028
v -0.031338 -0.132350 0.075657
v -0.025279 -0.167669 0.061028
v -0.075658 -0.132349 0.031338
v -0.061028 -0.167669 0.025278
v -0.075658 -0.132349 -0.031338
v -0.061028 -0.167669 -0.025279
v -0.022658 0.118714 -0.054700
v 0.022657 0.118714 -0.054700
v 0.054700 0.118714 -0.022658
v 0.054700 0.118714 0.022658
v 0.022657 0.118714 0.054700
v -0.022658 0.118714 0.054700
v -0.054700 0.118714 0.022658
v -0.054700 0.118714 -0.022658
v 0.010649 -0.182298 -0.025709
v -0.010649 -0.182298 -0.025709
v 0.025708 -0.182298 -0.010649
v 0.025708 -0.182298 0.010649
v 0.010649 -0.182298 0.025708
v -0.010649 -0.182298 0.025708
v -0.025709 -0.182298 0.010649
v -0.025709 -0.182298 -0.010649
v -0.031339 0.068360 -0.075658
v -0.029762 0.084458 -0.071852
v -0.026541 0.151961 -0.064075
v -0.026722 0.168432 -0.064512
v 0.026721 0.168432 -0.064512
v 0.026541 0.151961 -0.064075
v 0.029762 0.084458 -0.071852
v 0.031338 0.068360 -0.075657
v 0.064511 0.168431 -0.026722
v 0.064075 0.151961 -0.026541
v 0.071852 0.084458 -0.029762
v 0.075657 0.068360 -0.031338
v 0.064511 0.168431 0.026722
v 0.064075 0.151961 0.026541
v 0.071852 0.084458 0.029762
v 0.075657 0.068360 0.031338
v 0.026721 0.168431 0.064512
v 0.026541 0.151961 0.064075
v 0.029762 0.084458 0.071852
v 0.031338 0.068360 0.075657
v -0.026722 0.168431 0.064512
v -0.026541 0.151961 0.064075
v -0.029762 0.084458 0.071852
v -0.031338 0.068360 0.075657
v -0.064512 0.168431 0.026722
v -0.064075 0.151961 0.026541
v -0.071852 0.084458 0.029762
v -0.075658 0.068360 0.031338
v -0.064512 0.168431 -0.026722
v -0.064075 0.151961 -0.026541
v -0.071852 0.084458 -0.029762
v -0.075658 0.068360 -0.031338
v 0.022685 0.211631 -0.054768
v -0.022686 0.211631 -0.054768
v 0.054768 0.211631 -0.022686
v 0.054768 0.211631 0.022686
v 0.022685 0.211631 0.054768
v -0.022686 0.211631 0.054768
v -0.054768 0.211631 0.022686
v -0.054768 0.211631 -0.022686
v 0.038157 0.261612 -0.015805
v -0.038157 0.261612 -0.015805
v -0.038157 0.261612 0.015805
v 0.015805 0.261612 0.038157
v 0.038157 0.261612 0.015805
v 0.015805 0.261612 -0.038157
v -0.015805 0.261612 0.038157
v -0.015805 0.261612 -0.038157
v -0.020856 0.222163 -0.008639
v -0.020856 0.222163 0.008639
v -0.008639 0.222163 0.020856
v 0.008639 0.222163 0.020856
v 0.020856 0.222163 0.008639
v 0.020856 0.222163 -0.008639
v 0.008639 0.222163 -0.020856
v -0.008639 0.222163 -0.020856
v -0.000000 0.785156 0.000000
v -0.010608 0.772235 0.025611
v -0.006274 0.782662 0.015146
v -0.015146 0.782662 0.006274
v -0.025611 0.772235 0.010608
v 0.025610 0.772235 0.010608
v 0.015146 0.782662 0.006274
v 0.025610 0.772235 -0.010608
v 0.015146 0.782662 -0.006274
v -0.010608 0.772235 -0.025611
v -0.006274 0.782662 -0.015146
v -0.025611 0.772235 -0.010608
v -0.015146 0.782662 -0.006274
v 0.006273 0.782662 0.015146
v 0.010608 0.772235 0.025611
v 0.006273 0.782662 -0.015146
v 0.010608 0.772235 -0.025611
v -0.028120 0.647956 0.011648
v -0.030629 0.543855 0.012687
v -0.033139 0.439753 0.013726
v -0.035648 0.335652 0.014766
v -0.014766 0.352103 0.035648
v -0.013727 0.455046 0.033138
v -0.012687 0.557990 0.030629
v -0.011648 0.660933 0.028120
v 0.014766 0.375369 0.035648
v 0.013726 0.476674 0.033138
v 0.012687 0.577980 0.030629
v 0.011647 0.679285 0.028120
v -0.028120 0.647956 -0.011648
v -0.030629 0.543855 -0.012687
v -0.033139 0.439753 -0.013726
v -0.035648 0.335652 -0.014766
v 0.035648 0.391820 0.014766
v 0.033138 0.491967 0.013726
v 0.030629 0.592115 0.012687
v 0.028120 0.692263 0.011648
v 0.035648 0.391820 -0.014766
v 0.033138 0.491967 -0.013726
v 0.030629 0.592115 -0.012687
v 0.028120 0.692263 -0.011648
v 0.014766 0.375369 -0.035648
v 0.013726 0.476674 -0.033138
v 0.012687 0.577980 -0.030629
v 0.011647 0.679285 -0.028120
v -0.014766 0.352103 -0.035648
v -0.013727 0.455046 -0.033138
v -0.012687 0.557990 -0.030629
v -0.011648 0.660933 -0.028120
vt 0.554264 0.393775
vt 0.544737 0.378150
vt 0.541949 0.403661
vt 0.553110 0.419286
vt 0.569852 0.399214
vt 0.582367 0.383589
vt 0.577267 0.393775
vt 0.567739 0.409400
vt 0.552152 0.399214
vt 0.554264 0.409400
vt 0.539636 0.383589
vt 0.544737 0.393775
vt 0.539636 0.383589
vt 0.544737 0.393775
vt 0.567739 0.393775
vt 0.577267 0.378150
vt 0.580055 0.403661
vt 0.568894 0.419286
vt 0.582367 0.383589
vt 0.577267 0.393775
vt 0.544716 0.421404
vt 0.554256 0.437029
vt 0.553898 0.437888
vt 0.545627 0.424009
vt 0.544737 0.378150
vt 0.541949 0.403661
vt 0.554264 0.393775
vt 0.553110 0.419286
vt 0.577267 0.378150
vt 0.580055 0.403661
vt 0.569852 0.399214
vt 0.567739 0.409400
vt 0.551683 0.334746
vt 0.551683 0.394427
vt 0.570320 0.394427
vt 0.570320 0.334746
vt 0.568519 0.324243
vt 0.553485 0.324243
vt 0.553485 0.308618
vt 0.568519 0.308618
vt 0.564168 0.288643
vt 0.557835 0.288643
vt 0.583499 0.319121
vt 0.579149 0.308618
vt 0.579149 0.292993
vt 0.568646 0.288643
vt 0.583499 0.319121
vt 0.579149 0.308618
vt 0.579149 0.292993
vt 0.568646 0.288643
vt 0.570320 0.334746
vt 0.568519 0.324243
vt 0.568519 0.308618
vt 0.564168 0.288643
vt 0.551683 0.334746
vt 0.553485 0.324243
vt 0.553485 0.308618
vt 0.557835 0.288643
vt 0.538505 0.319121
vt 0.542855 0.308618
vt 0.542855 0.292993
vt 0.553357 0.288643
vt 0.538505 0.319121
vt 0.542855 0.308618
vt 0.542855 0.292993
vt 0.553357 0.288643
vt 0.552152 0.399214
vt 0.554264 0.409400
vt 0.577287 0.421404
vt 0.576896 0.423136
vt 0.576896 0.423136
vt 0.577287 0.421404
vt 0.583499 0.378802
vt 0.554256 0.437029
vt 0.544716 0.421404
vt 0.545627 0.424009
vt 0.553898 0.437888
vt 0.583499 0.378802
vt 0.567747 0.437029
vt 0.566850 0.438761
vt 0.555153 0.438761
vt 0.570320 0.394427
vt 0.551683 0.394427
vt 0.567747 0.437029
vt 0.568106 0.437888
vt 0.576376 0.424009
vt 0.538505 0.378802
vt 0.545107 0.423136
vt 0.545107 0.423136
vt 0.538505 0.378802
vt 0.567739 0.393775
vt 0.568894 0.419286
vt 0.561002 0.287803
vt 0.580184 0.408559
vt 0.568947 0.424184
vt 0.553056 0.424184
vt 0.580184 0.408559
vt 0.568947 0.424184
vt 0.553056 0.424184
vt 0.541819 0.408559
vt 0.541819 0.408559
vt 0.570320 0.425677
vt 0.551683 0.425677
vt 0.552152 0.430464
vt 0.569852 0.430464
vt 0.553056 0.455434
vt 0.568947 0.455434
vt 0.568894 0.450536
vt 0.553110 0.450536
vt 0.583499 0.410052
vt 0.582367 0.414839
vt 0.580184 0.439809
vt 0.580055 0.434911
vt 0.583499 0.410052
vt 0.582367 0.414839
vt 0.580184 0.439809
vt 0.580055 0.434911
vt 0.570320 0.425677
vt 0.569852 0.430464
vt 0.568947 0.455434
vt 0.568894 0.450536
vt 0.551683 0.425677
vt 0.552152 0.430464
vt 0.553056 0.455434
vt 0.553110 0.450536
vt 0.538505 0.410052
vt 0.539636 0.414839
vt 0.541819 0.439809
vt 0.541949 0.434911
vt 0.538505 0.410052
vt 0.539636 0.414839
vt 0.541819 0.439809
vt 0.541949 0.434911
vt 0.576376 0.424009
vt 0.568106 0.437888
vt 0.801256 0.594004
vt 0.803116 0.615606
vt 0.808918 0.615606
vt 0.804427 0.594004
vt 0.799013 0.679304
vt 0.797384 0.678926
vt 0.795081 0.678926
vt 0.800642 0.678926
vt 0.802945 0.678926
vt 0.795989 0.646248
vt 0.791713 0.646248
vt 0.792365 0.692971
vt 0.796259 0.692971
vt 0.795081 0.678926
vt 0.791713 0.646248
vt 0.792365 0.692971
vt 0.806313 0.646248
vt 0.802037 0.646248
vt 0.801767 0.692971
vt 0.805661 0.692971
vt 0.802945 0.678926
vt 0.800642 0.678926
vt 0.802037 0.646248
vt 0.806313 0.646248
vt 0.805661 0.692971
vt 0.801767 0.692971
vt 0.793599 0.594004
vt 0.789108 0.615606
vt 0.794910 0.615606
vt 0.796770 0.594004
vt 0.796770 0.594004
vt 0.794910 0.615606
vt 0.789108 0.615606
vt 0.793599 0.594004
vt 0.808918 0.615606
vt 0.804427 0.594004
vt 0.801256 0.594004
vt 0.803116 0.615606
vt 0.797384 0.678926
vt 0.795989 0.646248
vt 0.796259 0.692971
vt 0.801767 0.661721
vt 0.796259 0.661721
vt 0.801767 0.661721
vt 0.805661 0.661721
vt 0.805661 0.661721
vt 0.792365 0.661721
vt 0.792365 0.661721
vt 0.796259 0.661721
vt 0.555153 0.438761
vt 0.566850 0.438761
vt 0.789108 0.584356
vt 0.794910 0.584356
vt 0.795180 0.631079
vt 0.789759 0.631079
vt 0.789759 0.599829
vt 0.795180 0.599829
vt 0.795450 0.646552
vt 0.790410 0.646552
vt 0.790410 0.615302
vt 0.795450 0.615302
vt 0.795720 0.662025
vt 0.791062 0.662025
vt 0.791062 0.630775
vt 0.795720 0.630775
vt 0.795989 0.677498
vt 0.791713 0.677498
vt 0.803116 0.584356
vt 0.802846 0.631079
vt 0.802846 0.599829
vt 0.802576 0.646552
vt 0.802576 0.615302
vt 0.802306 0.662025
vt 0.802306 0.630775
vt 0.802037 0.677498
vt 0.803116 0.584356
vt 0.794910 0.584356
vt 0.795180 0.631079
vt 0.802846 0.631079
vt 0.802846 0.599829
vt 0.795180 0.599829
vt 0.795450 0.646552
vt 0.802576 0.646552
vt 0.802576 0.615302
vt 0.795450 0.615302
vt 0.795720 0.662025
vt 0.802306 0.662025
vt 0.802306 0.630775
vt 0.795720 0.630775
vt 0.795989 0.677498
vt 0.802037 0.677498
vt 0.808918 0.584356
vt 0.808918 0.584356
vt 0.808267 0.631079
vt 0.808267 0.631079
vt 0.808267 0.599829
vt 0.808267 0.599829
vt 0.807616 0.646552
vt 0.807616 0.646552
vt 0.807616 0.615302
vt 0.807616 0.615302
vt 0.806964 0.662025
vt 0.806964 0.662025
vt 0.806964 0.630775
vt 0.806964 0.630775
vt 0.806313 0.677498
vt 0.806313 0.677498
vt 0.789108 0.584356
vt 0.789759 0.631079
vt 0.789759 0.599829
vt 0.790410 0.646552
vt 0.790410 0.615302
vt 0.791062 0.662025
vt 0.791062 0.630775
vt 0.791713 0.677498
vn -0.3803 0.1109 -0.9182
vn -0.9182 0.1109 -0.3803
vn -0.9125 -0.1568 -0.3780
vn -0.3780 -0.1568 -0.9125
vn 0.3577 0.3551 0.8637
vn 0.8637 0.3551 0.3577
vn 0.9182 0.1109 0.3803
vn 0.3803 0.1109 0.9182
vn -0.3577 0.3551 0.8637
vn -0.3803 0.1109 0.9182
vn -0.8637 0.3551 0.3577
vn -0.9182 0.1109 0.3803
vn -0.8637 0.3551 -0.3577
vn 0.9125 -0.1568 0.3780
vn 0.3780 -0.1568 0.9125
vn 0.8637 0.3551 -0.3577
vn 0.9182 0.1109 -0.3803
vn -0.2548 0.9612 0.1055
vn -0.1055 0.9612 0.2548
vn -0.9125 -0.1568 0.3780
vn -0.3780 -0.1568 0.9125
vn 0.9125 -0.1568 -0.3780
vn 0.3577 0.3551 -0.8637
vn 0.3803 0.1109 -0.9182
vn -0.3750 -0.1994 -0.9053
vn -0.3799 0.1213 -0.9171
vn 0.3799 0.1213 -0.9171
vn 0.3750 -0.1994 -0.9053
vn 0.2797 -0.6824 -0.6753
vn -0.2797 -0.6824 -0.6753
vn 0.1002 -0.9651 -0.2419
vn -0.1002 -0.9651 -0.2419
vn 0.9053 -0.1994 -0.3750
vn 0.6753 -0.6824 -0.2797
vn 0.2419 -0.9651 -0.1002
vn 0.9053 -0.1994 0.3750
vn 0.6753 -0.6824 0.2797
vn 0.2419 -0.9651 0.1002
vn 0.3750 -0.1994 0.9053
vn 0.2797 -0.6824 0.6753
vn 0.1002 -0.9651 0.2419
vn -0.3750 -0.1994 0.9053
vn -0.2797 -0.6824 0.6753
vn -0.1002 -0.9651 0.2419
vn -0.9053 -0.1994 0.3750
vn -0.6753 -0.6824 0.2797
vn -0.2419 -0.9651 0.1002
vn -0.9053 -0.1994 -0.3750
vn -0.6753 -0.6824 -0.2797
vn -0.2419 -0.9651 -0.1002
vn -0.3577 0.3551 -0.8637
vn 0.2548 0.9612 -0.1055
vn 0.2548 0.9612 0.1055
vn 0.9171 0.1213 -0.3799
vn -0.1055 0.9612 -0.2548
vn -0.2548 0.9612 -0.1055
vn 0.9171 0.1213 0.3799
vn 0.1055 0.9612 0.2548
vn 0.3799 0.1213 0.9171
vn -0.3799 0.1213 0.9171
vn 0.1055 0.9612 -0.2548
vn -0.9171 0.1213 0.3799
vn -0.9171 0.1213 -0.3799
vn 0.3780 -0.1568 -0.9125
vn 0.0000 -1.0000 -0.0000
vn 0.9191 0.1019 -0.3807
vn 0.3807 0.1019 -0.9191
vn 0.3718 0.2372 -0.8975
vn 0.8975 0.2372 -0.3718
vn -0.3807 0.1019 -0.9191
vn -0.3718 0.2372 -0.8975
vn 0.9191 0.1019 0.3807
vn 0.8975 0.2372 0.3718
vn 0.3807 0.1019 0.9191
vn 0.3718 0.2372 0.8975
vn -0.3807 0.1019 0.9191
vn -0.3718 0.2372 0.8975
vn -0.9191 0.1019 0.3807
vn -0.8975 0.2372 0.3718
vn -0.9191 0.1019 -0.3807
vn -0.8975 0.2372 -0.3718
vn 0.3457 -0.4288 -0.8346
vn 0.3715 -0.1973 -0.9072
vn 0.9049 -0.1987 -0.3764
vn 0.8346 -0.4288 -0.3457
vn -0.0000 1.0000 0.0000
vn -0.1868 0.8728 -0.4509
vn -0.4509 0.8728 -0.1868
vn 0.1868 0.8728 0.4509
vn 0.4509 0.8728 0.1868
vn -0.3943 0.0253 -0.9186
vn -0.9257 0.0245 -0.3774
vn -0.8554 0.3796 -0.3523
vn -0.3583 0.3808 -0.8524
vn -0.4509 0.8728 0.1868
vn -0.9257 0.0245 0.3774
vn -0.8554 0.3796 0.3523
vn 0.6995 0.0276 -0.7141
vn 0.6983 0.0263 -0.7153
vn 0.3485 0.3829 -0.8555
vn 0.8518 0.3849 -0.3555
vn 0.4509 0.8728 -0.1868
vn 0.1868 0.8728 -0.4509
vn 0.6983 0.0263 0.7153
vn 0.6995 0.0276 0.7141
vn 0.8518 0.3849 0.3555
vn 0.3485 0.3829 0.8555
vn -0.8346 -0.4288 -0.3457
vn -0.9075 -0.1921 -0.3735
vn -0.3797 -0.1946 -0.9044
vn -0.3457 -0.4288 -0.8346
vn -0.3457 -0.4288 0.8346
vn -0.3797 -0.1946 0.9044
vn -0.9075 -0.1921 0.3735
vn -0.8346 -0.4288 0.3457
vn 0.9049 -0.1987 0.3764
vn 0.8346 -0.4288 0.3457
vn 0.9996 0.0282 -0.0000
vn 0.3457 -0.4288 0.8346
vn 0.3715 -0.1973 0.9072
vn -0.1868 0.8728 0.4509
vn -0.0128 0.0246 -0.9996
vn -0.3943 0.0253 0.9186
vn -0.0128 0.0246 0.9996
vn -0.3583 0.3808 0.8524
vn -0.3935 0.0276 0.9189
vn -0.9253 0.0310 0.3779
vn -0.3977 0.0264 0.9171
vn -0.9261 0.0261 0.3763
vn -0.0164 0.0246 0.9996
vn -0.0193 0.0246 0.9995
vn -0.3935 0.0276 -0.9189
vn -0.0164 0.0246 -0.9996
vn -0.3977 0.0264 -0.9171
vn -0.0193 0.0246 -0.9995
vn 0.9998 0.0221 -0.0000
vn 0.9997 0.0250 -0.0000
vn 0.6991 0.0234 0.7147
vn 0.7010 0.0220 0.7128
vn 0.6970 0.0249 0.7166
vn 0.7010 0.0220 -0.7128
vn 0.6991 0.0234 -0.7147
vn 0.6970 0.0249 -0.7166
vn -0.9253 0.0310 -0.3779
vn -0.9261 0.0261 -0.3763
usemtl tools
s 1
f 18/1/1 25/2/2 63/3/3 36/4/4
f 52/5/5 48/6/6 21/7/7 22/8/8
f 56/9/9 52/5/5 22/8/8 23/10/10
f 60/11/11 56/9/9 23/10/10 24/12/12
f 64/13/13 60/11/11 24/12/12 25/14/2
f 22/15/8 21/16/7 47/17/14 51/18/15
f 48/6/6 44/19/16 20/20/17 21/7/7
f 72/21/18 71/22/19 84/23/19 83/24/18
f 25/2/2 24/25/12 59/26/20 63/3/3
f 23/27/10 22/15/8 51/18/15 55/28/21
f 21/16/7 20/29/17 43/30/22 47/17/14
f 24/25/12 23/27/10 55/28/21 59/26/20
f 44/19/16 40/31/23 19/32/24 20/20/17
f 2/33/25 34/34/26 41/35/27 4/36/28
f 2/33/25 4/36/28 5/37/29 3/38/30
f 3/39/30 5/40/29 26/41/31 27/42/32
f 4/36/28 6/43/33 7/44/34 5/37/29
f 5/40/29 7/45/34 28/46/35 26/41/31
f 6/43/33 8/47/36 9/48/37 7/44/34
f 7/45/34 9/49/37 29/50/38 28/46/35
f 8/47/36 10/51/39 11/52/40 9/48/37
f 9/49/37 11/53/40 30/54/41 29/50/38
f 10/51/39 12/55/42 13/56/43 11/52/40
f 11/53/40 13/57/43 31/58/44 30/54/41
f 12/55/42 14/59/45 15/60/46 13/56/43
f 13/57/43 15/61/46 32/62/47 31/58/44
f 14/59/45 16/63/48 17/64/49 15/60/46
f 15/61/46 17/65/49 33/66/50 32/62/47
f 16/63/48 2/33/25 3/38/30 17/64/49
f 17/65/49 3/39/30 27/42/32 33/66/50
f 35/67/51 64/13/13 25/14/2 18/68/1
f 68/69/52 87/70/52 86/71/53 69/72/53
f 4/36/28 41/35/27 45/73/54 6/43/33
f 67/74/55 73/75/56 82/76/56 89/77/55
f 6/43/33 45/73/54 49/78/57 8/47/36
f 71/22/19 70/79/58 85/80/58 84/81/19
f 8/47/36 49/78/57 53/82/59 10/51/39
f 10/51/39 53/82/59 57/83/60 12/55/42
f 68/69/52 66/84/61 88/85/61 87/86/52
f 12/55/42 57/83/60 61/87/62 14/59/45
f 73/75/56 72/21/18 83/88/18 82/89/56
f 14/59/45 61/87/62 65/90/63 16/63/48
f 16/63/48 65/90/63 34/34/26 2/33/25
f 19/91/24 18/1/1 36/4/4 39/92/64
f 20/29/17 19/91/24 39/92/64 43/30/22
f 1/93/65 27/42/32 26/41/31
f 1/93/65 26/41/31 28/46/35
f 1/93/65 28/46/35 29/50/38
f 1/93/65 29/50/38 30/54/41
f 1/93/65 30/54/41 31/58/44
f 1/93/65 31/58/44 32/62/47
f 1/93/65 32/62/47 33/66/50
f 1/93/65 33/66/50 27/42/32
f 42/94/66 38/95/67 66/84/68 68/69/69
f 38/95/67 37/96/70 67/74/71 66/84/68
f 46/97/72 42/94/66 68/69/69 69/72/73
f 50/98/74 46/97/72 69/72/73 70/79/75
f 54/99/76 50/98/74 70/79/75 71/22/77
f 58/100/78 54/99/76 71/22/77 72/21/79
f 62/101/80 58/100/78 72/21/79 73/75/81
f 37/96/70 62/101/80 73/75/81 67/74/71
f 41/102/27 34/103/26 35/104/51 40/105/23
f 37/106/70 38/107/67 39/108/64 36/109/4
f 45/110/54 41/102/27 40/105/23 44/111/16
f 38/107/67 42/112/66 43/113/22 39/108/64
f 49/114/57 45/110/54 44/111/16 48/115/6
f 42/112/66 46/116/72 47/117/14 43/113/22
f 53/118/59 49/114/57 48/115/6 52/119/5
f 46/116/72 50/120/74 51/121/15 47/117/14
f 57/122/60 53/118/59 52/119/5 56/123/9
f 50/120/74 54/124/76 55/125/21 51/121/15
f 61/126/62 57/122/60 56/123/9 60/127/11
f 54/124/76 58/128/78 59/129/20 55/125/21
f 65/130/63 61/126/62 60/127/11 64/131/13
f 58/128/78 62/132/80 63/133/3 59/129/20
f 34/103/26 65/130/63 64/131/13 35/104/51
f 62/132/80 37/106/70 36/109/4 63/133/3
f 40/31/23 35/67/51 18/68/1 19/32/24
f 70/79/58 69/72/53 86/134/53 85/135/58
f 88/136/82 79/137/83 74/138/84 87/139/85
f 90/140/86 100/141/87 102/142/88
f 90/140/86 103/143/89 96/144/90
f 138/145/91 119/146/92 101/147/93 99/148/94
f 90/140/86 102/142/88 93/149/95
f 119/146/92 107/150/96 94/151/97 101/147/93
f 130/152/98 134/153/99 106/154/100 97/155/101
f 90/140/86 96/144/90 98/156/102
f 90/140/86 105/157/103 100/141/87
f 118/158/104 126/159/105 95/160/106 104/161/107
f 82/162/108 75/163/109 81/164/110 89/165/111
f 89/165/111 81/164/110 79/137/83 88/136/82
f 84/166/112 80/167/113 76/168/114 83/169/115
f 87/139/85 74/138/84 78/170/116 86/171/117
f 126/159/118 130/152/118 97/155/101 95/160/106
f 85/172/119 77/173/120 80/167/113 84/166/112
f 90/140/86 98/156/102 105/157/103
f 90/140/86 92/174/121 103/143/89
f 86/171/117 78/170/116 77/173/120 85/172/119
f 83/169/115 76/168/114 75/163/109 82/162/108
f 90/140/86 93/149/95 92/174/121
f 134/153/122 138/145/91 99/148/94 106/154/100
f 114/175/123 118/158/124 104/161/107 91/176/125
f 100/141/87 105/157/103 106/177/100 99/178/94
f 96/144/90 103/143/89 104/179/107 95/180/106
f 98/156/102 96/144/90 95/180/106 97/181/101
f 105/157/103 98/156/102 97/181/101 106/177/100
f 102/142/88 100/141/87 99/178/94 101/182/93
f 92/174/121 93/149/95 94/183/97 91/184/125
f 93/149/95 102/142/88 101/182/93 94/183/97
f 103/143/89 92/174/121 91/184/125 104/179/107
f 107/150/96 114/175/123 91/176/125 94/151/97
f 66/84/61 67/74/55 89/185/55 88/186/61
f 76/187/114 80/188/113 111/189/126 110/190/127
f 110/191/127 111/192/126 112/193/128 109/194/129
f 109/195/129 112/196/128 113/197/128 108/198/129
f 108/199/129 113/200/128 114/201/123 107/202/96
f 80/188/113 77/203/120 115/204/130 111/189/126
f 111/192/126 115/205/130 116/206/131 112/193/128
f 112/196/128 116/207/131 117/208/131 113/197/128
f 113/200/128 117/209/131 118/210/124 114/201/123
f 79/211/83 81/212/110 135/213/132 131/214/133
f 131/215/133 135/216/132 136/217/134 132/218/135
f 132/219/135 136/220/134 137/221/134 133/222/135
f 133/223/135 137/224/134 138/225/91 134/226/122
f 78/227/116 74/228/84 127/229/136 123/230/136
f 123/231/136 127/232/136 128/233/137 124/234/137
f 124/235/137 128/236/137 129/237/137 125/238/137
f 125/239/137 129/240/137 130/241/118 126/242/118
f 77/203/120 78/227/116 123/230/138 115/204/139
f 115/205/139 123/231/138 124/234/140 116/206/140
f 116/207/140 124/235/140 125/238/140 117/208/140
f 117/209/140 125/239/140 126/242/105 118/210/104
f 74/228/84 79/211/83 131/214/141 127/229/142
f 127/232/142 131/215/141 132/218/143 128/233/143
f 128/236/143 132/219/143 133/222/143 129/237/143
f 129/240/143 133/223/143 134/226/99 130/241/98
f 75/243/109 76/187/114 110/190/127 122/244/144
f 122/245/144 110/191/127 109/194/129 121/246/145
f 121/247/145 109/195/129 108/198/129 120/248/145
f 120/249/145 108/199/129 107/202/96 119/250/92
f 81/212/110 75/243/109 122/244/144 135/213/132
f 135/216/132 122/245/144 121/246/145 136/217/134
f 136/220/134 121/247/145 120/248/145 137/221/134
f 137/224/134 120/249/145 119/250/92 138/225/91
