# Blender v3.4.1 OBJ File: 'RPG_Tool_Bits_Export.blend'
# www.blender.org
mtllib knife.mtl
o knife
v -0.000000 0.267455 0.000000
v -0.000000 -0.235125 -0.000000
v -0.031339 -0.182349 -0.075658
v -0.025279 -0.217669 -0.061028
v 0.031338 -0.182349 -0.075658
v 0.025278 -0.217669 -0.061028
v 0.075657 -0.182349 -0.031338
v 0.061028 -0.217669 -0.025279
v 0.075657 -0.182349 0.031338
v 0.061028 -0.217669 0.025278
v 0.031338 -0.182350 0.075657
v 0.025278 -0.217669 0.061028
v -0.031338 -0.182350 0.075657
v -0.025279 -0.217669 0.061028
v -0.075658 -0.182349 0.031338
v -0.061028 -0.217669 0.025278
v -0.075658 -0.182349 -0.031338
v -0.061028 -0.217669 -0.025279
v -0.022658 0.168714 -0.054700
v 0.022657 0.168714 -0.054700
v 0.054700 0.168714 -0.022658
v 0.054700 0.168714 0.022658
v 0.022657 0.168714 0.054700
v -0.022658 0.168714 0.054700
v -0.054700 0.168714 0.022658
v -0.054700 0.168714 -0.022658
v 0.010649 -0.232298 -0.025709
v -0.010649 -0.232298 -0.025709
v 0.025708 -0.232298 -0.010649
v 0.025708 -0.232298 0.010649
v 0.010649 -0.232298 0.025708
v -0.010649 -0.232298 0.025708
v -0.025709 -0.232298 0.010649
v -0.025709 -0.232298 -0.010649
v -0.031339 0.118360 -0.075658
v -0.029762 0.134458 -0.071852
v -0.026541 0.201961 -0.064075
v -0.026722 0.218432 -0.064512
v 0.026721 0.218432 -0.064512
v 0.026541 0.201961 -0.064075
v 0.029762 0.134458 -0.071852
v 0.031338 0.118360 -0.075657
v 0.064511 0.218431 -0.026722
v 0.064075 0.201961 -0.026541
v 0.071852 0.134458 -0.029762
v 0.075657 0.118360 -0.031338
v 0.064511 0.218431 0.026722
v 0.064075 0.201961 0.026541
v 0.071852 0.134458 0.029762
v 0.075657 0.118360 0.031338
v 0.026721 0.218431 0.064512
v 0.026541 0.201961 0.064075
v 0.029762 0.134458 0.071852
v 0.031338 0.118360 0.075657
v -0.026722 0.218431 0.064512
v -0.026541 0.201961 0.064075
v -0.029762 0.134458 0.071852
v -0.031338 0.118360 0.075657
v -0.064512 0.218431 0.026722
v -0.064075 0.201961 0.026541
v -0.071852 0.134458 0.029762
v -0.075658 0.118360 0.031338
v -0.064512 0.218431 -0.026722
v -0.064075 0.201961 -0.026541
v -0.071852 0.134458 -0.029762
v -0.075658 0.118360 -0.031338
v 0.015883 0.267455 -0.038346
v 0.022685 0.261631 -0.054768
v -0.022686 0.261631 -0.054768
v -0.015884 0.267455 -0.038346
v 0.038346 0.267455 -0.015883
v 0.054768 0.261631 -0.022686
v 0.038346 0.267455 0.015883
v 0.054768 0.261631 0.022686
v 0.015883 0.267455 0.038346
v 0.022685 0.261631 0.054768
v -0.015884 0.267455 0.038346
v -0.022686 0.261631 0.054768
v -0.038346 0.267455 0.015883
v -0.054768 0.261631 0.022686
v -0.038346 0.267455 -0.015883
v -0.054768 0.261631 -0.022686
v -0.042157 0.267932 0.025000
v -0.042157 0.267932 -0.025000
v 0.027964 0.267932 0.025000
v 0.049993 0.267932 0.000000
v 0.027964 0.267932 -0.025000
v -0.212248 0.278641 0.000000
v 0.049993 1.058917 0.000000
v -0.212248 0.437259 0.000000
v -0.104906 0.928410 0.000000
v -0.157333 0.836224 0.000000
v -0.020589 0.640369 -0.025000
v -0.020589 0.640369 0.025000
v -0.111062 0.267932 0.025000
v 0.033903 0.975892 0.025000
v -0.112195 0.437259 0.025000
v -0.007256 0.946666 0.025000
v -0.050007 0.882547 0.025000
v -0.078093 0.807614 0.025000
v -0.102461 0.640369 0.025000
v -0.111062 0.267932 -0.025000
v 0.033903 0.975892 -0.025000
v -0.112195 0.437259 -0.025000
v -0.007256 0.946666 -0.025000
v -0.050007 0.882547 -0.025000
v -0.078093 0.807614 -0.025000
v -0.102461 0.640369 -0.025000
v 0.049993 0.980638 0.000000
v -0.008596 1.023978 0.000000
v -0.195347 0.657160 0.000000
v -0.174260 0.640369 -0.006207
v -0.199695 0.615914 0.000000
v -0.174260 0.640369 0.006208
v -0.035378 1.002775 0.000000
v -0.032195 0.969748 -0.014359
v -0.063574 0.972921 0.000000
v -0.032195 0.969748 0.014360
vt 0.554264 0.393775
vt 0.544737 0.378150
vt 0.541949 0.403661
vt 0.553110 0.419286
vt 0.569852 0.399214
vt 0.582367 0.383589
vt 0.577267 0.393775
vt 0.567739 0.409400
vt 0.552152 0.399214
vt 0.554264 0.409400
vt 0.539636 0.383589
vt 0.544737 0.393775
vt 0.539636 0.383589
vt 0.544737 0.393775
vt 0.567739 0.393775
vt 0.577267 0.378150
vt 0.580055 0.403661
vt 0.568894 0.419286
vt 0.582367 0.383589
vt 0.577267 0.393775
vt 0.555498 0.423136
vt 0.554539 0.423136
vt 0.546268 0.409256
vt 0.544737 0.378150
vt 0.541949 0.403661
vt 0.554264 0.393775
vt 0.553110 0.419286
vt 0.577267 0.378150
vt 0.580055 0.403661
vt 0.569852 0.399214
vt 0.567739 0.409400
vt 0.551683 0.334746
vt 0.551683 0.394427
vt 0.570320 0.394427
vt 0.570320 0.334746
vt 0.568519 0.324243
vt 0.553485 0.324243
vt 0.553485 0.308618
vt 0.568519 0.308618
vt 0.564168 0.288643
vt 0.557835 0.288643
vt 0.583499 0.319121
vt 0.579149 0.308618
vt 0.579149 0.292993
vt 0.568646 0.288643
vt 0.583499 0.319121
vt 0.579149 0.308618
vt 0.579149 0.292993
vt 0.568646 0.288643
vt 0.570320 0.334746
vt 0.568519 0.324243
vt 0.568519 0.308618
vt 0.564168 0.288643
vt 0.551683 0.334746
vt 0.553485 0.324243
vt 0.553485 0.308618
vt 0.557835 0.288643
vt 0.538505 0.319121
vt 0.542855 0.308618
vt 0.542855 0.292993
vt 0.553357 0.288643
vt 0.538505 0.319121
vt 0.542855 0.308618
vt 0.542855 0.292993
vt 0.553357 0.288643
vt 0.552152 0.399214
vt 0.554264 0.409400
vt 0.574290 0.423136
vt 0.576605 0.409256
vt 0.576605 0.409256
vt 0.583499 0.378802
vt 0.568334 0.423136
vt 0.583499 0.378802
vt 0.566506 0.423136
vt 0.567465 0.423136
vt 0.575736 0.409256
vt 0.570320 0.394427
vt 0.554539 0.423136
vt 0.566235 0.423136
vt 0.551683 0.394427
vt 0.547714 0.423136
vt 0.545398 0.409256
vt 0.553669 0.423136
vt 0.538505 0.378802
vt 0.545398 0.409256
vt 0.538505 0.378802
vt 0.567739 0.393775
vt 0.568894 0.419286
vt 0.561002 0.287803
vt 0.580184 0.408559
vt 0.568947 0.424184
vt 0.567747 0.437029
vt 0.577287 0.421404
vt 0.553056 0.424184
vt 0.554256 0.437029
vt 0.580184 0.408559
vt 0.577287 0.421404
vt 0.568947 0.424184
vt 0.567747 0.437029
vt 0.553056 0.424184
vt 0.554256 0.437029
vt 0.541819 0.408559
vt 0.544716 0.421404
vt 0.541819 0.408559
vt 0.544716 0.421404
vt 0.570320 0.410052
vt 0.551683 0.410052
vt 0.552152 0.414839
vt 0.569852 0.414839
vt 0.553056 0.439809
vt 0.568947 0.439809
vt 0.568894 0.434911
vt 0.553110 0.434911
vt 0.583499 0.394427
vt 0.582367 0.399214
vt 0.580184 0.424184
vt 0.580055 0.419286
vt 0.583499 0.394427
vt 0.582367 0.399214
vt 0.580184 0.424184
vt 0.580055 0.419286
vt 0.570320 0.410052
vt 0.569852 0.414839
vt 0.568947 0.439809
vt 0.568894 0.434911
vt 0.551683 0.410052
vt 0.552152 0.414839
vt 0.553056 0.439809
vt 0.553110 0.434911
vt 0.538505 0.394427
vt 0.539636 0.399214
vt 0.541819 0.424184
vt 0.541949 0.419286
vt 0.538505 0.394427
vt 0.539636 0.399214
vt 0.541819 0.424184
vt 0.541949 0.419286
vt 0.555153 0.438761
vt 0.566850 0.438761
vt 0.568106 0.437888
vt 0.576376 0.424009
vt 0.576896 0.423136
vt 0.576896 0.423136
vt 0.576376 0.424009
vt 0.568106 0.437888
vt 0.566850 0.438761
vt 0.555153 0.438761
vt 0.553898 0.437888
vt 0.545627 0.424009
vt 0.545107 0.423136
vt 0.545107 0.423136
vt 0.545627 0.424009
vt 0.553898 0.437888
vt 0.567465 0.423136
vt 0.555768 0.423136
vt 0.806135 0.706096
vt 0.833573 0.612862
vt 0.837248 0.614013
vt 0.807867 0.707322
vt 0.806135 0.706096
vt 0.804640 0.717570
vt 0.780748 0.718571
vt 0.791378 0.696871
vt 0.782798 0.715719
vt 0.779800 0.646893
vt 0.782798 0.637594
vt 0.791378 0.618746
vt 0.793002 0.626344
vt 0.797213 0.624915
vt 0.804181 0.603658
vt 0.800507 0.602508
vt 0.787698 0.622031
vt 0.788123 0.692840
vt 0.792324 0.688346
vt 0.788691 0.671966
vt 0.785151 0.679437
vt 0.799119 0.668446
vt 0.795374 0.682038
vt 0.794031 0.679134
vt 0.786319 0.626189
vt 0.791378 0.618746
vt 0.793988 0.623211
vt 0.804181 0.603658
vt 0.797213 0.624915
vt 0.786483 0.647048
vt 0.827652 0.568422
vt 0.833482 0.563092
vt 0.816166 0.564505
vt 0.826718 0.568104
vt 0.787267 0.697868
vt 0.787698 0.700156
vt 0.791378 0.696871
vt 0.778632 0.700140
vt 0.788691 0.671966
vt 0.792324 0.688346
vt 0.781604 0.713543
vt 0.797573 0.623630
vt 0.816166 0.580130
vt 0.827652 0.584047
vt 0.791392 0.666424
vt 0.786353 0.592621
vt 0.795293 0.573010
vt 0.785033 0.660344
vt 0.778226 0.649441
vt 0.775434 0.638461
vt 0.778248 0.617039
vt 0.797573 0.623630
vt 0.816166 0.580130
vt 0.795293 0.573010
vt 0.792325 0.666743
vt 0.826718 0.583729
vt 0.786353 0.592621
vt 0.785033 0.660344
vt 0.778226 0.649441
vt 0.775434 0.638461
vt 0.778248 0.617039
vt 0.810285 0.555828
vt 0.813959 0.556978
vt 0.813959 0.556978
vt 0.833573 0.612862
vt 0.833482 0.563092
vt 0.791290 0.726149
vt 0.796806 0.728467
vt 0.799119 0.726590
vt 0.798122 0.738273
vt 0.791208 0.730689
vt 0.797727 0.709986
vt 0.794031 0.679134
vt 0.799119 0.668446
vt 0.779800 0.678143
vt 0.791378 0.649996
vt 0.780748 0.671696
vt 0.787267 0.650993
vt 0.791378 0.649996
vt 0.786319 0.657439
vt 0.794031 0.737279
vt 0.794031 0.737279
vt 0.784771 0.746852
vt 0.799119 0.726590
vt 0.795374 0.713288
vt 0.799119 0.699696
vt 0.784771 0.719958
vt 0.799119 0.699696
vt 0.791290 0.699254
vn -0.3803 0.1109 -0.9182
vn -0.9182 0.1109 -0.3803
vn -0.9125 -0.1568 -0.3780
vn -0.3780 -0.1568 -0.9125
vn 0.3577 0.3551 0.8637
vn 0.8637 0.3551 0.3577
vn 0.9182 0.1109 0.3803
vn 0.3803 0.1109 0.9182
vn -0.3577 0.3551 0.8637
vn -0.3803 0.1109 0.9182
vn -0.8637 0.3551 0.3577
vn -0.9182 0.1109 0.3803
vn -0.8637 0.3551 -0.3577
vn 0.9125 -0.1568 0.3780
vn 0.3780 -0.1568 0.9125
vn 0.8637 0.3551 -0.3577
vn 0.9182 0.1109 -0.3803
vn 0.0000 1.0000 -0.0000
vn -0.0748 0.9807 -0.1807
vn -0.1807 0.9807 -0.0748
vn -0.9125 -0.1568 0.3780
vn -0.3780 -0.1568 0.9125
vn 0.9125 -0.1568 -0.3780
vn 0.3577 0.3551 -0.8637
vn 0.3803 0.1109 -0.9182
vn -0.3750 -0.1994 -0.9053
vn -0.3799 0.1213 -0.9171
vn 0.3799 0.1213 -0.9171
vn 0.3750 -0.1994 -0.9053
vn 0.2797 -0.6824 -0.6753
vn -0.3492 -0.4091 -0.8430
vn -0.1368 -0.9339 -0.3302
vn 0.1002 -0.9651 -0.2419
vn -0.1002 -0.9651 -0.2419
vn 0.9053 -0.1994 -0.3750
vn 0.6753 -0.6824 -0.2797
vn 0.2419 -0.9651 -0.1002
vn 0.9053 -0.1994 0.3750
vn 0.6753 -0.6824 0.2797
vn 0.2419 -0.9651 0.1002
vn 0.3750 -0.1994 0.9053
vn 0.2797 -0.6824 0.6753
vn 0.1002 -0.9651 0.2419
vn -0.3750 -0.1994 0.9053
vn -0.2797 -0.6824 0.6753
vn -0.1002 -0.9651 0.2419
vn -0.9053 -0.1994 0.3750
vn -0.6753 -0.6824 0.2797
vn -0.2419 -0.9651 0.1002
vn -0.9053 -0.1994 -0.3750
vn -0.6753 -0.6824 -0.2797
vn -0.2419 -0.9651 -0.1002
vn -0.3577 0.3551 -0.8637
vn 0.1807 0.9807 0.0748
vn 0.1807 0.9807 -0.0748
vn 0.9171 0.1213 -0.3799
vn 0.0748 0.9807 -0.1807
vn 0.9171 0.1213 0.3799
vn 0.0748 0.9807 0.1807
vn 0.3799 0.1213 0.9171
vn -0.0748 0.9807 0.1807
vn -0.3799 0.1213 0.9171
vn -0.1807 0.9807 0.0748
vn -0.9171 0.1213 0.3799
vn -0.9171 0.1213 -0.3799
vn 0.3780 -0.1568 -0.9125
vn 0.0000 -1.0000 -0.0000
vn 0.9191 0.1019 -0.3807
vn 0.3807 0.1019 -0.9191
vn 0.3718 0.2372 -0.8975
vn 0.8975 0.2372 -0.3718
vn -0.3807 0.1019 -0.9191
vn -0.3718 0.2372 -0.8975
vn 0.9191 0.1019 0.3807
vn 0.8975 0.2372 0.3718
vn 0.3807 0.1019 0.9191
vn 0.3718 0.2372 0.8975
vn -0.3807 0.1019 0.9191
vn -0.3718 0.2372 0.8975
vn -0.9191 0.1019 0.3807
vn -0.8975 0.2372 0.3718
vn -0.9191 0.1019 -0.3807
vn -0.8975 0.2372 -0.3718
vn 0.1192 0.9503 -0.2877
vn -0.1192 0.9503 -0.2877
vn 0.2877 0.9503 -0.1192
vn 0.2877 0.9503 0.1192
vn 0.1192 0.9503 0.2877
vn -0.1192 0.9503 0.2877
vn -0.2877 0.9503 0.1192
vn -0.2877 0.9503 -0.1192
vn 0.8134 -0.0021 0.5818
vn 0.7954 -0.0033 0.6061
vn 0.8211 -0.0015 0.5708
vn 0.8211 -0.0015 -0.5708
vn 0.8134 -0.0021 -0.5818
vn 0.8409 0.0000 -0.5412
vn -0.2486 0.0152 0.9685
vn -0.2574 0.0320 0.9658
vn -0.2531 0.0289 0.9670
vn -0.2636 0.0461 0.9635
vn -0.2442 0.0066 -0.9697
vn -0.2443 0.0069 -0.9697
vn -0.2412 -0.0008 -0.9705
vn -0.6229 -0.7823 0.0000
vn -0.2800 0.1775 -0.9434
vn -0.2800 0.1707 -0.9447
vn -0.2732 0.0891 -0.9578
vn -0.2734 0.0910 -0.9576
vn -0.2446 0.2477 0.9374
vn -0.1890 0.3139 0.9304
vn -0.2347 0.1862 0.9541
vn -0.2636 0.0461 -0.9635
vn -0.2574 0.0320 -0.9658
vn -0.2531 0.0289 -0.9670
vn -0.2412 -0.0008 0.9705
vn -0.2443 0.0069 0.9697
vn -0.2442 0.0066 0.9697
vn -0.2486 0.0152 -0.9685
vn -0.2734 0.0910 0.9576
vn -0.2732 0.0891 0.9578
vn -0.2800 0.1707 0.9447
vn -0.2800 0.1775 0.9434
vn -0.0000 -0.0000 1.0000
vn 0.0000 0.0000 -1.0000
vn -0.1053 -0.9944 0.0000
vn -0.0483 -0.9988 0.0000
vn 0.7954 -0.0033 -0.6061
vn 0.8409 0.0000 0.5412
vn -0.6931 0.7209 0.0000
vn -0.3014 0.1817 -0.9360
vn -0.2347 0.1862 -0.9541
vn -0.2446 0.2477 -0.9374
vn -0.1887 0.3165 0.9296
vn -0.2057 0.3059 0.9296
vn -0.2086 0.3041 0.9295
vn -0.1887 0.3165 -0.9296
vn -0.2086 0.3041 -0.9295
vn -0.2057 0.3059 -0.9296
vn -0.9954 -0.0959 0.0000
vn -0.1890 0.3139 -0.9304
vn 0.1006 0.9949 0.0000
vn -0.3014 0.1817 0.9360
usemtl tools
s 1
f 19/1/1 26/2/2 64/3/3 37/4/4
f 53/5/5 49/6/6 22/7/7 23/8/8
f 57/9/9 53/5/5 23/8/8 24/10/10
f 61/11/11 57/9/9 24/10/10 25/12/12
f 65/13/13 61/11/11 25/12/12 26/14/2
f 23/15/8 22/16/7 48/17/14 52/18/15
f 49/6/6 45/19/16 21/20/17 22/7/7
f 1/21/18 70/22/19 81/23/20
f 26/2/2 25/24/12 60/25/21 64/3/3
f 24/26/10 23/15/8 52/18/15 56/27/22
f 22/16/7 21/28/17 44/29/23 48/17/14
f 25/24/12 24/26/10 56/27/22 60/25/21
f 45/19/16 41/30/24 20/31/25 21/20/17
f 3/32/26 35/33/27 42/34/28 5/35/29
f 3/32/26 5/35/29 6/36/30 4/37/31
f 4/38/32 6/39/30 27/40/33 28/41/34
f 5/35/29 7/42/35 8/43/36 6/36/30
f 6/39/30 8/44/36 29/45/37 27/40/33
f 7/42/35 9/46/38 10/47/39 8/43/36
f 8/44/36 10/48/39 30/49/40 29/45/37
f 9/46/38 11/50/41 12/51/42 10/47/39
f 10/48/39 12/52/42 31/53/43 30/49/40
f 11/50/41 13/54/44 14/55/45 12/51/42
f 12/52/42 14/56/45 32/57/46 31/53/43
f 13/54/44 15/58/47 16/59/48 14/55/45
f 14/56/45 16/60/48 33/61/49 32/57/46
f 15/58/47 17/62/50 18/63/51 16/59/48
f 16/60/48 18/64/51 34/65/52 33/61/49
f 17/62/50 3/32/26 4/37/31 18/63/51
f 18/64/51 4/38/32 28/41/34 34/65/52
f 36/66/53 65/13/13 26/14/2 19/67/1
f 1/68/18 73/69/54 71/70/55
f 5/35/29 42/34/28 46/71/56 7/42/35
f 1/68/18 71/70/55 67/72/57
f 7/42/35 46/71/56 50/73/58 9/46/38
f 1/74/18 75/75/59 73/76/54
f 9/46/38 50/73/58 54/77/60 11/50/41
f 1/21/18 77/78/61 75/79/59
f 11/50/41 54/77/60 58/80/62 13/54/44
f 1/81/18 79/82/63 77/83/61
f 13/54/44 58/80/62 62/84/64 15/58/47
f 1/81/18 81/85/20 79/82/63
f 15/58/47 62/84/64 66/86/65 17/62/50
f 17/62/50 66/86/65 35/33/27 3/32/26
f 20/87/25 19/1/1 37/4/4 40/88/66
f 21/28/17 20/87/25 40/88/66 44/29/23
f 2/89/67 28/41/34 27/40/33
f 2/89/67 27/40/33 29/45/37
f 2/89/67 29/45/37 30/49/40
f 2/89/67 30/49/40 31/53/43
f 2/89/67 31/53/43 32/57/46
f 2/89/67 32/57/46 33/61/49
f 2/89/67 33/61/49 34/65/52
f 2/89/67 34/65/52 28/41/34
f 43/90/68 39/91/69 68/92/70 72/93/71
f 39/91/69 38/94/72 69/95/73 68/92/70
f 47/96/74 43/90/68 72/93/71 74/97/75
f 51/98/76 47/96/74 74/97/75 76/99/77
f 55/100/78 51/98/76 76/99/77 78/101/79
f 59/102/80 55/100/78 78/101/79 80/103/81
f 63/104/82 59/102/80 80/103/81 82/105/83
f 38/94/72 63/104/82 82/105/83 69/95/73
f 42/106/28 35/107/27 36/108/53 41/109/24
f 38/110/72 39/111/69 40/112/66 37/113/4
f 46/114/56 42/106/28 41/109/24 45/115/16
f 39/111/69 43/116/68 44/117/23 40/112/66
f 50/118/58 46/114/56 45/115/16 49/119/6
f 43/116/68 47/120/74 48/121/14 44/117/23
f 54/122/60 50/118/58 49/119/6 53/123/5
f 47/120/74 51/124/76 52/125/15 48/121/14
f 58/126/62 54/122/60 53/123/5 57/127/9
f 51/124/76 55/128/78 56/129/22 52/125/15
f 62/130/64 58/126/62 57/127/9 61/131/11
f 55/128/78 59/132/80 60/133/21 56/129/22
f 66/134/65 62/130/64 61/131/11 65/135/13
f 59/132/80 63/136/82 64/137/3 60/133/21
f 35/107/27 66/134/65 65/135/13 36/108/53
f 63/136/82 38/110/72 37/113/4 64/137/3
f 41/30/24 36/66/53 19/67/1 20/31/25
f 68/92/84 69/95/85 70/138/19 67/139/57
f 72/93/86 68/92/84 67/140/57 71/141/55
f 74/97/87 72/93/86 71/142/55 73/143/54
f 76/99/88 74/97/87 73/144/54 75/145/59
f 78/101/89 76/99/88 75/146/59 77/147/61
f 80/103/90 78/101/89 77/148/61 79/149/63
f 82/105/91 80/103/90 79/150/63 81/151/20
f 69/95/85 82/105/91 81/152/20 70/153/19
f 1/74/18 67/154/57 70/155/19
f 96/156/92 85/157/93 86/158/93 109/159/94
f 109/159/95 103/160/96 89/161/97
f 113/162/98 101/163/99 114/164/100
f 111/165/101 114/166/100 101/167/99
f 90/168/102 104/169/103 102/170/104 88/171/104
f 111/165/105 112/172/105 114/166/105
f 91/173/106 106/174/107 107/175/108 92/176/109
f 98/177/110 115/178/111 118/179/112
f 111/180/113 108/181/114 112/172/115
f 88/182/116 95/183/116 97/184/117 90/185/118
f 85/186/67 83/187/67 84/188/67 87/189/67
f 113/190/119 112/191/115 108/192/114
f 92/193/120 100/194/121 99/195/122 91/196/123
f 94/197/124 83/198/124 85/199/124
f 94/197/124 85/199/124 96/200/124
f 94/197/124 97/201/124 95/202/124
f 94/197/124 96/200/124 98/203/124
f 94/197/124 98/203/124 99/204/124
f 94/197/124 99/204/124 100/205/124
f 94/197/124 100/205/124 101/206/124
f 94/197/124 101/206/124 97/201/124
f 93/207/125 84/208/125 102/209/125
f 93/207/125 103/210/125 87/211/125
f 93/207/125 102/209/125 104/212/125
f 93/207/125 105/213/125 103/210/125
f 93/207/125 106/214/125 105/213/125
f 93/207/125 107/215/125 106/214/125
f 93/207/125 108/216/125 107/215/125
f 93/207/125 104/212/125 108/216/125
f 88/217/126 102/218/127 95/219/127
f 95/202/124 83/198/124 94/197/124
f 87/211/125 84/208/125 93/207/125
f 86/158/128 87/220/128 103/160/96 109/159/95
f 89/161/129 96/156/92 109/159/94
f 86/158/67 85/186/67 87/220/67
f 83/187/67 95/219/127 102/218/127 84/221/67
f 112/191/130 113/190/130 114/164/130
f 117/222/131 116/223/132 105/224/133
f 89/225/134 110/226/135 96/156/136
f 89/161/137 103/160/138 110/227/139
f 115/178/140 116/228/140 118/179/140
f 115/178/141 105/229/133 116/228/132
f 92/193/120 111/230/101 101/231/99 100/194/121
f 90/185/118 97/184/117 101/231/99 113/232/98
f 90/168/102 113/233/119 108/234/114 104/169/103
f 92/176/109 107/175/108 108/234/114 111/235/113
f 116/236/142 117/222/142 118/237/142
f 117/238/143 98/239/110 118/237/112
f 96/156/136 110/227/135 115/240/111 98/241/110
f 91/196/123 99/195/122 98/241/110 117/242/143
f 110/227/139 103/160/138 105/243/133 115/240/141
f 91/173/106 117/244/131 105/243/133 106/174/107
