# Blender v3.4.1 OBJ File: 'RPG_Tool_Bits_Export.blend'
# www.blender.org
mtllib lantern_handle.mtl
o lantern_handle
v -0.000000 0.934924 0.122810
v 0.019723 0.934924 0.114887
v 0.028504 0.934924 0.095227
v 0.020672 0.934924 0.074619
v -0.000000 0.934924 0.065742
v -0.020672 0.934924 0.074619
v -0.028504 0.934924 0.095227
v -0.019723 0.934924 0.114887
v -0.000000 0.893519 0.111715
v 0.019723 0.897480 0.104854
v 0.028504 0.907310 0.087828
v 0.020672 0.917614 0.069981
v -0.000000 0.922053 0.062293
v -0.020672 0.917614 0.069981
v -0.028504 0.907310 0.087828
v -0.019723 0.897480 0.104854
v -0.000000 0.863208 0.081405
v 0.019723 0.870069 0.077444
v 0.028504 0.887096 0.067613
v 0.020672 0.904943 0.057309
v -0.000000 0.912631 0.052871
v -0.020672 0.904943 0.057309
v -0.028504 0.887096 0.067613
v -0.019723 0.870069 0.077444
v -0.000000 0.852114 0.040000
v 0.019723 0.860036 0.040000
v 0.028504 0.879697 0.040000
v 0.020672 0.900305 0.040000
v -0.000000 0.909182 0.040000
v -0.020672 0.900305 0.040000
v -0.028504 0.879697 0.040000
v -0.019723 0.860036 0.040000
v -0.000000 1.023947 0.122810
v 0.019723 1.023947 0.114887
v 0.028504 1.023947 0.095227
v 0.020672 1.023947 0.074619
v -0.000000 1.023947 0.065742
v -0.020672 1.023947 0.074619
v -0.028504 1.023947 0.095227
v -0.019723 1.023947 0.114887
v -0.000000 1.106756 0.040000
v 0.019723 1.098834 0.040000
v 0.028504 1.079173 0.040000
v 0.020672 1.058565 0.040000
v -0.000000 1.049688 0.040000
v -0.020672 1.058565 0.040000
v -0.028504 1.079173 0.040000
v -0.019723 1.098834 0.040000
v -0.000000 1.095662 0.081405
v 0.019723 1.088801 0.077444
v 0.028504 1.071774 0.067613
v 0.020671 1.053927 0.057309
v -0.000000 1.046240 0.052871
v -0.020672 1.053927 0.057309
v -0.028504 1.071774 0.067613
v -0.019723 1.088801 0.077444
v -0.000000 1.065351 0.111715
v 0.019723 1.061390 0.104854
v 0.028504 1.051560 0.087828
v 0.020672 1.041256 0.069981
v -0.000000 1.036817 0.062293
v -0.020672 1.041256 0.069981
v -0.028504 1.051560 0.087828
v -0.019723 1.061390 0.104854
v -0.000000 0.852114 -0.040000
v 0.019723 0.860036 -0.040000
v 0.028504 0.879697 -0.040000
v 0.020672 0.900305 -0.040000
v -0.000000 0.909182 -0.040000
v -0.020672 0.900305 -0.040000
v -0.028504 0.879697 -0.040000
v -0.019723 0.860036 -0.040000
v -0.000000 0.863208 -0.081405
v 0.019723 0.870070 -0.077444
v 0.028504 0.887096 -0.067613
v 0.020672 0.904943 -0.057309
v -0.000000 0.912631 -0.052871
v -0.020672 0.904943 -0.057309
v -0.028504 0.887096 -0.067613
v -0.019723 0.870070 -0.077444
v -0.000000 0.893519 -0.111715
v 0.019723 0.897480 -0.104854
v 0.028504 0.907310 -0.087828
v 0.020672 0.917614 -0.069980
v -0.000000 0.922053 -0.062293
v -0.020672 0.917614 -0.069980
v -0.028504 0.907310 -0.087828
v -0.019723 0.897480 -0.104854
v -0.000000 0.934924 -0.122809
v 0.019723 0.934924 -0.114887
v 0.028504 0.934924 -0.095226
v 0.020671 0.934924 -0.074618
v -0.000000 0.934924 -0.065742
v -0.020672 0.934924 -0.074618
v -0.028504 0.934924 -0.095226
v -0.019723 0.934924 -0.114887
v -0.000000 1.023947 -0.122809
v 0.019723 1.023947 -0.114887
v 0.028504 1.023947 -0.095226
v 0.020672 1.023947 -0.074618
v -0.000000 1.023947 -0.065742
v -0.020672 1.023947 -0.074618
v -0.028504 1.023947 -0.095226
v -0.019723 1.023947 -0.114887
v -0.000000 1.065351 -0.111715
v 0.019723 1.061390 -0.104854
v 0.028504 1.051560 -0.087827
v 0.020672 1.041256 -0.069980
v -0.000000 1.036817 -0.062293
v -0.020672 1.041256 -0.069980
v -0.028504 1.051560 -0.087827
v -0.019723 1.061390 -0.104854
v -0.000000 1.095662 -0.081405
v 0.019723 1.088801 -0.077443
v 0.028504 1.071774 -0.067613
v 0.020671 1.053927 -0.057309
v -0.000000 1.046240 -0.052871
v -0.020672 1.053927 -0.057309
v -0.028504 1.071774 -0.067613
v -0.019723 1.088801 -0.077443
v -0.000000 1.106756 -0.040000
v 0.019723 1.098834 -0.040000
v 0.028504 1.079173 -0.040000
v 0.020672 1.058565 -0.040000
v -0.000000 1.049688 -0.040000
v -0.020672 1.058565 -0.040000
v -0.028504 1.079173 -0.040000
v -0.019723 1.098834 -0.040000
vt 0.845142 0.681650
vt 0.840769 0.697970
vt 0.839113 0.697014
vt 0.843230 0.681650
vt 0.835116 0.694706
vt 0.838614 0.681650
vt 0.831118 0.629898
vt 0.833998 0.619150
vt 0.829462 0.628942
vt 0.832086 0.619150
vt 0.831118 0.629898
vt 0.833998 0.619150
vt 0.835116 0.694706
vt 0.838614 0.681650
vt 0.839113 0.697014
vt 0.843230 0.681650
vt 0.828822 0.709918
vt 0.827865 0.708262
vt 0.825557 0.704264
vt 0.823249 0.637767
vt 0.822293 0.636111
vt 0.823249 0.637767
vt 0.825557 0.704264
vt 0.827865 0.708262
vt 0.812501 0.714291
vt 0.812501 0.712379
vt 0.812501 0.707763
vt 0.812501 0.640647
vt 0.812501 0.638734
vt 0.812501 0.640647
vt 0.812501 0.707763
vt 0.812501 0.712379
vt 0.843230 0.681650
vt 0.838614 0.681650
vt 0.845142 0.681650
vt 0.833998 0.619150
vt 0.832086 0.619150
vt 0.833998 0.619150
vt 0.838614 0.681650
vt 0.843230 0.681650
vt 0.812501 0.638734
vt 0.812501 0.640647
vt 0.812501 0.712379
vt 0.812501 0.714291
vt 0.812501 0.599565
vt 0.812501 0.597653
vt 0.812501 0.597653
vt 0.812501 0.599565
vt 0.812501 0.640647
vt 0.812501 0.655536
vt 0.812501 0.655536
vt 0.812501 0.707763
vt 0.812501 0.655536
vt 0.812501 0.597653
vt 0.812501 0.597653
vt 0.812501 0.655536
vt 0.812501 0.712379
vt 0.812501 0.650920
vt 0.812501 0.649008
vt 0.812501 0.649008
vt 0.812501 0.650920
vt 0.812501 0.650920
vt 0.812501 0.650920
vt 0.812501 0.707763
vt 0.828822 0.653381
vt 0.827865 0.655037
vt 0.825557 0.659035
vt 0.823249 0.600533
vt 0.822293 0.602189
vt 0.823249 0.600533
vt 0.825557 0.659035
vt 0.827865 0.655037
vt 0.840769 0.665329
vt 0.839113 0.666285
vt 0.835116 0.668593
vt 0.831118 0.608401
vt 0.829462 0.609357
vt 0.831118 0.608401
vt 0.835116 0.668593
vt 0.839113 0.666285
vt 0.796180 0.709918
vt 0.797136 0.708262
vt 0.799444 0.704264
vt 0.801753 0.637767
vt 0.802709 0.636111
vt 0.801753 0.637767
vt 0.799444 0.704264
vt 0.797136 0.708262
vt 0.784232 0.697970
vt 0.785889 0.697014
vt 0.789886 0.694706
vt 0.793884 0.629898
vt 0.795540 0.628942
vt 0.793884 0.629898
vt 0.789886 0.694706
vt 0.785889 0.697014
vt 0.779860 0.681650
vt 0.781772 0.681650
vt 0.786388 0.681650
vt 0.791004 0.619150
vt 0.792916 0.619150
vt 0.791004 0.619150
vt 0.786388 0.681650
vt 0.781772 0.681650
vt 0.786388 0.681650
vt 0.791004 0.619150
vt 0.792916 0.619150
vt 0.779860 0.681650
vt 0.781772 0.681650
vt 0.786388 0.681650
vt 0.781772 0.681650
vt 0.791004 0.619150
vt 0.784232 0.665329
vt 0.785889 0.666285
vt 0.789886 0.668593
vt 0.793884 0.608401
vt 0.795540 0.609357
vt 0.793884 0.608401
vt 0.789886 0.668593
vt 0.785889 0.666285
vt 0.796180 0.653381
vt 0.797136 0.655037
vt 0.799444 0.659035
vt 0.801753 0.600533
vt 0.802709 0.602189
vt 0.801753 0.600533
vt 0.799444 0.659035
vt 0.797136 0.655037
vn 0.0000 -0.1267 0.9919
vn 0.0000 -0.5000 0.8660
vn 0.6639 -0.3739 0.6477
vn 0.6761 -0.0965 0.7304
vn 0.9131 -0.2039 0.3532
vn 0.9981 -0.0122 0.0599
vn 0.9348 0.1776 -0.3077
vn 0.9336 0.0509 -0.3548
vn 0.3919 0.1164 -0.9126
vn 0.3946 0.4594 -0.7958
vn 0.3915 0.1242 -0.9117
vn -0.3915 0.1242 -0.9117
vn -0.3946 0.4594 -0.7958
vn -0.3919 0.1164 -0.9126
vn -0.9336 0.0509 -0.3548
vn -0.9348 0.1776 -0.3077
vn -0.9981 -0.0122 0.0599
vn -0.9131 -0.2039 0.3532
vn -0.6639 -0.3739 0.6477
vn -0.6761 -0.0965 0.7304
vn 0.0000 -0.8660 0.5000
vn 0.6639 -0.6477 0.3739
vn 0.9131 -0.3532 0.2039
vn 0.9348 0.3077 -0.1776
vn 0.3946 0.7958 -0.4594
vn -0.3946 0.7958 -0.4594
vn -0.9348 0.3077 -0.1776
vn -0.9131 -0.3532 0.2039
vn -0.6639 -0.6477 0.3739
vn 0.0000 -0.9919 0.1267
vn 0.6761 -0.7304 0.0965
vn 0.9981 -0.0599 0.0122
vn 0.9336 0.3548 -0.0509
vn 0.3919 0.9126 -0.1164
vn 0.3915 0.9117 -0.1242
vn -0.3915 0.9117 -0.1242
vn -0.3919 0.9126 -0.1164
vn -0.9336 0.3548 -0.0509
vn -0.9981 -0.0599 0.0122
vn -0.6761 -0.7304 0.0965
vn -0.6761 0.0965 0.7304
vn -0.9981 0.0122 0.0599
vn 0.0000 0.1267 0.9919
vn -0.3919 -0.1164 -0.9126
vn -0.3915 -0.1242 -0.9117
vn 0.9336 -0.0509 -0.3548
vn 0.9981 0.0122 0.0599
vn -0.9336 -0.0509 -0.3548
vn 0.6761 0.0965 0.7304
vn 0.3915 -0.1242 -0.9117
vn 0.3919 -0.1164 -0.9126
vn -0.3915 0.9117 0.1242
vn -0.3919 0.9126 0.1164
vn -0.6761 -0.7304 -0.0965
vn 0.0000 -0.9919 -0.1267
vn -0.3915 -0.9117 -0.1242
vn -0.3919 -0.9126 -0.1164
vn -0.3919 -0.9126 0.1164
vn -0.3915 -0.9117 0.1242
vn 0.3919 0.9126 0.1164
vn 0.3915 0.9117 0.1242
vn -0.9336 -0.3548 -0.0509
vn -0.9981 0.0599 0.0122
vn -0.9981 0.0599 -0.0122
vn -0.9336 -0.3548 0.0509
vn 0.9981 -0.0599 -0.0122
vn 0.9336 0.3548 0.0509
vn 0.9981 0.0599 0.0122
vn 0.9336 -0.3548 -0.0509
vn 0.9336 -0.3548 0.0509
vn 0.9981 0.0599 -0.0122
vn 0.6761 -0.7304 -0.0965
vn 0.3919 -0.9126 -0.1164
vn 0.3915 -0.9117 -0.1242
vn 0.3915 -0.9117 0.1242
vn 0.3919 -0.9126 0.1164
vn -0.6761 0.7304 0.0965
vn -0.0000 0.9919 0.1267
vn 0.0000 0.9919 -0.1267
vn -0.6761 0.7304 -0.0965
vn 0.6761 0.7304 0.0965
vn 0.6761 0.7304 -0.0965
vn -0.9981 -0.0599 -0.0122
vn -0.9336 0.3548 0.0509
vn -0.0000 0.8660 0.5000
vn 0.6639 0.6477 0.3739
vn 0.9131 0.3532 0.2039
vn 0.9348 -0.3077 -0.1776
vn 0.3946 -0.7958 -0.4594
vn -0.3946 -0.7958 -0.4594
vn -0.9348 -0.3077 -0.1776
vn -0.9131 0.3532 0.2039
vn -0.6639 0.6477 0.3739
vn -0.0000 0.5000 0.8660
vn 0.6639 0.3739 0.6477
vn 0.9131 0.2039 0.3532
vn 0.9348 -0.1776 -0.3077
vn 0.3946 -0.4594 -0.7958
vn -0.3946 -0.4594 -0.7958
vn -0.9348 -0.1776 -0.3077
vn -0.9131 0.2039 0.3532
vn -0.6639 0.3739 0.6477
vn 0.0000 -0.8660 -0.5000
vn 0.6639 -0.6477 -0.3739
vn 0.9131 -0.3532 -0.2039
vn 0.9348 0.3077 0.1776
vn 0.3946 0.7958 0.4594
vn -0.3946 0.7958 0.4594
vn -0.9348 0.3077 0.1776
vn -0.9131 -0.3532 -0.2039
vn -0.6639 -0.6477 -0.3739
vn -0.0000 -0.5000 -0.8660
vn 0.6639 -0.3739 -0.6477
vn 0.9131 -0.2039 -0.3532
vn 0.9348 0.1776 0.3077
vn 0.3946 0.4594 0.7958
vn -0.3946 0.4594 0.7958
vn -0.9348 0.1776 0.3077
vn -0.9131 -0.2039 -0.3532
vn -0.6639 -0.3739 -0.6477
vn -0.0000 -0.1267 -0.9919
vn 0.6761 -0.0965 -0.7304
vn 0.9981 -0.0122 -0.0599
vn 0.9336 0.0509 0.3548
vn 0.3919 0.1164 0.9126
vn 0.3915 0.1242 0.9117
vn -0.3915 0.1242 0.9117
vn -0.3919 0.1164 0.9126
vn -0.9336 0.0509 0.3548
vn -0.9981 -0.0122 -0.0599
vn -0.6761 -0.0965 -0.7304
vn 0.9981 0.0122 -0.0599
vn 0.9336 -0.0509 0.3548
vn 0.3919 -0.1164 0.9126
vn 0.3915 -0.1242 0.9117
vn -0.0000 0.1267 -0.9919
vn 0.6761 0.0965 -0.7304
vn -0.9981 0.0122 -0.0599
vn -0.6761 0.0965 -0.7304
vn -0.3915 -0.1242 0.9117
vn -0.3919 -0.1164 0.9126
vn -0.9336 -0.0509 0.3548
vn 0.0000 0.5000 -0.8660
vn 0.6639 0.3739 -0.6477
vn 0.9131 0.2039 -0.3532
vn 0.9348 -0.1776 0.3077
vn 0.3946 -0.4594 0.7958
vn -0.3946 -0.4594 0.7958
vn -0.9348 -0.1776 0.3077
vn -0.9131 0.2039 -0.3532
vn -0.6639 0.3739 -0.6477
vn 0.0000 0.8660 -0.5000
vn 0.6639 0.6477 -0.3739
vn 0.9131 0.3532 -0.2039
vn 0.9348 -0.3077 0.1776
vn 0.3946 -0.7958 0.4594
vn -0.3946 -0.7958 0.4594
vn -0.9348 -0.3077 0.1776
vn -0.9131 0.3532 -0.2039
vn -0.6639 0.6477 -0.3739
usemtl tools
s 1
f 1/1/1 9/2/2 10/3/3 2/4/4
f 2/4/4 10/3/3 11/5/5 3/6/6
f 3/6/6 11/5/7 12/7/7 4/8/8
f 4/8/9 12/7/10 13/9/10 5/10/11
f 5/10/12 13/9/13 14/11/13 6/12/14
f 6/12/15 14/11/16 15/13/16 7/14/17
f 7/14/17 15/13/18 16/15/19 8/16/20
f 8/16/20 16/15/19 9/2/2 1/1/1
f 9/2/2 17/17/21 18/18/22 10/3/3
f 10/3/3 18/18/22 19/19/23 11/5/5
f 11/5/7 19/19/24 20/20/24 12/7/7
f 12/7/10 20/20/25 21/21/25 13/9/10
f 13/9/13 21/21/26 22/22/26 14/11/13
f 14/11/16 22/22/27 23/23/27 15/13/16
f 15/13/18 23/23/28 24/24/29 16/15/19
f 16/15/19 24/24/29 17/17/21 9/2/2
f 17/17/21 25/25/30 26/26/31 18/18/22
f 18/18/22 26/26/31 27/27/32 19/19/23
f 19/19/24 27/27/32 28/28/33 20/20/24
f 20/20/25 28/28/34 29/29/35 21/21/25
f 21/21/26 29/29/36 30/30/37 22/22/26
f 22/22/27 30/30/38 31/31/39 23/23/27
f 23/23/28 31/31/39 32/32/40 24/24/29
f 24/24/29 32/32/40 25/25/30 17/17/21
f 7/14/17 8/16/20 40/33/41 39/34/42
f 8/16/20 1/1/1 33/35/43 40/33/41
f 5/10/12 6/12/14 38/36/44 37/37/45
f 3/6/6 4/8/8 36/38/46 35/39/47
f 6/12/15 7/14/17 39/34/42 38/36/48
f 1/1/1 2/4/4 34/40/49 33/35/43
f 4/8/9 5/10/11 37/37/50 36/38/51
f 2/4/4 3/6/6 35/39/47 34/40/49
f 30/30/37 29/29/36 69/41/52 70/42/53
f 25/25/30 32/32/40 72/43/54 65/44/55
f 45/45/56 46/46/57 126/47/58 125/48/59
f 29/29/35 28/28/34 68/49/60 69/41/61
f 46/46/62 47/50/63 127/51/64 126/47/65
f 28/28/33 27/27/32 67/52/66 68/49/67
f 43/53/68 44/54/69 124/55/70 123/56/71
f 27/27/32 26/26/31 66/57/72 67/52/66
f 44/54/73 45/45/74 125/48/75 124/55/76
f 48/58/77 41/59/78 121/60/79 128/61/80
f 26/26/31 25/25/30 65/44/55 66/57/72
f 41/59/78 42/62/81 122/63/82 121/60/79
f 32/32/40 31/31/39 71/64/83 72/43/54
f 42/62/81 43/53/68 123/56/71 122/63/82
f 31/31/39 30/30/38 70/42/84 71/64/83
f 47/50/63 48/58/77 128/61/80 127/51/64
f 41/59/78 49/65/85 50/66/86 42/62/81
f 42/62/81 50/66/86 51/67/87 43/53/68
f 43/53/68 51/67/88 52/68/88 44/54/69
f 44/54/73 52/68/89 53/69/89 45/45/74
f 45/45/56 53/69/90 54/70/90 46/46/57
f 46/46/62 54/70/91 55/71/91 47/50/63
f 47/50/63 55/71/92 56/72/93 48/58/77
f 48/58/77 56/72/93 49/65/85 41/59/78
f 49/65/85 57/73/94 58/74/95 50/66/86
f 50/66/86 58/74/95 59/75/96 51/67/87
f 51/67/88 59/75/97 60/76/97 52/68/88
f 52/68/89 60/76/98 61/77/98 53/69/89
f 53/69/90 61/77/99 62/78/99 54/70/90
f 54/70/91 62/78/100 63/79/100 55/71/91
f 55/71/92 63/79/101 64/80/102 56/72/93
f 56/72/93 64/80/102 57/73/94 49/65/85
f 57/73/94 33/35/43 34/40/49 58/74/95
f 58/74/95 34/40/49 35/39/47 59/75/96
f 59/75/97 35/39/47 36/38/46 60/76/97
f 60/76/98 36/38/51 37/37/50 61/77/98
f 61/77/99 37/37/45 38/36/44 62/78/99
f 62/78/100 38/36/48 39/34/42 63/79/100
f 63/79/101 39/34/42 40/33/41 64/80/102
f 64/80/102 40/33/41 33/35/43 57/73/94
f 65/44/55 73/81/103 74/82/104 66/57/72
f 66/57/72 74/82/104 75/83/105 67/52/66
f 67/52/66 75/83/106 76/84/106 68/49/67
f 68/49/60 76/84/107 77/85/107 69/41/61
f 69/41/52 77/85/108 78/86/108 70/42/53
f 70/42/84 78/86/109 79/87/109 71/64/83
f 71/64/83 79/87/110 80/88/111 72/43/54
f 72/43/54 80/88/111 73/81/103 65/44/55
f 73/81/103 81/89/112 82/90/113 74/82/104
f 74/82/104 82/90/113 83/91/114 75/83/105
f 75/83/106 83/91/115 84/92/115 76/84/106
f 76/84/107 84/92/116 85/93/116 77/85/107
f 77/85/108 85/93/117 86/94/117 78/86/108
f 78/86/109 86/94/118 87/95/118 79/87/109
f 79/87/110 87/95/119 88/96/120 80/88/111
f 80/88/111 88/96/120 81/89/112 73/81/103
f 81/89/112 89/97/121 90/98/122 82/90/113
f 82/90/113 90/98/122 91/99/123 83/91/114
f 83/91/115 91/99/123 92/100/124 84/92/115
f 84/92/116 92/100/125 93/101/126 85/93/116
f 85/93/117 93/101/127 94/102/128 86/94/117
f 86/94/118 94/102/129 95/103/130 87/95/118
f 87/95/119 95/103/130 96/104/131 88/96/120
f 88/96/120 96/104/131 89/97/121 81/89/112
f 92/100/124 91/99/123 99/105/132 100/106/133
f 93/101/126 92/100/125 100/106/134 101/107/135
f 90/98/122 89/97/121 97/108/136 98/109/137
f 91/99/123 90/98/122 98/109/137 99/105/132
f 96/104/131 95/103/130 103/110/138 104/111/139
f 94/102/128 93/101/127 101/107/140 102/112/141
f 95/103/130 94/102/129 102/112/142 103/110/138
f 89/97/121 96/104/131 104/111/139 97/108/136
f 97/108/136 105/113/143 106/114/144 98/109/137
f 98/109/137 106/114/144 107/115/145 99/105/132
f 99/105/132 107/115/146 108/116/146 100/106/133
f 100/106/134 108/116/147 109/117/147 101/107/135
f 101/107/140 109/117/148 110/118/148 102/112/141
f 102/112/142 110/118/149 111/119/149 103/110/138
f 103/110/138 111/119/150 112/120/151 104/111/139
f 104/111/139 112/120/151 105/113/143 97/108/136
f 105/113/143 113/121/152 114/122/153 106/114/144
f 106/114/144 114/122/153 115/123/154 107/115/145
f 107/115/146 115/123/155 116/124/155 108/116/146
f 108/116/147 116/124/156 117/125/156 109/117/147
f 109/117/148 117/125/157 118/126/157 110/118/148
f 110/118/149 118/126/158 119/127/158 111/119/149
f 111/119/150 119/127/159 120/128/160 112/120/151
f 112/120/151 120/128/160 113/121/152 105/113/143
f 113/121/152 121/60/79 122/63/82 114/122/153
f 114/122/153 122/63/82 123/56/71 115/123/154
f 115/123/155 123/56/71 124/55/70 116/124/155
f 116/124/156 124/55/76 125/48/75 117/125/156
f 117/125/157 125/48/59 126/47/58 118/126/157
f 118/126/158 126/47/65 127/51/64 119/127/158
f 119/127/159 127/51/64 128/61/80 120/128/160
f 120/128/160 128/61/80 121/60/79 113/121/152
