# Blender v3.4.1 OBJ File: 'RPG_Tool_Bits_Export.blend'
# www.blender.org
mtllib nail.mtl
o nail
v 0.000000 0.079933 -0.073708
v 0.052120 0.079933 -0.052119
v 0.073708 0.079933 0.000000
v 0.052120 0.079933 0.052120
v 0.000000 0.079933 0.073709
v -0.052120 0.079933 0.052120
v -0.073708 0.079933 0.000000
v -0.052120 0.079933 -0.052119
v 0.000000 0.124340 -0.052967
v 0.000000 0.109090 -0.079453
v 0.037453 0.124340 -0.037453
v 0.056182 0.109090 -0.056182
v 0.052967 0.124340 0.000000
v 0.079453 0.109090 0.000000
v 0.037453 0.124340 0.037454
v 0.056182 0.109090 0.056182
v 0.000000 0.109090 0.079454
v -0.037453 0.124340 0.037454
v -0.056182 0.109090 0.056182
v -0.052967 0.124340 0.000000
v -0.079453 0.109090 0.000000
v -0.037453 0.124340 -0.037453
v -0.056182 0.109090 -0.056182
v 0.000000 0.124340 0.052915
v 0.000000 0.124340 -0.000007
v -0.025334 0.079933 -0.025334
v 0.000000 0.079933 -0.035828
v 0.025334 0.079933 -0.025334
v 0.035828 0.079933 0.000000
v 0.025334 0.079933 0.025335
v 0.000000 0.079933 0.035829
v -0.025334 0.079933 0.025335
v -0.035828 0.079933 0.000000
v 0.021458 -0.097696 0.021458
v -0.021458 -0.097696 0.021458
v 0.021458 -0.097696 -0.021458
v -0.021458 -0.097696 -0.021458
v 0.000000 -0.168747 -0.000000
vt 0.795692 0.632636
vt 0.794313 0.644325
vt 0.813389 0.644325
vt 0.813389 0.632636
vt 0.832466 0.644325
vt 0.831087 0.632636
vt 0.788362 0.632636
vt 0.786411 0.644325
vt 0.795692 0.632636
vt 0.794313 0.644325
vt 0.813389 0.632636
vt 0.813389 0.644325
vt 0.831087 0.632636
vt 0.832466 0.644325
vt 0.838417 0.632636
vt 0.840368 0.644325
vt 0.832466 0.675575
vt 0.813389 0.675575
vt 0.813389 0.681688
vt 0.826107 0.681688
vt 0.840368 0.675575
vt 0.831374 0.681688
vt 0.832466 0.675575
vt 0.826107 0.681688
vt 0.813389 0.675575
vt 0.813389 0.681688
vt 0.794313 0.675575
vt 0.800672 0.681688
vt 0.786411 0.675575
vt 0.795405 0.681688
vt 0.794313 0.675575
vt 0.800672 0.681688
vt 0.831374 0.650438
vt 0.826107 0.650438
vt 0.813389 0.650438
vt 0.813389 0.650438
vt 0.800672 0.650438
vt 0.795405 0.650438
vt 0.800672 0.650438
vt 0.813389 0.650438
vt 0.826107 0.650438
vt 0.804787 0.632636
vt 0.821992 0.632636
vt 0.813389 0.632636
vt 0.813389 0.632636
vt 0.804787 0.632636
vt 0.821992 0.632636
vt 0.825555 0.632636
vt 0.801224 0.632636
vt 0.821992 0.632636
vt 0.804787 0.632636
vt 0.804787 0.632636
vt 0.804787 0.632636
vt 0.821992 0.632636
vt 0.821992 0.632636
vn -0.6938 -0.1933 -0.6938
vn 0.0000 -0.1933 -0.9811
vn 0.6938 -0.1933 -0.6938
vn -0.9811 -0.1933 -0.0000
vn -0.6938 -0.1933 0.6938
vn 0.0000 -0.1933 0.9811
vn 0.6938 -0.1933 0.6938
vn 0.9811 -0.1933 -0.0000
vn 0.3528 0.8666 -0.3528
vn 0.0000 0.8666 -0.4990
vn 0.4990 0.8666 -0.0000
vn 0.3526 0.8667 0.3527
vn -0.0000 0.8668 0.4987
vn -0.3526 0.8667 0.3527
vn -0.4990 0.8666 0.0000
vn -0.3528 0.8666 -0.3528
vn -0.0000 1.0000 0.0000
vn 0.0000 -1.0000 0.0000
vn 0.0000 -0.0218 -0.9998
vn 0.0000 -0.1427 -0.9898
vn -0.9898 -0.1427 -0.0000
vn -0.9573 -0.2891 0.0000
vn 0.0000 -0.0218 0.9998
vn 0.0000 -0.1427 0.9898
vn -0.9998 -0.0218 -0.0000
vn 0.9998 -0.0218 0.0000
vn 0.9898 -0.1427 0.0000
vn 0.9573 -0.2891 0.0000
vn 0.0000 -0.2891 -0.9573
vn 0.0000 -0.2891 0.9573
usemtl tools
s 1
f 8/1/1 23/2/1 10/3/2 1/4/2
f 1/4/2 10/3/2 12/5/3 2/6/3
f 7/7/4 21/8/4 23/2/1 8/1/1
f 6/9/5 19/10/5 21/8/4 7/7/4
f 5/11/6 17/12/6 19/10/5 6/9/5
f 4/13/7 16/14/7 17/12/6 5/11/6
f 3/15/8 14/16/8 16/14/7 4/13/7
f 2/6/3 12/5/3 14/16/8 3/15/8
f 12/17/9 10/18/10 9/19/10 11/20/9
f 14/21/11 12/17/9 11/20/9 13/22/11
f 16/23/12 14/21/11 13/22/11 15/24/12
f 17/25/13 16/23/12 15/24/12 24/26/13
f 19/27/14 17/25/13 24/26/13 18/28/14
f 21/29/15 19/27/14 18/28/14 20/30/15
f 23/31/16 21/29/15 20/30/15 22/32/16
f 10/18/10 23/31/16 22/32/16 9/19/10
f 13/33/17 11/34/17 25/35/17
f 11/34/17 9/36/17 25/35/17
f 9/36/17 22/37/17 25/35/17
f 22/37/17 20/38/17 25/35/17
f 20/38/17 18/39/17 25/35/17
f 18/39/17 24/40/17 25/35/17
f 24/40/17 15/41/17 25/35/17
f 15/41/17 13/33/17 25/35/17
f 32/42/18 30/43/18 31/44/18
f 8/1/18 1/4/18 27/45/18 26/46/18
f 1/4/18 2/6/18 28/47/18 27/45/18
f 2/6/18 3/15/18 29/48/18 28/47/18
f 3/15/18 4/13/18 30/43/18 29/48/18
f 4/13/18 5/11/18 31/44/18 30/43/18
f 5/11/18 6/9/18 32/42/18 31/44/18
f 6/9/18 7/7/18 33/49/18 32/42/18
f 7/7/18 8/1/18 26/46/18 33/49/18
f 30/43/18 28/47/18 29/48/18
f 26/46/18 27/45/18 28/47/18
f 26/46/19 28/47/19 36/50/20 37/51/20
f 33/49/18 26/46/18 32/42/18
f 35/52/21 37/51/21 38/53/22
f 30/43/23 32/42/23 35/52/24 34/54/24
f 32/42/25 26/46/25 37/51/21 35/52/21
f 28/47/26 30/43/26 34/54/27 36/50/27
f 36/50/27 34/54/27 38/55/28
f 37/51/20 36/50/20 38/53/29
f 34/54/24 35/52/24 38/55/30
