# Blender v3.4.1 OBJ File: 'RPG_Tool_Bits_Export.blend'
# www.blender.org
mtllib scissors_part.mtl
o scissors_part
v 0.000000 0.236377 -0.027535
v 0.115821 0.399959 -0.009517
v 0.022653 0.637362 -0.009517
v -0.000000 0.236377 -0.009517
v 0.130186 0.244334 -0.009517
v -0.000000 0.669091 -0.009517
v 0.076931 0.542201 -0.009517
v 0.057510 0.467886 -0.009517
v 0.013519 0.539082 -0.009517
v 0.087548 0.361030 -0.009517
v -0.000000 0.562549 -0.009517
v 0.087548 0.361030 -0.027535
v 0.057510 0.467886 -0.027535
v 0.013519 0.539082 -0.027535
v 0.000000 0.562549 -0.027535
v 0.094659 0.242213 -0.027535
v 0.094659 0.242213 -0.009517
v -0.227696 -0.394033 -0.009517
v -0.220802 -0.396678 0.008993
v -0.202842 -0.403268 0.016650
v -0.184533 -0.409812 0.008934
v -0.177051 -0.412810 -0.009517
v -0.184533 -0.409812 -0.027969
v -0.202842 -0.403268 -0.035684
v -0.220802 -0.396678 -0.028028
v -0.218232 -0.329077 -0.009517
v -0.211326 -0.335831 0.008993
v -0.194586 -0.352617 0.016650
v -0.177819 -0.370080 0.008934
v -0.170908 -0.377495 -0.009517
v -0.177819 -0.370080 -0.027969
v -0.194586 -0.352617 -0.035684
v -0.211326 -0.335831 -0.028028
v -0.177405 -0.280331 -0.009517
v -0.173586 -0.290254 0.008993
v -0.164108 -0.314855 0.016650
v -0.154331 -0.340326 0.008934
v -0.150231 -0.351090 -0.009517
v -0.154330 -0.340326 -0.027969
v -0.164108 -0.314855 -0.035684
v -0.173586 -0.290254 -0.028028
v -0.119887 -0.260713 -0.009517
v -0.120512 -0.272035 0.009035
v -0.121120 -0.299692 0.016650
v -0.121076 -0.328315 0.008934
v -0.121050 -0.340506 -0.009517
v -0.121076 -0.328315 -0.027969
v -0.121120 -0.299692 -0.035685
v -0.120512 -0.272035 -0.028069
v -0.092666 -0.269582 -0.009517
v -0.086989 -0.279650 0.007500
v -0.076291 -0.311364 0.016644
v -0.086944 -0.338411 0.008934
v -0.090833 -0.349433 -0.009517
v -0.086944 -0.338411 -0.027969
v -0.076291 -0.311364 -0.035678
v -0.086989 -0.279650 -0.026535
v -0.043034 -0.348569 0.016693
v -0.061013 -0.368019 0.008934
v -0.067706 -0.375734 -0.009517
v -0.061013 -0.368019 -0.027969
v -0.043034 -0.348569 -0.035728
v -0.005714 -0.391394 -0.009517
v -0.013131 -0.394103 0.008874
v -0.031482 -0.401129 0.016643
v -0.050304 -0.408615 0.008934
v -0.058120 -0.411739 -0.009517
v -0.050304 -0.408615 -0.027969
v -0.031482 -0.401129 -0.035678
v -0.013131 -0.394103 -0.027908
v -0.018371 -0.460428 -0.009517
v -0.025002 -0.458718 0.008993
v -0.041072 -0.454328 0.016650
v -0.057687 -0.449376 0.008934
v -0.064640 -0.447845 -0.009517
v -0.057687 -0.449376 -0.027969
v -0.041072 -0.454328 -0.035684
v -0.025002 -0.458718 -0.028028
v -0.057861 -0.512459 -0.009517
v -0.061475 -0.507160 0.008993
v -0.071138 -0.493454 0.016650
v -0.081288 -0.479778 0.008934
v -0.085649 -0.474107 -0.009517
v -0.081288 -0.479778 -0.027969
v -0.071138 -0.493454 -0.035684
v -0.061475 -0.507160 -0.028028
v -0.112973 -0.532956 -0.009517
v -0.113121 -0.525550 0.008993
v -0.113763 -0.507770 0.016650
v -0.114843 -0.490210 0.008934
v -0.115431 -0.483049 -0.009517
v -0.114843 -0.490210 -0.027969
v -0.113763 -0.507770 -0.035684
v -0.113121 -0.525550 -0.028028
v -0.167831 -0.511979 -0.009517
v -0.164436 -0.506454 0.008993
v -0.156265 -0.492672 0.016650
v -0.148387 -0.478962 0.008934
v -0.145232 -0.473316 -0.009517
v -0.148386 -0.478962 -0.027969
v -0.156265 -0.492672 -0.035684
v -0.164436 -0.506454 -0.028028
v -0.209914 -0.460439 -0.009517
v -0.203412 -0.459102 0.008993
v -0.188300 -0.454718 0.016649
v -0.173482 -0.449723 0.008934
v -0.167470 -0.447929 -0.009517
v -0.173482 -0.449723 -0.027969
v -0.188300 -0.454718 -0.035684
v -0.203412 -0.459102 -0.028028
v -0.065991 -0.192532 -0.009517
v -0.063637 -0.193559 -0.001615
v -0.060804 -0.195133 -0.020411
v -0.063636 -0.193559 -0.017420
v -0.060804 -0.195133 0.001376
v -0.036926 -0.205678 0.001114
v -0.036926 -0.205678 -0.020148
v -0.021737 -0.210795 -0.009517
v -0.025340 -0.209735 -0.002644
v -0.025340 -0.209735 -0.016391
v -0.007137 -0.338842 -0.009517
v -0.014419 -0.341008 0.008597
v -0.034591 -0.347212 -0.035851
v -0.014419 -0.341009 -0.027631
v -0.034591 -0.347212 0.016816
v -0.078199 -0.178597 -0.009516
v -0.073163 -0.180785 0.005607
v -0.066290 -0.184018 -0.030062
v -0.073164 -0.180786 -0.024639
v -0.066290 -0.184017 0.011028
v -0.030476 -0.199295 0.010628
v -0.030476 -0.199295 -0.029662
v -0.004733 -0.209368 -0.009517
v -0.011759 -0.206647 0.004274
v -0.011760 -0.206647 -0.023309
v -0.072313 -0.143728 -0.009515
v -0.067220 -0.145910 0.005991
v -0.059981 -0.148932 -0.030803
v -0.067204 -0.145920 -0.025024
v -0.060011 -0.148916 0.011768
v -0.023969 -0.164573 0.011716
v -0.023959 -0.164575 -0.030751
v 0.001890 -0.174917 -0.009517
v -0.005089 -0.172114 0.004699
v -0.005089 -0.172114 -0.023733
v -0.058347 -0.163775 -0.027535
v -0.030745 -0.176708 -0.027535
v -0.058373 -0.163828 -0.009517
v -0.015957 -0.182714 -0.009517
v -0.030772 -0.176764 -0.009517
v 0.053301 -0.062315 -0.027535
v 0.074016 -0.062071 -0.009517
v 0.053264 -0.062378 -0.009517
v -0.075129 -0.062391 -0.027535
v -0.055534 0.044816 -0.027535
v -0.075129 -0.006721 -0.027535
v -0.075129 -0.062410 -0.009517
v -0.055534 0.044821 -0.009517
v -0.075129 -0.006716 -0.009517
v 0.136670 0.139533 -0.009517
v 0.133272 0.085333 -0.009517
v 0.100355 0.137343 -0.027535
v 0.097640 0.085546 -0.027535
v 0.100372 0.137361 -0.009517
v 0.097674 0.085602 -0.009517
v 0.000000 0.131360 -0.027535
v -0.023580 0.086473 -0.027535
v -0.000000 0.131366 -0.009517
v -0.023576 0.086480 -0.009517
vt 0.816134 0.659799
vt 0.813474 0.672017
vt 0.816157 0.680244
vt 0.820198 0.663442
vt 0.809005 0.680319
vt 0.810691 0.691309
vt 0.804748 0.683135
vt 0.804748 0.695137
vt 0.816137 0.646391
vt 0.820146 0.646391
vt 0.813474 0.672017
vt 0.816134 0.659799
vt 0.809005 0.680319
vt 0.804748 0.683135
vt 0.804748 0.662016
vt 0.809005 0.695944
vt 0.804748 0.698760
vt 0.816137 0.646391
vt 0.810749 0.628360
vt 0.798281 0.617157
vt 0.801401 0.615721
vt 0.813086 0.612770
vt 0.803065 0.599416
vt 0.801401 0.600096
vt 0.810753 0.612742
vt 0.804631 0.628358
vt 0.801401 0.615721
vt 0.798281 0.617157
vt 0.804748 0.710762
vt 0.804748 0.698760
vt 0.804748 0.662016
vt 0.813474 0.687642
vt 0.816134 0.675424
vt 0.816134 0.675424
vt 0.816137 0.662016
vt 0.809005 0.695944
vt 0.813474 0.687642
vt 0.816137 0.662016
vt 0.585852 0.453248
vt 0.584484 0.453291
vt 0.581539 0.465795
vt 0.582723 0.466530
vt 0.581182 0.453390
vt 0.578679 0.464014
vt 0.581182 0.428230
vt 0.577880 0.378986
vt 0.575819 0.387344
vt 0.578679 0.438778
vt 0.576512 0.379000
vt 0.574635 0.386612
vt 0.577880 0.378986
vt 0.575819 0.387344
vt 0.581182 0.428230
vt 0.578679 0.438778
vt 0.581182 0.453390
vt 0.584484 0.453291
vt 0.581539 0.465795
vt 0.578679 0.464014
vt 0.573492 0.475120
vt 0.574176 0.476442
vt 0.571841 0.471923
vt 0.570190 0.393555
vt 0.571841 0.446632
vt 0.569506 0.392263
vt 0.570190 0.393555
vt 0.571841 0.446632
vt 0.573492 0.475120
vt 0.571841 0.471923
vt 0.562501 0.478661
vt 0.562501 0.480210
vt 0.562501 0.474921
vt 0.562501 0.395878
vt 0.562501 0.449598
vt 0.562501 0.394374
vt 0.562501 0.395878
vt 0.562501 0.449598
vt 0.562501 0.478661
vt 0.562501 0.474921
vt 0.551509 0.475397
vt 0.550825 0.476739
vt 0.553161 0.472154
vt 0.554812 0.393643
vt 0.553161 0.446823
vt 0.555496 0.392342
vt 0.554812 0.393643
vt 0.553161 0.446823
vt 0.551509 0.475397
vt 0.553161 0.472154
vt 0.540518 0.453762
vt 0.540518 0.453762
vt 0.539150 0.453746
vt 0.539150 0.453746
vt 0.543820 0.453791
vt 0.543820 0.453791
vt 0.546323 0.464391
vt 0.549183 0.387482
vt 0.546323 0.439087
vt 0.550367 0.386736
vt 0.549183 0.387482
vt 0.546323 0.439087
vt 0.553161 0.472154
vt 0.546323 0.464391
vt 0.546323 0.464391
vt 0.553161 0.472154
vt 0.551509 0.475397
vt 0.551509 0.475397
vt 0.540518 0.453762
vt 0.540518 0.453762
vt 0.547122 0.379122
vt 0.543820 0.428552
vt 0.548490 0.379124
vt 0.547122 0.379122
vt 0.543820 0.428552
vt 0.550825 0.476739
vt 0.543820 0.453791
vt 0.543820 0.453791
vt 0.539150 0.453746
vt 0.540518 0.453762
vt 0.543463 0.441356
vt 0.542278 0.440575
vt 0.546323 0.443237
vt 0.549183 0.370846
vt 0.546323 0.418091
vt 0.550367 0.371580
vt 0.549183 0.370846
vt 0.546323 0.418091
vt 0.543820 0.453791
vt 0.540518 0.453762
vt 0.543463 0.441356
vt 0.546323 0.443237
vt 0.551509 0.432307
vt 0.550825 0.430973
vt 0.553161 0.435528
vt 0.554812 0.364839
vt 0.553161 0.410470
vt 0.555496 0.366098
vt 0.554812 0.364839
vt 0.553161 0.410470
vt 0.551509 0.432307
vt 0.553161 0.435528
vt 0.562501 0.428943
vt 0.562501 0.427406
vt 0.562501 0.432658
vt 0.562501 0.362638
vt 0.562501 0.407650
vt 0.562501 0.364088
vt 0.562501 0.362638
vt 0.562501 0.407650
vt 0.562501 0.428943
vt 0.562501 0.432658
vt 0.573492 0.432109
vt 0.574176 0.430765
vt 0.571841 0.435354
vt 0.570190 0.364790
vt 0.571841 0.410336
vt 0.569506 0.366052
vt 0.570190 0.364790
vt 0.571841 0.410336
vt 0.573492 0.432109
vt 0.571841 0.435354
vt 0.581539 0.440986
vt 0.582723 0.440186
vt 0.578679 0.442917
vt 0.575819 0.370748
vt 0.578679 0.417839
vt 0.574635 0.371488
vt 0.575819 0.370748
vt 0.578679 0.417839
vt 0.581539 0.440986
vt 0.578679 0.442917
vt 0.540518 0.453762
vt 0.539150 0.453746
vt 0.543820 0.453791
vt 0.546323 0.464391
vt 0.546323 0.464391
vt 0.553161 0.472154
vt 0.543820 0.453791
vt 0.540518 0.453762
vt 0.816971 0.634560
vt 0.820172 0.634562
vt 0.804748 0.650186
vt 0.804748 0.650185
vt 0.553161 0.472154
vt 0.553161 0.472154
vt 0.546323 0.464391
vt 0.546323 0.464391
vt 0.540518 0.453762
vt 0.539150 0.453746
vt 0.546323 0.464391
vt 0.553161 0.472154
vt 0.540518 0.453762
vt 0.543820 0.453791
vt 0.543820 0.453791
vt 0.550825 0.476739
vt 0.551509 0.475397
vt 0.551509 0.475397
vt 0.543820 0.453791
vt 0.551509 0.475397
vt 0.550825 0.476739
vt 0.551509 0.475397
vt 0.810749 0.612735
vt 0.801401 0.600096
vt 0.803065 0.615041
vt 0.804630 0.628356
vt 0.796285 0.628356
vt 0.816972 0.650186
vt 0.816971 0.650185
vt 0.816972 0.634561
vt 0.796285 0.634630
vt 0.796285 0.634630
vt 0.796285 0.628358
vt 0.810753 0.628367
vt 0.797419 0.639399
vt 0.804748 0.644168
vt 0.797419 0.639400
vt 0.804748 0.644169
vt 0.817230 0.628543
vt 0.819928 0.628545
vt 0.817233 0.628545
vt 0.817230 0.644168
vt 0.817233 0.644170
vn 0.2498 0.0324 -0.9677
vn 0.2086 0.0689 -0.9756
vn 0.2926 0.1476 -0.9448
vn 0.4288 0.0938 -0.8985
vn 0.1295 0.0781 -0.9885
vn 0.2454 0.1573 -0.9566
vn 0.2016 0.1321 -0.9705
vn 0.2407 0.1578 -0.9577
vn 0.2372 0.0162 -0.9713
vn 0.4601 0.0315 -0.8873
vn -0.0000 -0.0000 1.0000
vn 0.5626 -0.2851 -0.7760
vn 0.6013 -0.4452 -0.6635
vn 0.3384 -0.2022 -0.9190
vn 0.0000 0.0000 -1.0000
vn -1.0000 0.0000 -0.0000
vn -0.9992 -0.0397 -0.0000
vn -0.9325 -0.0749 0.3533
vn -0.6439 0.2786 0.7126
vn -0.9020 0.4318 -0.0000
vn -0.3908 -0.0057 0.9204
vn -0.0631 -0.0278 0.9976
vn -0.0666 0.0057 0.9978
vn 0.6910 0.0408 0.7217
vn 0.5733 -0.2506 0.7801
vn 0.9972 0.0746 0.0000
vn 0.8312 -0.3367 0.4425
vn 0.6910 0.0408 -0.7217
vn 0.5733 -0.2506 -0.7801
vn 0.8312 -0.3367 -0.4425
vn -0.0631 -0.0278 -0.9976
vn -0.0666 0.0057 -0.9978
vn -0.3908 -0.0057 -0.9204
vn -0.6439 0.2786 -0.7126
vn -0.9325 -0.0749 -0.3534
vn -0.3818 0.5401 0.7500
vn -0.4809 0.7266 0.4908
vn -0.0416 0.0383 0.9984
vn 0.3320 -0.4596 0.8237
vn 0.5213 -0.6809 0.5144
vn 0.3320 -0.4596 -0.8237
vn 0.5213 -0.6809 -0.5144
vn -0.0416 0.0383 -0.9984
vn -0.3818 0.5401 -0.7500
vn -0.4809 0.7266 -0.4908
vn -0.0176 0.6492 0.7604
vn -0.0146 0.8646 0.5023
vn 0.0006 0.0599 0.9982
vn 0.0177 -0.5323 0.8463
vn 0.0279 -0.8338 0.5513
vn 0.0177 -0.5323 -0.8463
vn 0.0279 -0.8338 -0.5513
vn 0.0006 0.0599 -0.9982
vn -0.0176 0.6492 -0.7604
vn -0.0146 0.8646 -0.5023
vn 0.1561 0.5287 0.8343
vn 0.2417 0.8464 0.4746
vn -0.0339 0.0070 0.9994
vn -0.2961 -0.4677 0.8328
vn -0.4775 -0.7068 0.5220
vn -0.2961 -0.4677 -0.8328
vn -0.4775 -0.7068 -0.5220
vn -0.0339 0.0070 -0.9994
vn 0.1561 0.5287 -0.8343
vn 0.2417 0.8463 -0.4746
vn 0.9196 0.0624 -0.3880
vn 0.9098 0.1069 -0.4011
vn 0.9973 0.0740 0.0000
vn 0.0580 -0.0336 0.9978
vn 0.1702 0.0572 0.9837
vn -0.1090 -0.0261 0.9937
vn -0.5427 -0.2839 0.7905
vn -0.7976 -0.3965 0.4546
vn -0.5427 -0.2839 -0.7905
vn -0.7976 -0.3965 -0.4546
vn -0.1090 -0.0261 -0.9937
vn -0.1897 0.1569 -0.9692
vn 0.1914 0.1103 -0.9753
vn -0.1897 0.1569 0.9692
vn -0.6956 0.2584 0.6704
vn -0.5478 0.2251 0.8058
vn -0.5478 0.2251 -0.8058
vn -0.6956 0.2584 -0.6704
vn 0.9098 0.1069 0.4011
vn 0.9196 0.0624 0.3880
vn -0.6693 -0.0201 0.7427
vn -0.9998 -0.0191 -0.0000
vn -0.6693 -0.0201 -0.7427
vn 0.0580 -0.0336 -0.9978
vn -0.8664 0.2885 -0.4077
vn 0.1702 0.0572 -0.9837
vn 0.3443 0.1088 -0.9325
vn 0.3591 0.0700 -0.9307
vn 0.9978 -0.0667 0.0000
vn 0.7279 -0.0551 0.6834
vn 0.6953 -0.3071 0.6497
vn 0.9184 -0.3957 0.0000
vn 0.3801 -0.1777 0.9077
vn -0.6349 0.2849 0.7181
vn -0.3752 0.1599 0.9130
vn -0.9069 0.4213 -0.0000
vn -0.6349 0.2849 -0.7181
vn -0.3752 0.1599 -0.9130
vn 0.7279 -0.0551 -0.6834
vn 0.6953 -0.3071 -0.6497
vn 0.3801 -0.1777 -0.9077
vn 0.5613 -0.7549 0.3393
vn 0.5931 -0.8052 0.0000
vn 0.2453 -0.3331 0.9104
vn 0.2436 -0.3342 0.9105
vn -0.3922 0.5647 0.7261
vn -0.2379 0.3331 0.9124
vn -0.5621 0.8271 0.0000
vn -0.3922 0.5647 -0.7261
vn -0.2378 0.3331 -0.9124
vn 0.2436 -0.3342 -0.9105
vn 0.2453 -0.3331 -0.9104
vn 0.5613 -0.7549 -0.3393
vn -0.0046 -0.7610 0.6488
vn -0.0035 -1.0000 -0.0000
vn -0.0079 -0.4040 0.9147
vn 0.0093 0.6886 0.7251
vn -0.0005 0.4105 0.9119
vn 0.0187 0.9998 0.0000
vn 0.0093 0.6886 -0.7251
vn -0.0005 0.4105 -0.9119
vn -0.0046 -0.7610 -0.6488
vn -0.0079 -0.4040 -0.9147
vn -0.4485 -0.6257 0.6382
vn -0.5807 -0.8141 -0.0000
vn -0.2558 -0.3494 0.9014
vn 0.4026 0.5925 0.6978
vn 0.2443 0.3626 0.8993
vn 0.5593 0.8290 0.0000
vn 0.4026 0.5925 -0.6978
vn 0.2443 0.3626 -0.8993
vn -0.4485 -0.6257 -0.6382
vn -0.2558 -0.3494 -0.9014
vn -0.6844 -0.3572 0.6356
vn -0.8940 -0.4480 -0.0000
vn -0.3869 -0.2169 0.8963
vn 0.6408 0.3447 0.6860
vn 0.3944 0.2012 0.8966
vn 0.8772 0.4801 0.0000
vn 0.6408 0.3447 -0.6860
vn 0.3944 0.2012 -0.8966
vn -0.6844 -0.3572 -0.6356
vn -0.3869 -0.2169 -0.8963
vn -0.0230 -0.8937 -0.4482
vn 0.0168 -0.9271 -0.3743
vn 0.0948 -0.9955 -0.0000
vn -0.2105 -0.7493 -0.6279
vn -0.1912 -0.7597 -0.6216
vn -0.2105 -0.7492 0.6280
vn -0.1912 -0.7597 0.6216
vn -0.5378 -0.6943 0.4782
vn -0.4490 -0.7033 0.5511
vn 0.3591 0.0700 0.9307
vn 0.3443 0.1088 0.9325
vn 0.1914 0.1103 0.9753
vn 0.0168 -0.9271 0.3743
vn -0.0230 -0.8937 0.4482
vn -0.8664 0.2885 0.4077
vn 0.2374 -0.0004 -0.9714
vn 0.4477 0.0010 -0.8942
vn -0.9709 0.2394 -0.0000
vn -0.9709 0.2395 -0.0000
vn -0.2738 0.0265 -0.9614
vn -0.3553 0.0427 -0.9338
vn 0.1320 -0.0493 -0.9900
vn 0.1733 -0.0564 -0.9833
vn 0.6591 -0.1385 -0.7392
vn 0.6055 -0.1298 -0.7852
vn 0.8676 -0.1700 -0.4674
vn 0.1733 -0.0564 0.9833
vn 0.1319 -0.0492 0.9900
vn -0.3557 0.0425 0.9336
vn -0.2738 0.0264 0.9614
vn 0.6591 -0.1385 0.7392
vn 0.6055 -0.1298 0.7852
vn -0.4490 -0.7033 -0.5511
vn -0.5378 -0.6944 -0.4781
vn -0.7553 -0.6554 0.0000
vn -0.7085 -0.6610 -0.2470
vn -0.7001 -0.6627 -0.2657
vn -0.7001 -0.6627 0.2658
vn -0.7085 -0.6610 0.2470
vn 0.3923 0.9193 -0.0318
vn 0.3892 0.9211 -0.0122
vn 0.3886 0.9214 -0.0089
vn 0.3880 0.9216 -0.0000
vn 0.3892 0.9211 0.0122
vn 0.3924 0.9192 0.0320
vn 0.3886 0.9214 0.0089
vn -0.9862 0.1655 -0.0003
vn -0.9862 0.1655 -0.0002
vn -0.8107 0.1321 -0.5704
vn -0.7814 0.1264 -0.6111
vn -0.7817 0.1261 0.6108
vn -0.8110 0.1318 0.5700
vn 0.8676 -0.1701 0.4674
vn -0.4082 -0.9129 -0.0034
vn -0.3727 -0.9280 -0.0034
vn -0.3987 -0.9171 -0.0034
vn -0.4243 -0.9055 -0.0034
vn -0.9835 0.1807 -0.0001
vn -0.9836 0.1806 -0.0001
vn -0.9966 -0.0818 -0.0005
vn -0.9966 -0.0819 -0.0005
vn -0.9866 -0.1632 -0.0010
vn -0.8733 0.4871 -0.0001
vn -0.8733 0.4872 -0.0001
vn 0.2742 -0.0628 -0.9596
vn 0.4856 -0.0955 -0.8690
vn -0.8424 0.5388 -0.0001
usemtl tools
s 1
f 12/1/1 13/2/2 7/3/3 2/4/4
f 13/2/2 14/5/5 3/6/6 7/3/3
f 14/5/5 15/7/7 6/8/8 3/6/6
f 16/9/9 12/1/1 2/4/4 5/10/10
f 8/11/11 10/12/11 2/4/11 7/3/11
f 9/13/11 8/11/11 7/3/11 3/6/11
f 11/14/11 9/13/11 3/6/11 6/8/11
f 4/15/11 9/16/11 11/17/11
f 10/12/11 17/18/11 5/10/11 2/4/11
f 153/19/11 148/20/11 150/21/11
f 152/22/12 149/23/13 147/24/13 151/25/14
f 151/26/14 147/27/15 146/28/15
f 6/29/16 15/30/16 11/17/16
f 15/30/16 1/31/16 4/15/16 11/17/16
f 4/15/11 8/32/11 9/16/11
f 4/15/11 10/33/11 8/32/11
f 1/31/15 12/34/1 16/35/9
f 1/31/15 15/30/7 14/36/5
f 1/31/15 14/36/5 13/37/2
f 1/31/15 13/37/2 12/34/1
f 4/15/11 17/38/11 10/33/11
f 18/39/17 19/40/18 27/41/19 26/42/20
f 19/40/21 20/43/22 28/44/23 27/41/19
f 20/45/22 21/46/24 29/47/25 28/48/23
f 21/46/24 22/49/26 30/50/27 29/47/25
f 22/49/26 23/51/28 31/52/29 30/50/30
f 23/51/28 24/53/31 32/54/32 31/52/29
f 24/55/31 25/56/33 33/57/34 32/58/32
f 25/56/35 18/39/17 26/42/20 33/57/34
f 26/42/20 27/41/19 35/59/36 34/60/37
f 27/41/19 28/44/23 36/61/38 35/59/36
f 28/48/23 29/47/25 37/62/39 36/63/38
f 29/47/25 30/50/27 38/64/40 37/62/39
f 30/50/30 31/52/29 39/65/41 38/64/42
f 31/52/29 32/54/32 40/66/43 39/65/41
f 32/58/32 33/57/34 41/67/44 40/68/43
f 33/57/34 26/42/20 34/60/45 41/67/44
f 34/60/37 35/59/36 43/69/46 42/70/47
f 35/59/36 36/61/38 44/71/48 43/69/46
f 36/63/38 37/62/39 45/72/49 44/73/48
f 37/62/39 38/64/40 46/74/50 45/72/49
f 38/64/42 39/65/41 47/75/51 46/74/52
f 39/65/41 40/66/43 48/76/53 47/75/51
f 40/68/43 41/67/44 49/77/54 48/78/53
f 41/67/44 34/60/45 42/70/55 49/77/54
f 42/70/47 43/69/46 51/79/56 50/80/57
f 43/69/46 44/71/48 52/81/58 51/79/56
f 44/73/48 45/72/49 53/82/59 52/83/58
f 45/72/49 46/74/50 54/84/60 53/82/59
f 46/74/52 47/75/51 55/85/61 54/84/62
f 47/75/51 48/76/53 56/86/63 55/85/61
f 48/78/53 49/77/54 57/87/64 56/88/63
f 49/77/54 42/70/55 50/80/65 57/87/64
f 124/89/66 120/90/67 118/91/67 121/92/68
f 65/93/69 125/94/70 58/95/71
f 52/83/58 53/82/59 59/96/72 58/97/71
f 53/82/59 54/84/60 60/98/73 59/96/72
f 54/84/62 55/85/61 61/99/74 60/98/75
f 55/85/61 56/86/63 62/100/76 61/99/74
f 56/88/63 113/101/77 117/102/78 62/103/76
f 52/81/58 115/104/79 112/105/80 51/79/81
f 57/87/82 114/106/83 113/101/77 56/88/63
f 121/92/68 118/91/84 119/107/84 122/108/85
f 58/97/71 59/96/72 66/109/86 65/110/69
f 59/96/72 60/98/73 67/111/87 66/109/86
f 60/98/75 61/99/74 68/112/88 67/111/87
f 61/99/74 62/100/76 69/113/89 68/112/88
f 50/80/90 111/114/90 114/106/83 57/87/82
f 123/115/91 117/116/78 120/90/92 124/89/93
f 63/117/94 64/118/95 72/119/96 71/120/97
f 64/118/95 65/93/69 73/121/98 72/119/96
f 65/110/69 66/109/86 74/122/99 73/123/100
f 66/109/86 67/111/87 75/124/101 74/122/99
f 67/111/87 68/112/88 76/125/102 75/124/101
f 68/112/88 69/113/89 77/126/103 76/125/102
f 69/127/89 70/128/104 78/129/105 77/130/106
f 70/128/104 63/117/94 71/120/97 78/129/105
f 71/120/97 72/119/96 80/131/107 79/132/108
f 72/119/96 73/121/98 81/133/109 80/131/110
f 73/123/100 74/122/99 82/134/111 81/135/112
f 74/122/99 75/124/101 83/136/113 82/134/111
f 75/124/101 76/125/102 84/137/114 83/136/113
f 76/125/102 77/126/103 85/138/115 84/137/114
f 77/130/106 78/129/105 86/139/116 85/140/117
f 78/129/105 71/120/97 79/132/108 86/139/118
f 79/132/108 80/131/107 88/141/119 87/142/120
f 80/131/110 81/133/109 89/143/121 88/141/119
f 81/135/112 82/134/111 90/144/122 89/145/123
f 82/134/111 83/136/113 91/146/124 90/144/122
f 83/136/113 84/137/114 92/147/125 91/146/124
f 84/137/114 85/138/115 93/148/126 92/147/125
f 85/140/117 86/139/116 94/149/127 93/150/128
f 86/139/118 79/132/108 87/142/120 94/149/127
f 87/142/120 88/141/119 96/151/129 95/152/130
f 88/141/119 89/143/121 97/153/131 96/151/129
f 89/145/123 90/144/122 98/154/132 97/155/133
f 90/144/122 91/146/124 99/156/134 98/154/132
f 91/146/124 92/147/125 100/157/135 99/156/134
f 92/147/125 93/148/126 101/158/136 100/157/135
f 93/150/128 94/149/127 102/159/137 101/160/138
f 94/149/127 87/142/120 95/152/130 102/159/137
f 95/152/130 96/151/129 104/161/139 103/162/140
f 96/151/129 97/153/131 105/163/141 104/161/139
f 97/155/133 98/154/132 106/164/142 105/165/143
f 98/154/132 99/156/134 107/166/144 106/164/142
f 99/156/134 100/157/135 108/167/145 107/166/144
f 100/157/135 101/158/136 109/168/146 108/167/145
f 101/160/138 102/159/137 110/169/147 109/170/148
f 102/159/137 95/152/130 103/162/140 110/169/147
f 103/162/140 104/161/139 19/40/18 18/39/17
f 104/161/139 105/163/141 20/43/22 19/40/21
f 105/165/143 106/164/142 21/46/24 20/45/22
f 106/164/142 107/166/144 22/49/26 21/46/24
f 107/166/144 108/167/145 23/51/28 22/49/26
f 108/167/145 109/168/146 24/53/31 23/51/28
f 109/170/148 110/169/147 25/56/33 24/55/31
f 110/169/147 103/162/140 18/39/17 25/56/35
f 120/90/149 135/171/150 133/172/151 118/91/151
f 117/116/152 132/173/153 135/171/150 120/90/149
f 116/174/154 131/175/155 130/176/156 115/104/157
f 122/108/158 119/107/159 116/177/160 125/94/70
f 118/91/151 133/172/151 134/178/161 119/107/162
f 58/95/71 116/174/160 115/104/79 52/81/58
f 58/95/71 125/94/70 116/177/160
f 62/103/76 123/115/91 69/127/89
f 64/118/95 122/108/158 125/94/70 65/93/69
f 69/127/89 123/115/91 124/89/93 70/128/104
f 63/117/94 121/92/68 122/108/85 64/118/95
f 117/102/78 123/115/91 62/103/76
f 70/128/104 124/89/66 121/92/68 63/117/94
f 51/79/81 112/105/80 111/114/163 50/80/163
f 162/179/164 16/9/9 5/10/10 160/180/165
f 168/181/166 4/15/16 1/31/16 166/182/167
f 128/183/168 138/184/169 142/185/170 132/186/171
f 135/171/172 145/187/173 143/188/174 133/172/174
f 131/175/175 141/189/176 140/190/177 130/176/178
f 134/178/179 144/191/180 141/192/176 131/193/175
f 113/101/181 128/183/182 132/186/153 117/102/152
f 119/107/162 134/178/161 131/193/155 116/177/154
f 111/114/183 126/194/183 129/195/184 114/106/185
f 112/105/186 127/196/187 126/194/183 111/114/183
f 115/104/157 130/176/156 127/196/187 112/105/186
f 114/106/185 129/195/184 128/183/182 113/101/181
f 142/197/188 138/184/188 139/198/189 145/187/190
f 139/198/189 136/199/191 143/188/191 145/187/190
f 137/200/192 140/190/193 141/189/193 144/191/194
f 136/199/191 137/200/192 144/191/194 143/188/191
f 126/194/195 136/199/196 139/198/197 129/195/198
f 127/196/199 137/200/200 136/199/196 126/194/195
f 130/176/178 140/190/177 137/200/200 127/196/199
f 132/173/171 142/197/170 145/187/173 135/171/172
f 129/195/198 139/198/197 138/184/169 128/183/168
f 133/172/201 143/188/201 144/191/180 134/178/179
f 153/201/11 150/202/11 149/23/11 152/22/11
f 147/27/202 149/203/203 150/21/204
f 146/28/205 147/27/202 150/21/204 148/20/205
f 153/204/11 157/205/11 148/20/11
f 164/206/11 17/38/11 4/15/11 168/181/11
f 162/207/164 166/182/15 1/31/15 16/35/9
f 160/180/11 5/10/11 17/18/11 164/208/11
f 159/209/206 156/210/207 154/211/208 157/205/209
f 146/28/15 154/211/15 151/26/14
f 148/20/210 157/205/209 154/211/208 146/28/210
f 151/212/14 155/213/15 167/214/15
f 155/213/211 156/210/207 159/209/206 158/215/212
f 158/215/11 153/204/11 169/216/11
f 151/26/14 156/210/15 155/213/15
f 151/26/14 154/211/15 156/210/15
f 152/22/12 151/25/14 163/217/213 161/218/214
f 153/204/11 158/215/11 159/209/11
f 153/204/11 159/209/11 157/205/11
f 160/180/165 161/218/214 163/217/213 162/179/164
f 152/22/11 161/218/11 165/219/11 153/201/11
f 164/208/11 165/219/11 161/218/11 160/180/11
f 162/207/164 163/220/213 167/214/15 166/182/15
f 166/182/167 167/214/215 169/216/215 168/181/166
f 151/212/14 167/214/15 163/220/213
f 168/181/11 169/216/11 165/221/11 164/206/11
f 165/221/11 169/216/11 153/19/11
f 169/216/215 167/214/215 155/213/211 158/215/212
