# Blender v3.4.1 OBJ File: 'RPG_Tool_Bits_Export.blend'
# www.blender.org
mtllib screwdriver_A_short_color.mtl
o screwdriver_A_short_color
v -0.000000 0.217455 -0.000000
v -0.000000 -0.185125 -0.000000
v -0.031338 -0.132349 -0.075658
v -0.025279 -0.167669 -0.061028
v 0.031338 -0.132349 -0.075657
v 0.025278 -0.167669 -0.061028
v 0.075657 -0.132349 -0.031338
v 0.061028 -0.167669 -0.025279
v 0.075657 -0.132349 0.031338
v 0.061028 -0.167669 0.025279
v 0.031338 -0.132349 0.075657
v 0.025278 -0.167669 0.061028
v -0.031339 -0.132350 0.075657
v -0.025279 -0.167669 0.061028
v -0.075658 -0.132349 0.031338
v -0.061028 -0.167669 0.025279
v -0.075658 -0.132349 -0.031338
v -0.061028 -0.167669 -0.025279
v -0.022658 0.118714 -0.054700
v 0.022657 0.118714 -0.054700
v 0.054700 0.118714 -0.022658
v 0.054700 0.118714 0.022658
v 0.022657 0.118714 0.054700
v -0.022658 0.118714 0.054700
v -0.054700 0.118714 0.022658
v -0.054700 0.118714 -0.022658
v 0.010649 -0.182298 -0.025709
v -0.010649 -0.182298 -0.025709
v 0.025708 -0.182298 -0.010649
v 0.025708 -0.182298 0.010649
v 0.010649 -0.182298 0.025709
v -0.010649 -0.182298 0.025709
v -0.025709 -0.182298 0.010649
v -0.025709 -0.182298 -0.010649
v -0.031338 0.068360 -0.075658
v -0.029762 0.084458 -0.071852
v -0.026541 0.151961 -0.064075
v -0.026722 0.168431 -0.064512
v 0.026721 0.168432 -0.064512
v 0.026541 0.151961 -0.064075
v 0.029762 0.084458 -0.071852
v 0.031338 0.068360 -0.075658
v 0.064511 0.168431 -0.026722
v 0.064075 0.151961 -0.026541
v 0.071852 0.084458 -0.029762
v 0.075657 0.068360 -0.031338
v 0.064511 0.168431 0.026722
v 0.064075 0.151961 0.026541
v 0.071852 0.084458 0.029762
v 0.075657 0.068360 0.031338
v 0.026721 0.168431 0.064512
v 0.026541 0.151961 0.064075
v 0.029762 0.084458 0.071852
v 0.031338 0.068360 0.075657
v -0.026722 0.168431 0.064512
v -0.026541 0.151961 0.064075
v -0.029762 0.084458 0.071852
v -0.031339 0.068360 0.075657
v -0.064512 0.168431 0.026722
v -0.064075 0.151961 0.026541
v -0.071852 0.084458 0.029762
v -0.075658 0.068360 0.031338
v -0.064512 0.168431 -0.026722
v -0.064075 0.151961 -0.026541
v -0.071852 0.084458 -0.029762
v -0.075658 0.068360 -0.031338
v 0.015883 0.217455 -0.038346
v 0.022685 0.211631 -0.054768
v -0.022686 0.211631 -0.054768
v -0.015884 0.217455 -0.038346
v 0.038346 0.217455 -0.015883
v 0.054768 0.211631 -0.022686
v 0.038346 0.217455 0.015883
v 0.054768 0.211631 0.022685
v 0.015883 0.217455 0.038346
v 0.022685 0.211631 0.054768
v -0.015884 0.217455 0.038346
v -0.022686 0.211631 0.054768
v -0.038346 0.217455 0.015883
v -0.054768 0.211631 0.022685
v -0.038346 0.217455 -0.015883
v -0.054768 0.211631 -0.022686
v 0.025757 0.191068 0.017514
v 0.025757 0.191068 -0.017514
v -0.025725 0.191068 -0.017514
v -0.025725 0.191068 0.017514
v -0.019111 0.403656 -0.010040
v -0.019111 0.403656 0.010040
v 0.019142 0.403656 -0.010040
v 0.019142 0.403656 0.010040
v 0.036913 0.419128 0.025131
v -0.036892 0.419128 0.025131
v -0.036892 0.419128 -0.025130
v 0.036913 0.419128 -0.025130
v 0.031281 0.502719 -0.009647
v 0.031281 0.502719 0.009647
v 0.027958 0.518285 0.000000
v -0.031261 0.502719 0.009647
v -0.031261 0.502719 -0.009647
v -0.027937 0.518285 0.000000
vt 0.304264 0.671946
vt 0.294737 0.658492
vt 0.291949 0.680459
vt 0.303110 0.693913
vt 0.319852 0.676630
vt 0.332367 0.663176
vt 0.327267 0.671946
vt 0.317739 0.685400
vt 0.302152 0.676630
vt 0.304264 0.685400
vt 0.289636 0.663176
vt 0.294737 0.671946
vt 0.289636 0.663176
vt 0.294737 0.671946
vt 0.317739 0.671946
vt 0.327267 0.658492
vt 0.330055 0.680459
vt 0.318894 0.693913
vt 0.332367 0.663176
vt 0.327267 0.671946
vt 0.305498 0.697228
vt 0.304539 0.697228
vt 0.296268 0.685276
vt 0.294737 0.658492
vt 0.291949 0.680459
vt 0.304264 0.671946
vt 0.303110 0.693913
vt 0.327267 0.658492
vt 0.330055 0.680459
vt 0.319852 0.676630
vt 0.317739 0.685400
vt 0.301683 0.621119
vt 0.301683 0.672508
vt 0.320320 0.672508
vt 0.320320 0.621119
vt 0.318519 0.612076
vt 0.303485 0.612076
vt 0.303485 0.598622
vt 0.318519 0.598622
vt 0.314168 0.581423
vt 0.307835 0.581423
vt 0.333499 0.607665
vt 0.329149 0.598622
vt 0.329149 0.585168
vt 0.318646 0.581423
vt 0.333499 0.607665
vt 0.329149 0.598622
vt 0.329149 0.585168
vt 0.318646 0.581423
vt 0.320320 0.621119
vt 0.318519 0.612076
vt 0.318519 0.598622
vt 0.314168 0.581423
vt 0.301683 0.621119
vt 0.303485 0.612076
vt 0.303485 0.598622
vt 0.307835 0.581423
vt 0.288505 0.607665
vt 0.292855 0.598622
vt 0.292855 0.585168
vt 0.303357 0.581423
vt 0.288505 0.607665
vt 0.292855 0.598622
vt 0.292855 0.585168
vt 0.303357 0.581423
vt 0.302152 0.676630
vt 0.304264 0.685400
vt 0.324290 0.697228
vt 0.326605 0.685276
vt 0.326605 0.685276
vt 0.333499 0.659054
vt 0.318334 0.697228
vt 0.333499 0.659054
vt 0.316506 0.697228
vt 0.317465 0.697228
vt 0.325736 0.685276
vt 0.320320 0.672508
vt 0.304539 0.697228
vt 0.316235 0.697228
vt 0.301683 0.672508
vt 0.297714 0.697228
vt 0.295398 0.685276
vt 0.303669 0.697228
vt 0.288505 0.659054
vt 0.295398 0.685276
vt 0.288505 0.659054
vt 0.317739 0.671946
vt 0.318894 0.693913
vt 0.311002 0.580699
vt 0.330184 0.684676
vt 0.318947 0.698130
vt 0.317747 0.709190
vt 0.327287 0.695736
vt 0.303056 0.698130
vt 0.304256 0.709190
vt 0.330184 0.684676
vt 0.327287 0.695736
vt 0.318947 0.698130
vt 0.317747 0.709190
vt 0.303056 0.698130
vt 0.304256 0.709190
vt 0.291819 0.684676
vt 0.294716 0.695736
vt 0.291819 0.684676
vt 0.294716 0.695736
vt 0.320320 0.699416
vt 0.301683 0.699416
vt 0.302152 0.703537
vt 0.319852 0.703537
vt 0.303056 0.725037
vt 0.318947 0.725037
vt 0.318894 0.720820
vt 0.303110 0.720820
vt 0.333499 0.685962
vt 0.332367 0.690084
vt 0.330184 0.711584
vt 0.330055 0.707366
vt 0.333499 0.685962
vt 0.332367 0.690083
vt 0.330184 0.711584
vt 0.330055 0.707366
vt 0.320320 0.699416
vt 0.319852 0.703537
vt 0.318947 0.725037
vt 0.318894 0.720820
vt 0.301683 0.699416
vt 0.302152 0.703537
vt 0.303056 0.725037
vt 0.303110 0.720820
vt 0.288505 0.685962
vt 0.289636 0.690084
vt 0.291819 0.711584
vt 0.291949 0.707366
vt 0.288505 0.685962
vt 0.289636 0.690084
vt 0.291819 0.711584
vt 0.291949 0.707366
vt 0.305153 0.710681
vt 0.316850 0.710681
vt 0.318106 0.709930
vt 0.326376 0.697979
vt 0.326896 0.697228
vt 0.326896 0.697228
vt 0.326376 0.697979
vt 0.318106 0.709930
vt 0.316850 0.710681
vt 0.305153 0.710681
vt 0.303898 0.709930
vt 0.295627 0.697979
vt 0.295107 0.697228
vt 0.295107 0.697228
vt 0.295627 0.697979
vt 0.303898 0.709930
vt 0.317465 0.697228
vt 0.305768 0.697228
vt 0.809613 0.623802
vt 0.809613 0.623802
vt 0.819085 0.615380
vt 0.819085 0.615380
vt 0.809613 0.686302
vt 0.813861 0.583997
vt 0.780711 0.583997
vt 0.784973 0.686302
vt 0.809613 0.639427
vt 0.813861 0.574347
vt 0.813861 0.574347
vt 0.809613 0.639427
vt 0.784973 0.686302
vt 0.780711 0.583997
vt 0.813861 0.583997
vt 0.809613 0.686302
vt 0.784973 0.639427
vt 0.780711 0.574347
vt 0.780711 0.574347
vt 0.784973 0.639427
vt 0.775487 0.677880
vt 0.819085 0.677880
vt 0.812736 0.634955
vt 0.781836 0.634955
vt 0.784973 0.623802
vt 0.784973 0.623802
vt 0.775487 0.615380
vt 0.775487 0.615380
vt 0.784973 0.670677
vt 0.809613 0.670677
vt 0.819085 0.662255
vt 0.775487 0.662255
vt 0.809613 0.670677
vt 0.784973 0.670677
vt 0.775487 0.662255
vt 0.819085 0.662255
vt 0.775487 0.631005
vt 0.775487 0.631005
vt 0.781836 0.588080
vt 0.781836 0.588080
vt 0.781836 0.697140
vt 0.781836 0.697140
vt 0.783478 0.697140
vt 0.812736 0.697140
vt 0.812736 0.697140
vt 0.811093 0.697140
vt 0.819085 0.677880
vt 0.775487 0.677880
vt 0.781836 0.634955
vt 0.812736 0.634955
vt 0.819085 0.631005
vt 0.819085 0.631005
vt 0.812736 0.588080
vt 0.812736 0.588080
vn -0.3803 0.1109 -0.9182
vn -0.9182 0.1109 -0.3803
vn -0.9125 -0.1568 -0.3780
vn -0.3780 -0.1568 -0.9125
vn 0.3577 0.3551 0.8637
vn 0.8637 0.3551 0.3577
vn 0.9182 0.1109 0.3803
vn 0.3803 0.1109 0.9182
vn -0.3577 0.3551 0.8637
vn -0.3803 0.1109 0.9182
vn -0.8637 0.3551 0.3577
vn -0.9182 0.1109 0.3803
vn -0.8637 0.3551 -0.3577
vn 0.9125 -0.1568 0.3780
vn 0.3780 -0.1568 0.9125
vn 0.8637 0.3551 -0.3577
vn 0.9182 0.1109 -0.3803
vn 0.0000 1.0000 -0.0000
vn -0.0748 0.9807 -0.1807
vn -0.1807 0.9807 -0.0748
vn -0.9125 -0.1568 0.3780
vn -0.3780 -0.1568 0.9125
vn 0.9125 -0.1568 -0.3780
vn 0.3577 0.3551 -0.8637
vn 0.3803 0.1109 -0.9182
vn -0.3750 -0.1994 -0.9053
vn -0.3799 0.1213 -0.9171
vn 0.3799 0.1213 -0.9171
vn 0.3750 -0.1994 -0.9053
vn 0.2797 -0.6824 -0.6753
vn -0.2797 -0.6824 -0.6753
vn 0.1002 -0.9651 -0.2419
vn -0.1002 -0.9651 -0.2419
vn 0.9053 -0.1994 -0.3750
vn 0.6753 -0.6824 -0.2797
vn 0.2419 -0.9651 -0.1002
vn 0.9053 -0.1994 0.3750
vn 0.6753 -0.6824 0.2797
vn 0.2419 -0.9651 0.1002
vn 0.3750 -0.1994 0.9053
vn 0.2797 -0.6824 0.6753
vn 0.1002 -0.9651 0.2419
vn -0.3750 -0.1994 0.9053
vn -0.2797 -0.6824 0.6753
vn -0.1002 -0.9651 0.2419
vn -0.9053 -0.1994 0.3750
vn -0.6753 -0.6824 0.2797
vn -0.2419 -0.9651 0.1002
vn -0.9053 -0.1994 -0.3750
vn -0.6753 -0.6824 -0.2797
vn -0.2419 -0.9651 -0.1002
vn -0.3577 0.3551 -0.8637
vn 0.1807 0.9807 0.0748
vn 0.1807 0.9807 -0.0748
vn 0.9171 0.1213 -0.3799
vn 0.0748 0.9807 -0.1807
vn 0.9171 0.1213 0.3799
vn 0.0748 0.9807 0.1807
vn 0.3799 0.1213 0.9171
vn -0.0748 0.9807 0.1807
vn -0.3799 0.1213 0.9171
vn -0.1807 0.9807 0.0748
vn -0.9171 0.1213 0.3799
vn -0.9171 0.1213 -0.3799
vn 0.3780 -0.1568 -0.9125
vn -0.0000 -1.0000 -0.0000
vn 0.9191 0.1019 -0.3807
vn 0.3807 0.1019 -0.9191
vn 0.3718 0.2372 -0.8975
vn 0.8975 0.2372 -0.3718
vn -0.3807 0.1019 -0.9191
vn -0.3718 0.2372 -0.8975
vn 0.9191 0.1019 0.3807
vn 0.8975 0.2372 0.3718
vn 0.3807 0.1019 0.9191
vn 0.3718 0.2372 0.8975
vn -0.3807 0.1019 0.9191
vn -0.3718 0.2372 0.8975
vn -0.9191 0.1019 0.3807
vn -0.8975 0.2372 0.3718
vn -0.9191 0.1019 -0.3807
vn -0.8975 0.2372 -0.3718
vn 0.1192 0.9503 -0.2877
vn -0.1192 0.9503 -0.2877
vn 0.2877 0.9503 -0.1192
vn 0.2877 0.9503 0.1192
vn 0.1192 0.9503 0.2877
vn -0.1192 0.9503 0.2877
vn -0.2877 0.9503 0.1192
vn -0.2877 0.9503 -0.1192
vn -0.6564 -0.7544 0.0000
vn 0.0000 0.0351 0.9994
vn -0.9995 0.0311 0.0000
vn 0.0000 0.0351 -0.9994
vn 0.9995 0.0311 0.0000
vn -0.0000 0.1821 -0.9833
vn -0.0000 0.3464 -0.9381
vn 0.6566 -0.7542 0.0000
vn 0.0000 -0.6982 -0.7159
vn 0.0000 -0.6982 0.7159
vn 0.9977 0.0672 0.0000
vn 0.9928 0.1198 0.0000
vn -0.9928 0.1198 0.0000
vn -0.9780 0.2088 0.0000
vn 0.9780 0.2088 0.0000
vn 0.0000 0.5268 -0.8500
vn 0.0000 0.5268 0.8500
vn -0.0000 0.3464 0.9381
vn -0.0000 0.1821 0.9833
vn -0.9977 0.0672 0.0000
usemtl tools
s 1
f 19/1/1 26/2/2 64/3/3 37/4/4
f 53/5/5 49/6/6 22/7/7 23/8/8
f 57/9/9 53/5/5 23/8/8 24/10/10
f 61/11/11 57/9/9 24/10/10 25/12/12
f 65/13/13 61/11/11 25/12/12 26/14/2
f 23/15/8 22/16/7 48/17/14 52/18/15
f 49/6/6 45/19/16 21/20/17 22/7/7
f 1/21/18 70/22/19 81/23/20
f 26/2/2 25/24/12 60/25/21 64/3/3
f 24/26/10 23/15/8 52/18/15 56/27/22
f 22/16/7 21/28/17 44/29/23 48/17/14
f 25/24/12 24/26/10 56/27/22 60/25/21
f 45/19/16 41/30/24 20/31/25 21/20/17
f 3/32/26 35/33/27 42/34/28 5/35/29
f 3/32/26 5/35/29 6/36/30 4/37/31
f 4/38/31 6/39/30 27/40/32 28/41/33
f 5/35/29 7/42/34 8/43/35 6/36/30
f 6/39/30 8/44/35 29/45/36 27/40/32
f 7/42/34 9/46/37 10/47/38 8/43/35
f 8/44/35 10/48/38 30/49/39 29/45/36
f 9/46/37 11/50/40 12/51/41 10/47/38
f 10/48/38 12/52/41 31/53/42 30/49/39
f 11/50/40 13/54/43 14/55/44 12/51/41
f 12/52/41 14/56/44 32/57/45 31/53/42
f 13/54/43 15/58/46 16/59/47 14/55/44
f 14/56/44 16/60/47 33/61/48 32/57/45
f 15/58/46 17/62/49 18/63/50 16/59/47
f 16/60/47 18/64/50 34/65/51 33/61/48
f 17/62/49 3/32/26 4/37/31 18/63/50
f 18/64/50 4/38/31 28/41/33 34/65/51
f 36/66/52 65/13/13 26/14/2 19/67/1
f 1/68/18 73/69/53 71/70/54
f 5/35/29 42/34/28 46/71/55 7/42/34
f 1/68/18 71/70/54 67/72/56
f 7/42/34 46/71/55 50/73/57 9/46/37
f 1/74/18 75/75/58 73/76/53
f 9/46/37 50/73/57 54/77/59 11/50/40
f 1/21/18 77/78/60 75/79/58
f 11/50/40 54/77/59 58/80/61 13/54/43
f 1/81/18 79/82/62 77/83/60
f 13/54/43 58/80/61 62/84/63 15/58/46
f 1/81/18 81/85/20 79/82/62
f 15/58/46 62/84/63 66/86/64 17/62/49
f 17/62/49 66/86/64 35/33/27 3/32/26
f 20/87/25 19/1/1 37/4/4 40/88/65
f 21/28/17 20/87/25 40/88/65 44/29/23
f 2/89/66 28/41/33 27/40/32
f 2/89/66 27/40/32 29/45/36
f 2/89/66 29/45/36 30/49/39
f 2/89/66 30/49/39 31/53/42
f 2/89/66 31/53/42 32/57/45
f 2/89/66 32/57/45 33/61/48
f 2/89/66 33/61/48 34/65/51
f 2/89/66 34/65/51 28/41/33
f 43/90/67 39/91/68 68/92/69 72/93/70
f 39/91/68 38/94/71 69/95/72 68/92/69
f 47/96/73 43/90/67 72/93/70 74/97/74
f 51/98/75 47/96/73 74/97/74 76/99/76
f 55/100/77 51/98/75 76/99/76 78/101/78
f 59/102/79 55/100/77 78/101/78 80/103/80
f 63/104/81 59/102/79 80/103/80 82/105/82
f 38/94/71 63/104/81 82/105/82 69/95/72
f 42/106/28 35/107/27 36/108/52 41/109/24
f 38/110/71 39/111/68 40/112/65 37/113/4
f 46/114/55 42/106/28 41/109/24 45/115/16
f 39/111/68 43/116/67 44/117/23 40/112/65
f 50/118/57 46/114/55 45/115/16 49/119/6
f 43/116/67 47/120/73 48/121/14 44/117/23
f 54/122/59 50/118/57 49/119/6 53/123/5
f 47/120/73 51/124/75 52/125/15 48/121/14
f 58/126/61 54/122/59 53/123/5 57/127/9
f 51/124/75 55/128/77 56/129/22 52/125/15
f 62/130/63 58/126/61 57/127/9 61/131/11
f 55/128/77 59/132/79 60/133/21 56/129/22
f 66/134/64 62/130/63 61/131/11 65/135/13
f 59/132/79 63/136/81 64/137/3 60/133/21
f 35/107/27 66/134/64 65/135/13 36/108/52
f 63/136/81 38/110/71 37/113/4 64/137/3
f 41/30/24 36/66/52 19/67/1 20/31/25
f 68/92/83 69/95/84 70/138/19 67/139/56
f 72/93/85 68/92/83 67/140/56 71/141/54
f 74/97/86 72/93/85 71/142/54 73/143/53
f 76/99/87 74/97/86 73/144/53 75/145/58
f 78/101/88 76/99/87 75/146/58 77/147/60
f 80/103/89 78/101/88 77/148/60 79/149/62
f 82/105/90 80/103/89 79/150/62 81/151/20
f 69/95/84 82/105/90 81/152/20 70/153/19
f 1/74/18 67/154/56 70/155/19
f 87/156/91 88/157/91 92/158/91 93/159/91
f 88/160/92 86/161/92 83/162/92 90/163/92
f 87/164/93 85/165/93 86/166/93 88/167/93
f 89/168/94 84/169/94 85/170/94 87/171/94
f 90/172/95 83/173/95 84/174/95 89/175/95
f 94/176/96 93/177/96 99/178/97 95/179/97
f 90/180/98 89/181/98 94/182/98 91/183/98
f 89/184/99 87/185/99 93/186/99 94/187/99
f 88/188/100 90/189/100 91/190/100 92/191/100
f 91/192/101 94/193/101 95/194/102 96/195/102
f 99/196/103 98/197/103 100/198/104
f 96/199/102 95/200/102 97/201/105
f 95/200/97 99/196/97 100/198/106 97/201/106
f 97/201/107 100/198/107 98/197/108 96/199/108
f 92/202/109 91/203/109 96/204/108 98/205/108
f 93/206/110 92/207/110 98/208/103 99/209/103
