# Blender v3.4.1 OBJ File: 'RPG_Tool_Bits_Export.blend'
# www.blender.org
mtllib screwdriver_B_long_color.mtl
o screwdriver_B_long_color
v -0.000000 0.217455 -0.000000
v -0.000000 -0.185125 -0.000000
v -0.031338 -0.132349 -0.075658
v -0.025279 -0.167669 -0.061028
v 0.031338 -0.132349 -0.075657
v 0.025278 -0.167669 -0.061028
v 0.075657 -0.132349 -0.031338
v 0.061028 -0.167669 -0.025279
v 0.075657 -0.132349 0.031338
v 0.061028 -0.167669 0.025279
v 0.031338 -0.132349 0.075657
v 0.025278 -0.167669 0.061028
v -0.031339 -0.132350 0.075657
v -0.025279 -0.167669 0.061028
v -0.075658 -0.132349 0.031338
v -0.061028 -0.167669 0.025279
v -0.075658 -0.132349 -0.031338
v -0.061028 -0.167669 -0.025279
v -0.022658 0.118714 -0.054700
v 0.022657 0.118714 -0.054700
v 0.054700 0.118714 -0.022658
v 0.054700 0.118714 0.022658
v 0.022657 0.118714 0.054700
v -0.022658 0.118714 0.054700
v -0.054700 0.118714 0.022658
v -0.054700 0.118714 -0.022658
v 0.010649 -0.182298 -0.025709
v -0.010649 -0.182298 -0.025709
v 0.025708 -0.182298 -0.010649
v 0.025708 -0.182298 0.010649
v 0.010649 -0.182298 0.025709
v -0.010649 -0.182298 0.025709
v -0.025709 -0.182298 0.010649
v -0.025709 -0.182298 -0.010649
v -0.031338 0.068360 -0.075658
v -0.029762 0.084458 -0.071852
v -0.026541 0.151961 -0.064075
v -0.026722 0.168431 -0.064512
v 0.026721 0.168432 -0.064512
v 0.026541 0.151961 -0.064075
v 0.029762 0.084458 -0.071852
v 0.031338 0.068360 -0.075658
v 0.064511 0.168431 -0.026722
v 0.064075 0.151961 -0.026541
v 0.071852 0.084458 -0.029762
v 0.075657 0.068360 -0.031338
v 0.064511 0.168431 0.026722
v 0.064075 0.151961 0.026541
v 0.071852 0.084458 0.029762
v 0.075657 0.068360 0.031338
v 0.026721 0.168431 0.064512
v 0.026541 0.151961 0.064075
v 0.029762 0.084458 0.071852
v 0.031338 0.068360 0.075657
v -0.026722 0.168431 0.064512
v -0.026541 0.151961 0.064075
v -0.029762 0.084458 0.071852
v -0.031339 0.068360 0.075657
v -0.064512 0.168431 0.026722
v -0.064075 0.151961 0.026541
v -0.071852 0.084458 0.029762
v -0.075658 0.068360 0.031338
v -0.064512 0.168431 -0.026722
v -0.064075 0.151961 -0.026541
v -0.071852 0.084458 -0.029762
v -0.075658 0.068360 -0.031338
v 0.015883 0.217455 -0.038346
v 0.022685 0.211631 -0.054768
v -0.022686 0.211631 -0.054768
v -0.015884 0.217455 -0.038346
v 0.038346 0.217455 -0.015883
v 0.054768 0.211631 -0.022686
v 0.038346 0.217455 0.015883
v 0.054768 0.211631 0.022685
v 0.015883 0.217455 0.038346
v 0.022685 0.211631 0.054768
v -0.015884 0.217455 0.038346
v -0.022686 0.211631 0.054768
v -0.038346 0.217455 0.015883
v -0.054768 0.211631 0.022685
v -0.038346 0.217455 -0.015883
v -0.054768 0.211631 -0.022686
v -0.009351 0.658068 0.009352
v -0.026507 0.638068 0.009352
v 0.009351 0.638068 0.026507
v 0.009351 0.658068 0.009352
v 0.026506 0.191068 0.009351
v 0.009351 0.191068 0.026506
v 0.009351 0.598068 0.009352
v 0.009351 0.191068 -0.026506
v 0.026506 0.191068 -0.009351
v 0.009351 0.598068 -0.009351
v -0.026506 0.191068 -0.009351
v -0.009351 0.191068 -0.026506
v -0.009351 0.598068 -0.009351
v -0.009351 0.191068 0.026506
v -0.026506 0.191068 0.009351
v -0.009351 0.598068 0.009352
v 0.009351 0.578068 0.026507
v 0.026506 0.578068 0.009352
v 0.026506 0.578068 -0.009351
v 0.009351 0.578068 -0.026506
v -0.009351 0.578068 -0.026506
v -0.026507 0.578068 -0.009351
v -0.026507 0.578068 0.009352
v -0.009351 0.578068 0.026507
v -0.009351 0.658068 -0.009351
v 0.009351 0.658068 -0.009351
v 0.026506 0.638068 -0.009351
v -0.009351 0.638068 0.026507
v -0.026507 0.638068 -0.009351
v 0.026506 0.638068 0.009352
v 0.009351 0.638068 -0.026506
v -0.009351 0.638068 -0.026506
v -0.000000 0.668511 0.000000
vt 0.429264 0.671946
vt 0.419737 0.658492
vt 0.416949 0.680459
vt 0.428110 0.693913
vt 0.444852 0.676630
vt 0.457367 0.663176
vt 0.452267 0.671946
vt 0.442739 0.685400
vt 0.427152 0.676630
vt 0.429264 0.685400
vt 0.414636 0.663176
vt 0.419737 0.671946
vt 0.414636 0.663176
vt 0.419737 0.671946
vt 0.442739 0.671946
vt 0.452267 0.658492
vt 0.455055 0.680459
vt 0.443894 0.693913
vt 0.457367 0.663176
vt 0.452267 0.671946
vt 0.430498 0.697228
vt 0.429539 0.697228
vt 0.421268 0.685276
vt 0.419737 0.658492
vt 0.416949 0.680459
vt 0.429264 0.671946
vt 0.428110 0.693913
vt 0.452267 0.658492
vt 0.455055 0.680459
vt 0.444852 0.676630
vt 0.442739 0.685400
vt 0.426683 0.621119
vt 0.426683 0.672508
vt 0.445320 0.672508
vt 0.445320 0.621119
vt 0.443519 0.612076
vt 0.428485 0.612076
vt 0.428485 0.598622
vt 0.443519 0.598622
vt 0.439168 0.581423
vt 0.432835 0.581423
vt 0.458499 0.607665
vt 0.454149 0.598622
vt 0.454149 0.585168
vt 0.443646 0.581423
vt 0.458499 0.607665
vt 0.454149 0.598622
vt 0.454149 0.585168
vt 0.443646 0.581423
vt 0.445320 0.621119
vt 0.443519 0.612076
vt 0.443519 0.598622
vt 0.439168 0.581423
vt 0.426683 0.621119
vt 0.428485 0.612076
vt 0.428485 0.598622
vt 0.432835 0.581423
vt 0.413505 0.607665
vt 0.417855 0.598622
vt 0.417855 0.585168
vt 0.428357 0.581423
vt 0.413505 0.607665
vt 0.417855 0.598622
vt 0.417855 0.585168
vt 0.428357 0.581423
vt 0.427152 0.676630
vt 0.429264 0.685400
vt 0.449290 0.697228
vt 0.451605 0.685276
vt 0.451605 0.685276
vt 0.458499 0.659054
vt 0.443334 0.697228
vt 0.458499 0.659054
vt 0.441506 0.697228
vt 0.442465 0.697228
vt 0.450736 0.685276
vt 0.445320 0.672508
vt 0.429539 0.697228
vt 0.441235 0.697228
vt 0.426683 0.672508
vt 0.422714 0.697228
vt 0.420398 0.685276
vt 0.428669 0.697228
vt 0.413505 0.659054
vt 0.420398 0.685276
vt 0.413505 0.659054
vt 0.442739 0.671946
vt 0.443894 0.693913
vt 0.436002 0.580699
vt 0.455184 0.684676
vt 0.443947 0.698130
vt 0.442747 0.709190
vt 0.452287 0.695736
vt 0.428056 0.698130
vt 0.429256 0.709190
vt 0.455184 0.684676
vt 0.452287 0.695736
vt 0.443947 0.698130
vt 0.442747 0.709190
vt 0.428056 0.698130
vt 0.429256 0.709190
vt 0.416819 0.684676
vt 0.419716 0.695736
vt 0.416819 0.684676
vt 0.419716 0.695736
vt 0.445320 0.699416
vt 0.426683 0.699416
vt 0.427152 0.703537
vt 0.444852 0.703537
vt 0.428056 0.725037
vt 0.443947 0.725037
vt 0.443894 0.720820
vt 0.428110 0.720820
vt 0.458499 0.685962
vt 0.457367 0.690084
vt 0.455184 0.711584
vt 0.455055 0.707366
vt 0.458499 0.685962
vt 0.457367 0.690083
vt 0.455184 0.711584
vt 0.455055 0.707366
vt 0.445320 0.699416
vt 0.444852 0.703537
vt 0.443947 0.725037
vt 0.443894 0.720820
vt 0.426683 0.699416
vt 0.427152 0.703537
vt 0.428056 0.725037
vt 0.428110 0.720820
vt 0.413505 0.685962
vt 0.414636 0.690084
vt 0.416819 0.711584
vt 0.416949 0.707366
vt 0.413505 0.685962
vt 0.414636 0.690084
vt 0.416819 0.711584
vt 0.416949 0.707366
vt 0.430153 0.710681
vt 0.441850 0.710681
vt 0.443106 0.709930
vt 0.451376 0.697979
vt 0.451896 0.697228
vt 0.451896 0.697228
vt 0.451376 0.697979
vt 0.443106 0.709930
vt 0.441850 0.710681
vt 0.430153 0.710681
vt 0.428898 0.709930
vt 0.420627 0.697979
vt 0.420107 0.697228
vt 0.420107 0.697228
vt 0.420627 0.697979
vt 0.428898 0.709930
vt 0.442465 0.697228
vt 0.430768 0.697228
vt 0.825869 0.570323
vt 0.825869 0.570323
vt 0.825869 0.670440
vt 0.825869 0.670440
vt 0.807365 0.570323
vt 0.817017 0.570323
vt 0.817017 0.670440
vt 0.807365 0.670440
vt 0.817017 0.570323
vt 0.807365 0.570323
vt 0.807365 0.670440
vt 0.817017 0.670440
vt 0.798513 0.670440
vt 0.798513 0.570323
vt 0.798513 0.570323
vt 0.798513 0.670440
vt 0.825869 0.639190
vt 0.817017 0.632890
vt 0.817017 0.613990
vt 0.825869 0.620290
vt 0.817017 0.695390
vt 0.825869 0.701690
vt 0.817017 0.701690
vt 0.817017 0.639190
vt 0.817017 0.632890
vt 0.817017 0.613990
vt 0.817017 0.620290
vt 0.807365 0.676490
vt 0.817017 0.676490
vt 0.817017 0.682790
vt 0.807365 0.682790
vt 0.807365 0.679765
vt 0.798513 0.686065
vt 0.798513 0.667165
vt 0.807365 0.660865
vt 0.825869 0.651540
vt 0.825869 0.651540
vt 0.817017 0.701690
vt 0.825869 0.701690
vt 0.817017 0.695390
vt 0.807365 0.651540
vt 0.817017 0.651540
vt 0.798513 0.701690
vt 0.807365 0.701690
vt 0.807365 0.695390
vt 0.798513 0.701690
vt 0.807365 0.695390
vt 0.807365 0.701690
vt 0.798513 0.682790
vt 0.807365 0.676490
vt 0.798513 0.682790
vt 0.817017 0.676490
vt 0.807365 0.682790
vt 0.817017 0.682790
vt 0.817017 0.676490
vt 0.825869 0.682790
vt 0.825869 0.682790
vt 0.817017 0.651540
vt 0.807365 0.651540
vt 0.807365 0.679765
vt 0.807365 0.686065
vt 0.807365 0.667165
vt 0.807365 0.660865
vt 0.798513 0.651540
vt 0.798513 0.651540
vt 0.817017 0.679765
vt 0.817017 0.686065
vt 0.817017 0.667165
vt 0.817017 0.660865
vt 0.798513 0.639190
vt 0.807365 0.632890
vt 0.807365 0.613990
vt 0.798513 0.620290
vt 0.817017 0.679765
vt 0.825869 0.686065
vt 0.825869 0.667165
vt 0.817017 0.660865
vt 0.807365 0.639190
vt 0.807365 0.632890
vt 0.807365 0.613990
vt 0.807365 0.620290
vt 0.807365 0.676490
vn -0.3803 0.1109 -0.9182
vn -0.9182 0.1109 -0.3803
vn -0.9125 -0.1568 -0.3780
vn -0.3780 -0.1568 -0.9125
vn 0.3577 0.3551 0.8637
vn 0.8637 0.3551 0.3577
vn 0.9182 0.1109 0.3803
vn 0.3803 0.1109 0.9182
vn -0.3577 0.3551 0.8637
vn -0.3803 0.1109 0.9182
vn -0.8637 0.3551 0.3577
vn -0.9182 0.1109 0.3803
vn -0.8637 0.3551 -0.3577
vn 0.9125 -0.1568 0.3780
vn 0.3780 -0.1568 0.9125
vn 0.8637 0.3551 -0.3577
vn 0.9182 0.1109 -0.3803
vn 0.0000 1.0000 -0.0000
vn -0.0748 0.9807 -0.1807
vn -0.1807 0.9807 -0.0748
vn -0.9125 -0.1568 0.3780
vn -0.3780 -0.1568 0.9125
vn 0.9125 -0.1568 -0.3780
vn 0.3577 0.3551 -0.8637
vn 0.3803 0.1109 -0.9182
vn -0.3750 -0.1994 -0.9053
vn -0.3799 0.1213 -0.9171
vn 0.3799 0.1213 -0.9171
vn 0.3750 -0.1994 -0.9053
vn 0.2797 -0.6824 -0.6753
vn -0.2797 -0.6824 -0.6753
vn 0.1002 -0.9651 -0.2419
vn -0.1002 -0.9651 -0.2419
vn 0.9053 -0.1994 -0.3750
vn 0.6753 -0.6824 -0.2797
vn 0.2419 -0.9651 -0.1002
vn 0.9053 -0.1994 0.3750
vn 0.6753 -0.6824 0.2797
vn 0.2419 -0.9651 0.1002
vn 0.3750 -0.1994 0.9053
vn 0.2797 -0.6824 0.6753
vn 0.1002 -0.9651 0.2419
vn -0.3750 -0.1994 0.9053
vn -0.2797 -0.6824 0.6753
vn -0.1002 -0.9651 0.2419
vn -0.9053 -0.1994 0.3750
vn -0.6753 -0.6824 0.2797
vn -0.2419 -0.9651 0.1002
vn -0.9053 -0.1994 -0.3750
vn -0.6753 -0.6824 -0.2797
vn -0.2419 -0.9651 -0.1002
vn -0.3577 0.3551 -0.8637
vn 0.1807 0.9807 0.0748
vn 0.1807 0.9807 -0.0748
vn 0.9171 0.1213 -0.3799
vn 0.0748 0.9807 -0.1807
vn 0.9171 0.1213 0.3799
vn 0.0748 0.9807 0.1807
vn 0.3799 0.1213 0.9171
vn -0.0748 0.9807 0.1807
vn -0.3799 0.1213 0.9171
vn -0.1807 0.9807 0.0748
vn -0.9171 0.1213 0.3799
vn -0.9171 0.1213 -0.3799
vn 0.3780 -0.1568 -0.9125
vn -0.0000 -1.0000 -0.0000
vn 0.9191 0.1019 -0.3807
vn 0.3807 0.1019 -0.9191
vn 0.3718 0.2372 -0.8975
vn 0.8975 0.2372 -0.3718
vn -0.3807 0.1019 -0.9191
vn -0.3718 0.2372 -0.8975
vn 0.9191 0.1019 0.3807
vn 0.8975 0.2372 0.3718
vn 0.3807 0.1019 0.9191
vn 0.3718 0.2372 0.8975
vn -0.3807 0.1019 0.9191
vn -0.3718 0.2372 0.8975
vn -0.9191 0.1019 0.3807
vn -0.8975 0.2372 0.3718
vn -0.9191 0.1019 -0.3807
vn -0.8975 0.2372 -0.3718
vn 0.1192 0.9503 -0.2877
vn -0.1192 0.9503 -0.2877
vn 0.2877 0.9503 -0.1192
vn 0.2877 0.9503 0.1192
vn 0.1192 0.9503 0.2877
vn -0.1192 0.9503 0.2877
vn -0.2877 0.9503 0.1192
vn -0.2877 0.9503 -0.1192
vn -1.0000 -0.0000 -0.0000
vn 0.0000 0.0000 -1.0000
vn -0.3827 -0.0000 0.9239
vn 0.3827 -0.0000 0.9239
vn 0.3372 0.1078 0.9352
vn -0.3372 0.1078 0.9352
vn 0.6897 0.2206 -0.6897
vn 0.7071 0.0000 -0.7071
vn -0.7071 0.0000 -0.7071
vn -0.6897 0.2206 -0.6897
vn -0.6897 0.2206 0.6897
vn -0.7071 -0.0000 0.7071
vn 0.9239 0.0000 0.3827
vn 0.9352 0.1078 0.3372
vn 1.0000 0.0000 0.0000
vn 0.0000 -0.0000 1.0000
vn -0.6046 0.5186 0.6046
vn 0.0000 0.6573 0.7537
vn 0.0000 0.3471 0.9378
vn -0.9378 0.3471 0.0000
vn -0.6046 0.5186 -0.6046
vn 0.6046 0.5186 -0.6046
vn 0.6046 0.5186 0.6046
vn 0.9378 0.3471 0.0000
vn 0.7537 0.6573 0.0000
vn 0.0000 0.6671 0.7450
vn 0.0000 0.3471 -0.9378
vn 0.0000 0.6573 -0.7537
vn -0.7537 0.6573 0.0000
vn 0.0000 0.6671 -0.7450
vn 0.7450 0.6671 0.0000
vn -0.7450 0.6671 0.0000
usemtl tools
s 1
f 19/1/1 26/2/2 64/3/3 37/4/4
f 53/5/5 49/6/6 22/7/7 23/8/8
f 57/9/9 53/5/5 23/8/8 24/10/10
f 61/11/11 57/9/9 24/10/10 25/12/12
f 65/13/13 61/11/11 25/12/12 26/14/2
f 23/15/8 22/16/7 48/17/14 52/18/15
f 49/6/6 45/19/16 21/20/17 22/7/7
f 1/21/18 70/22/19 81/23/20
f 26/2/2 25/24/12 60/25/21 64/3/3
f 24/26/10 23/15/8 52/18/15 56/27/22
f 22/16/7 21/28/17 44/29/23 48/17/14
f 25/24/12 24/26/10 56/27/22 60/25/21
f 45/19/16 41/30/24 20/31/25 21/20/17
f 3/32/26 35/33/27 42/34/28 5/35/29
f 3/32/26 5/35/29 6/36/30 4/37/31
f 4/38/31 6/39/30 27/40/32 28/41/33
f 5/35/29 7/42/34 8/43/35 6/36/30
f 6/39/30 8/44/35 29/45/36 27/40/32
f 7/42/34 9/46/37 10/47/38 8/43/35
f 8/44/35 10/48/38 30/49/39 29/45/36
f 9/46/37 11/50/40 12/51/41 10/47/38
f 10/48/38 12/52/41 31/53/42 30/49/39
f 11/50/40 13/54/43 14/55/44 12/51/41
f 12/52/41 14/56/44 32/57/45 31/53/42
f 13/54/43 15/58/46 16/59/47 14/55/44
f 14/56/44 16/60/47 33/61/48 32/57/45
f 15/58/46 17/62/49 18/63/50 16/59/47
f 16/60/47 18/64/50 34/65/51 33/61/48
f 17/62/49 3/32/26 4/37/31 18/63/50
f 18/64/50 4/38/31 28/41/33 34/65/51
f 36/66/52 65/13/13 26/14/2 19/67/1
f 1/68/18 73/69/53 71/70/54
f 5/35/29 42/34/28 46/71/55 7/42/34
f 1/68/18 71/70/54 67/72/56
f 7/42/34 46/71/55 50/73/57 9/46/37
f 1/74/18 75/75/58 73/76/53
f 9/46/37 50/73/57 54/77/59 11/50/40
f 1/21/18 77/78/60 75/79/58
f 11/50/40 54/77/59 58/80/61 13/54/43
f 1/81/18 79/82/62 77/83/60
f 13/54/43 58/80/61 62/84/63 15/58/46
f 1/81/18 81/85/20 79/82/62
f 15/58/46 62/84/63 66/86/64 17/62/49
f 17/62/49 66/86/64 35/33/27 3/32/26
f 20/87/25 19/1/1 37/4/4 40/88/65
f 21/28/17 20/87/25 40/88/65 44/29/23
f 2/89/66 28/41/33 27/40/32
f 2/89/66 27/40/32 29/45/36
f 2/89/66 29/45/36 30/49/39
f 2/89/66 30/49/39 31/53/42
f 2/89/66 31/53/42 32/57/45
f 2/89/66 32/57/45 33/61/48
f 2/89/66 33/61/48 34/65/51
f 2/89/66 34/65/51 28/41/33
f 43/90/67 39/91/68 68/92/69 72/93/70
f 39/91/68 38/94/71 69/95/72 68/92/69
f 47/96/73 43/90/67 72/93/70 74/97/74
f 51/98/75 47/96/73 74/97/74 76/99/76
f 55/100/77 51/98/75 76/99/76 78/101/78
f 59/102/79 55/100/77 78/101/78 80/103/80
f 63/104/81 59/102/79 80/103/80 82/105/82
f 38/94/71 63/104/81 82/105/82 69/95/72
f 42/106/28 35/107/27 36/108/52 41/109/24
f 38/110/71 39/111/68 40/112/65 37/113/4
f 46/114/55 42/106/28 41/109/24 45/115/16
f 39/111/68 43/116/67 44/117/23 40/112/65
f 50/118/57 46/114/55 45/115/16 49/119/6
f 43/116/67 47/120/73 48/121/14 44/117/23
f 54/122/59 50/118/57 49/119/6 53/123/5
f 47/120/73 51/124/75 52/125/15 48/121/14
f 58/126/61 54/122/59 53/123/5 57/127/9
f 51/124/75 55/128/77 56/129/22 52/125/15
f 62/130/63 58/126/61 57/127/9 61/131/11
f 55/128/77 59/132/79 60/133/21 56/129/22
f 66/134/64 62/130/63 61/131/11 65/135/13
f 59/132/79 63/136/81 64/137/3 60/133/21
f 35/107/27 66/134/64 65/135/13 36/108/52
f 63/136/81 38/110/71 37/113/4 64/137/3
f 41/30/24 36/66/52 19/67/1 20/31/25
f 68/92/83 69/95/84 70/138/19 67/139/56
f 72/93/85 68/92/83 67/140/56 71/141/54
f 74/97/86 72/93/85 71/142/54 73/143/53
f 76/99/87 74/97/86 73/144/53 75/145/58
f 78/101/88 76/99/87 75/146/58 77/147/60
f 80/103/89 78/101/88 77/148/60 79/149/62
f 82/105/90 80/103/89 79/150/62 81/151/20
f 69/95/84 82/105/90 81/152/20 70/153/19
f 1/74/18 67/154/56 70/155/19
f 93/156/91 97/157/91 105/158/91 104/159/91
f 90/160/92 94/161/92 103/162/92 102/163/92
f 96/164/93 88/165/94 99/166/95 106/167/96
f 101/168/97 91/169/98 90/160/98 102/163/97
f 93/156/99 104/159/100 103/162/100 94/161/99
f 105/158/101 97/157/102 96/164/93 106/167/96
f 87/170/103 100/171/104 99/166/95 88/165/94
f 87/170/103 91/169/105 101/168/105 100/171/104
f 105/172/106 98/173/106 83/174/106 84/175/106
f 98/176/107 105/177/101 106/178/96
f 103/179/91 95/180/91 107/181/91 114/182/91
f 86/183/108 83/184/108 110/185/109 85/186/109
f 89/187/106 100/188/106 112/189/106 86/190/106
f 104/159/91 105/158/91 84/191/110 111/192/110
f 103/193/100 104/194/100 95/195/111
f 106/167/96 99/166/95 85/196/109 110/197/109
f 101/198/97 102/199/97 92/200/112
f 100/201/104 89/202/113 99/203/95
f 109/204/114 108/205/115 86/183/115 112/206/114
f 83/184/108 86/183/108 115/207/116
f 113/208/117 114/209/117 107/210/118 108/205/118
f 107/210/119 111/211/110 84/212/110 83/184/119
f 102/163/92 103/162/92 114/213/117 113/214/117
f 92/215/105 102/216/105 113/217/105 108/218/105
f 100/171/104 101/168/105 109/219/114 112/220/114
f 98/221/91 106/222/91 110/223/91 83/224/91
f 101/225/92 92/226/92 108/227/92 109/228/92
f 95/229/92 104/230/92 111/231/92 107/232/92
f 99/233/105 89/234/105 86/235/105 85/236/105
f 108/205/118 107/210/118 115/237/120
f 86/183/115 108/205/115 115/237/121
f 107/210/119 83/184/119 115/207/122
