# Blender v3.4.1 OBJ File: 'RPG_Tool_Bits_Export.blend'
# www.blender.org
mtllib tongs_part.mtl
o tongs_part
v -0.051470 -0.092957 -0.059833
v -0.051470 -0.092957 -0.003492
v -0.097751 -0.066929 -0.059833
v -0.097751 -0.066929 0.000968
v 0.000000 0.049357 0.000000
v -0.000000 0.049357 -0.071520
v 0.069346 0.488843 -0.082084
v 0.048226 0.327724 -0.082084
v 0.065187 0.411964 -0.082084
v 0.098501 0.029565 -0.071520
v 0.098501 0.029565 0.030740
v 0.158265 0.066113 -0.082084
v 0.193362 0.118640 -0.082084
v 0.205687 0.180600 -0.082084
v 0.193362 0.264448 -0.082084
v 0.158265 0.338864 -0.082084
v 0.077249 0.099793 -0.082084
v 0.124584 0.147129 -0.082084
v 0.131242 0.180600 -0.082084
v 0.124584 0.235960 -0.082084
v 0.105625 0.286224 -0.082084
v 0.065187 0.411964 0.082084
v 0.069346 0.488843 0.082084
v 0.048226 0.327724 0.082084
v 0.158265 0.066113 0.063536
v 0.193362 0.118640 0.082084
v 0.205687 0.180600 0.082084
v 0.158265 0.338864 0.082084
v 0.077249 0.099793 0.063536
v 0.124584 0.147129 0.082084
v 0.131242 0.180600 0.082084
v 0.124584 0.235960 0.082084
v 0.105625 0.286224 0.082084
v -0.107232 -0.166523 0.016664
v -0.063837 -0.166523 0.015724
v -0.063837 -0.228301 -0.035129
v -0.107232 -0.228301 -0.035129
v -0.055158 0.014528 -0.071520
v -0.055158 0.014528 0.000000
v 0.030304 -0.026629 -0.000000
v 0.030304 -0.026629 -0.071520
v -0.103620 -0.635648 -0.028873
v -0.098776 -0.669949 -0.058329
v -0.133076 -0.669949 -0.024029
v -0.098776 -0.752306 -0.024029
v -0.133076 -0.718006 -0.024029
v -0.098776 -0.718006 -0.058329
v -0.103620 -0.635648 0.028873
v -0.133076 -0.669949 0.024029
v -0.098776 -0.669949 0.058329
v -0.098776 -0.718006 0.058329
v -0.133076 -0.718006 0.024029
v -0.098776 -0.752306 0.024029
v -0.050719 -0.752306 0.024029
v -0.016418 -0.718006 0.024029
v -0.050719 -0.718006 0.058329
v -0.045874 -0.635648 0.028873
v -0.050719 -0.669949 0.058329
v -0.016418 -0.669949 0.024029
v -0.016418 -0.718006 -0.024029
v -0.050719 -0.752306 -0.024029
v -0.050719 -0.718006 -0.058329
v -0.016418 -0.669949 -0.024029
v -0.050719 -0.669949 -0.058329
v -0.045874 -0.635648 -0.028873
v -0.000000 0.533905 -0.098180
v -0.000000 0.408176 -0.098180
v -0.000000 0.305326 -0.098180
v 0.000000 0.533905 0.098180
v 0.000000 0.408176 0.098180
v 0.000000 0.305326 0.098180
v 0.193362 0.264448 0.042763
v 0.176589 0.300013 0.082084
v 0.157034 0.249401 0.082084
v 0.199081 0.225545 0.082084
vt 0.428156 0.765154
vt 0.432416 0.765154
vt 0.432416 0.765154
vt 0.428156 0.765154
vt 0.432845 0.775493
vt 0.432845 0.775493
vt 0.432411 0.824013
vt 0.431914 0.827548
vt 0.445099 0.961576
vt 0.440649 0.962461
vt 0.440649 0.972358
vt 0.448886 0.970719
vt 0.457211 0.933838
vt 0.461525 0.935625
vt 0.464125 0.942353
vt 0.445099 0.852201
vt 0.440649 0.853086
vt 0.440649 0.853086
vt 0.445099 0.852201
vt 0.448886 0.951928
vt 0.448886 0.951928
vt 0.440649 0.951928
vt 0.440649 0.951928
vt 0.433316 0.857526
vt 0.440649 0.862156
vt 0.440649 0.862156
vt 0.433316 0.857526
vt 0.461688 0.864384
vt 0.461688 0.864384
vt 0.453744 0.859525
vt 0.453744 0.859525
vt 0.466355 0.871366
vt 0.466355 0.871366
vt 0.433316 0.904401
vt 0.444677 0.898929
vt 0.433807 0.890112
vt 0.427471 0.894018
vt 0.444677 0.852054
vt 0.444677 0.852054
vt 0.440649 0.909031
vt 0.450918 0.915736
vt 0.453744 0.906400
vt 0.461688 0.900643
vt 0.448886 0.908219
vt 0.448886 0.908219
vt 0.461688 0.900643
vt 0.467993 0.879604
vt 0.467993 0.879604
vt 0.466355 0.890750
vt 0.466355 0.890750
vt 0.467115 0.885579
vt 0.450918 0.868861
vt 0.450918 0.868861
vt 0.461688 0.947518
vt 0.448886 0.955094
vt 0.445099 0.945951
vt 0.454691 0.940520
vt 0.454690 0.893645
vt 0.454691 0.893645
vt 0.445099 0.899076
vt 0.445099 0.899076
vt 0.457211 0.875154
vt 0.457211 0.875154
vt 0.458096 0.879604
vt 0.458096 0.879604
vt 0.457211 0.922029
vt 0.458096 0.926479
vt 0.467993 0.926479
vt 0.466355 0.918241
vt 0.457211 0.886963
vt 0.457211 0.886963
vt 0.457211 0.933838
vt 0.466355 0.937625
vt 0.454690 0.940520
vt 0.461688 0.947518
vt 0.450918 0.915736
vt 0.461688 0.911259
vt 0.466355 0.918241
vt 0.457211 0.922029
vt 0.444677 0.898929
vt 0.453744 0.906400
vt 0.440649 0.909031
vt 0.433316 0.904401
vt 0.426393 0.871582
vt 0.432411 0.870888
vt 0.445099 0.945951
vt 0.448886 0.955094
vt 0.427727 0.775493
vt 0.427727 0.775493
vt 0.426393 0.824707
vt 0.426393 0.824707
vt 0.440649 0.983178
vt 0.440649 0.972358
vt 0.440649 0.983178
vt 0.458096 0.926479
vt 0.467993 0.926479
vt 0.464125 0.895478
vt 0.467115 0.979329
vt 0.466355 0.937625
vt 0.461525 0.982500
vt 0.461688 0.911259
vt 0.427836 0.893125
vt 0.426393 0.871582
vt 0.431914 0.874423
vt 0.427727 0.822368
vt 0.432845 0.822368
vt 0.433807 0.843237
vt 0.433807 0.843237
vt 0.427836 0.846250
vt 0.427471 0.847143
vt 0.448886 0.889428
vt 0.448886 0.889428
vt 0.448886 0.876969
vt 0.448886 0.876969
vt 0.433807 0.890112
vt 0.435456 0.768194
vt 0.435456 0.772453
vt 0.435456 0.772453
vt 0.435456 0.768194
vt 0.432416 0.815069
vt 0.432416 0.819328
vt 0.428156 0.819328
vt 0.428156 0.815069
vt 0.428156 0.815069
vt 0.428156 0.819328
vt 0.432416 0.819328
vt 0.432416 0.815069
vt 0.425116 0.768194
vt 0.425116 0.772453
vt 0.425116 0.772453
vt 0.425116 0.768194
vt 0.427727 0.853618
vt 0.428156 0.850578
vt 0.425116 0.850578
vt 0.428156 0.812029
vt 0.425116 0.815069
vt 0.427727 0.853618
vt 0.425116 0.850578
vt 0.428156 0.850578
vt 0.425116 0.815069
vt 0.428156 0.812029
vt 0.432416 0.812029
vt 0.435456 0.815069
vt 0.432845 0.853618
vt 0.432416 0.850578
vt 0.435456 0.850578
vt 0.435456 0.815069
vt 0.432416 0.812029
vt 0.435456 0.850578
vt 0.432416 0.850578
vt 0.432845 0.853618
vt 0.427727 0.806743
vt 0.427727 0.806743
vt 0.425116 0.803703
vt 0.425116 0.803703
vt 0.435456 0.819328
vt 0.425116 0.819328
vt 0.425116 0.819328
vt 0.432845 0.806743
vt 0.432845 0.806743
vt 0.435456 0.803703
vt 0.435456 0.803703
vt 0.435456 0.819328
vt 0.432845 0.822368
vt 0.427727 0.822368
vt 0.448886 0.970719
vt 0.448886 0.983178
vt 0.440649 0.962461
vt 0.445099 0.961576
vt 0.448886 0.983178
vt 0.466355 0.843875
vt 0.464125 0.848603
vt 0.461525 0.888750
vt 0.467115 0.932454
vn 0.0000 -1.0000 0.0000
vn 0.3416 -0.8756 0.3416
vn -0.3416 -0.8756 0.3416
vn 0.9989 0.0404 -0.0230
vn 1.0000 0.0021 -0.0010
vn 0.9968 -0.0691 0.0399
vn 0.2784 -0.0252 -0.9601
vn 0.2558 -0.0154 -0.9666
vn 0.2521 -0.0138 -0.9676
vn 0.0000 -0.0000 1.0000
vn 0.4212 -0.9070 0.0000
vn 0.5449 0.8385 0.0000
vn -0.7359 0.6771 0.0000
vn -0.5413 0.8408 0.0000
vn -0.5405 0.8413 0.0000
vn -0.7276 0.6860 0.0000
vn 0.7006 -0.7135 -0.0000
vn 0.7301 -0.6833 -0.0000
vn 0.5665 -0.8240 -0.0000
vn 0.5776 -0.8163 -0.0000
vn 0.9239 -0.3827 -0.0000
vn 0.9313 -0.3642 -0.0000
vn -0.0344 -0.0675 -0.9971
vn -0.0203 -0.0397 -0.9990
vn -0.0513 -0.1356 -0.9894
vn -0.0522 -0.1309 -0.9900
vn 0.6333 -0.7739 -0.0000
vn 0.6330 -0.7741 -0.0000
vn -0.0079 -0.0392 -0.9992
vn -0.0309 -0.1056 -0.9939
vn -0.0386 -0.1200 -0.9920
vn 0.7820 0.6232 -0.0000
vn 0.6176 0.7865 -0.0000
vn 0.9997 -0.0252 -0.0000
vn 0.9573 0.2891 -0.0000
vn 0.9894 0.1454 -0.0000
vn -0.6550 0.7556 0.0000
vn -0.6333 0.7739 0.0000
vn -0.7944 -0.6074 0.0000
vn -0.5859 -0.8104 0.0000
vn -0.8819 0.4714 0.0000
vn -0.8950 0.4460 0.0000
vn -0.9993 0.0383 0.0000
vn -0.0000 0.0000 -1.0000
vn -0.9713 -0.2379 0.0000
vn -0.2179 -0.4014 0.8896
vn -0.1409 -0.3392 0.9301
vn -0.0557 -0.1343 0.9894
vn -0.0583 -0.1405 0.9884
vn -0.1142 -0.0597 0.9917
vn -0.2567 -0.3785 0.8893
vn -0.2323 -0.1781 0.9562
vn -0.0625 -0.0489 0.9968
vn -0.0230 -0.0871 -0.9959
vn -0.0237 -0.0893 -0.9957
vn -1.0000 -0.0081 0.0046
vn -0.9985 0.0488 -0.0267
vn -0.9999 0.0113 -0.0061
vn -1.0000 -0.0000 0.0000
vn 0.9045 0.4266 -0.0000
vn 0.3875 0.6829 0.6193
vn -0.0247 -0.0594 -0.9979
vn 0.0722 0.0639 0.9953
vn 0.0152 0.0887 0.9959
vn 0.0441 0.1025 0.9938
vn 0.0093 0.0272 0.9996
vn 0.9927 -0.1048 0.0604
vn -0.9652 0.2607 -0.0197
vn -0.9572 0.2890 -0.0170
vn 0.9985 -0.0540 -0.0000
vn 0.1147 0.0900 0.9893
vn 0.6299 -0.7766 -0.0000
vn 0.8756 -0.3416 -0.3416
vn 0.8913 0.3008 -0.3392
vn 0.8913 0.3008 0.3392
vn 0.8756 -0.3416 0.3416
vn 0.3416 -0.3416 0.8756
vn 0.3392 0.3008 0.8913
vn -0.3392 0.3008 0.8913
vn -0.3416 -0.3416 0.8756
vn -0.3416 -0.3416 -0.8756
vn -0.3392 0.3008 -0.8913
vn 0.3392 0.3008 -0.8913
vn 0.3416 -0.3416 -0.8756
vn -0.8756 -0.3416 0.3416
vn -0.8913 0.3008 0.3392
vn -0.8913 0.3008 -0.3392
vn -0.8756 -0.3416 -0.3416
vn -0.5155 0.6845 -0.5155
vn -0.4606 -0.7588 -0.4606
vn -0.5155 0.6845 0.5155
vn 0.5155 0.6845 0.5155
vn 0.4606 -0.7588 -0.4606
vn 0.5155 0.6845 -0.5155
vn -0.0000 -0.0154 -0.9999
vn 0.2521 -0.0138 0.9676
vn 0.2313 -0.0047 0.9729
vn 0.2558 -0.0154 0.9666
vn 0.2784 -0.0252 0.9601
vn 0.2313 -0.0047 -0.9729
vn 0.7556 -0.2919 0.5864
usemtl tools
s 1
f 45/1/1 61/2/1 54/3/2 53/4/3
f 57/5/4 65/6/4 36/7/5 35/8/6
f 8/9/7 68/10/7 67/11/8 9/12/9
f 32/13/10 74/14/10 73/15/10
f 24/16/11 71/17/11 68/18/11 8/19/11
f 23/20/12 7/21/12 66/22/12 69/23/12
f 39/24/13 5/25/14 6/26/15 38/27/16
f 12/28/17 25/29/18 11/30/19 10/31/20
f 13/32/21 26/33/22 25/29/18 12/28/17
f 38/34/23 41/35/24 1/36/25 3/37/26
f 40/38/27 41/39/28 10/31/20 11/30/19
f 6/40/29 17/41/30 10/42/31
f 16/43/32 9/44/33 22/45/33 28/46/32
f 13/32/21 14/47/34 27/48/34 26/33/22
f 15/49/35 72/50/35 75/51/36
f 5/25/14 29/52/37 17/53/38 6/26/15
f 28/54/10 22/55/10 24/56/10 33/57/10
f 21/58/39 33/59/39 24/60/40 8/61/40
f 18/62/41 30/63/42 31/64/43 19/65/43
f 18/66/44 19/67/44 14/68/44 13/69/44
f 21/58/39 20/70/45 32/71/45 33/59/39
f 19/67/44 20/72/44 15/73/44 14/68/44
f 20/72/44 21/74/44 16/75/44 15/73/44
f 20/70/45 19/65/43 31/64/43 32/71/45
f 29/76/46 25/77/47 26/78/48 30/79/49
f 29/52/37 30/63/42 18/62/41 17/53/38
f 40/80/50 11/81/51 5/82/52 39/83/53
f 37/84/54 3/37/26 1/36/25 36/85/55
f 21/74/44 8/86/44 9/87/44 16/75/44
f 42/88/56 48/89/56 34/90/57 37/91/58
f 66/92/59 67/11/59 70/93/59 69/94/59
f 31/95/10 30/79/49 26/78/48 27/96/10
f 15/49/35 73/97/60 72/50/35
f 75/98/61 72/99/61 74/100/61
f 25/77/47 29/76/46 11/81/51
f 10/42/31 17/41/30 12/101/62
f 17/41/30 18/66/44 13/69/44 12/101/62
f 4/102/63 34/103/64 35/104/65
f 48/105/66 57/106/66 35/104/65 34/103/64
f 2/107/67 35/8/6 36/7/5 1/108/67
f 4/109/68 3/110/69 37/91/58 34/90/57
f 7/111/70 23/112/70 22/113/70 9/114/70
f 2/115/71 4/102/63 35/104/65
f 2/115/71 40/80/50 39/83/53 4/102/63
f 2/107/72 1/108/72 41/39/28 40/38/27
f 6/40/29 10/42/31 41/35/24 38/34/23
f 4/109/68 39/24/13 38/27/16 3/110/69
f 29/76/46 5/82/52 11/81/51
f 60/116/73 63/117/74 59/118/75 55/119/76
f 56/120/77 58/121/78 50/122/79 51/123/80
f 47/124/81 43/125/82 64/126/83 62/127/84
f 52/128/85 49/129/86 44/130/87 46/131/88
f 42/132/89 43/133/82 44/134/87
f 45/135/90 46/136/88 47/124/81
f 48/137/91 49/138/86 50/139/79
f 51/123/80 52/140/85 53/141/3
f 54/142/2 55/143/76 56/120/77
f 57/144/92 58/145/78 59/146/75
f 60/147/73 61/148/93 62/127/84
f 63/149/74 64/150/83 65/151/94
f 54/3/2 61/2/93 60/116/73 55/119/76
f 48/152/91 42/153/89 44/154/87 49/155/86
f 61/148/93 45/135/90 47/124/81 62/127/84
f 63/156/74 60/147/73 62/127/84 64/126/83
f 43/125/82 47/124/81 46/136/88 44/157/87
f 51/123/80 50/122/79 49/158/86 52/140/85
f 42/132/89 65/151/94 64/150/83 43/133/82
f 45/1/90 53/4/3 52/128/85 46/131/88
f 65/159/94 57/160/92 59/161/75 63/162/74
f 58/121/78 56/120/77 55/143/76 59/163/75
f 53/141/3 54/142/2 56/120/77 51/123/80
f 57/144/92 48/137/91 50/139/79 58/145/78
f 65/164/95 42/165/95 37/84/54 36/85/55
f 22/166/96 23/167/97 69/94/97 70/93/98
f 71/168/99 24/169/99 22/166/96 70/93/98
f 70/93/59 67/11/59 68/10/59 71/168/59
f 67/11/8 66/92/100 7/170/100 9/12/9
f 72/171/101 73/172/101 74/173/101
f 32/13/10 31/95/10 27/96/10 75/174/10
f 74/14/10 32/13/10 75/174/10
f 14/47/34 15/49/35 75/51/36 27/48/34
f 16/43/32 28/46/32 73/97/60 15/49/35
f 33/57/10 32/13/10 73/15/10 28/54/10
