# Blender v3.4.1 OBJ File: 'RPG_Tool_Bits_Export.blend'
# www.blender.org
mtllib wrench_B.mtl
o wrench_B
v 0.061740 0.304755 -0.041437
v 0.061740 0.304755 0.041437
v -0.000021 0.271796 -0.041437
v -0.000021 0.271796 0.041437
v -0.061779 0.304755 -0.041437
v -0.061779 0.304755 0.041437
v 0.061740 0.390201 -0.041437
v 0.061740 0.390201 0.041437
v -0.061779 0.390201 -0.041437
v -0.061779 0.390201 0.041437
v 0.040802 0.211281 -0.041437
v -0.040837 0.211282 -0.041437
v -0.040837 0.211282 0.041437
v 0.040802 0.211281 0.041437
v 0.103608 0.346184 -0.041437
v 0.088184 0.240681 -0.041437
v 0.116058 0.285571 -0.041437
v 0.088184 0.240681 0.041437
v 0.103608 0.346184 0.041437
v 0.116058 0.285571 0.041437
v -0.088223 0.240681 -0.041437
v -0.103647 0.346184 -0.041437
v -0.116097 0.285570 -0.041437
v -0.103647 0.346184 0.041437
v -0.116097 0.285570 0.041437
v -0.061735 -0.304755 -0.041437
v -0.061735 -0.304755 0.041437
v 0.000027 -0.271796 -0.041437
v 0.000027 -0.271796 0.041437
v 0.061784 -0.304755 -0.041437
v 0.061784 -0.304755 0.041437
v -0.061735 -0.390201 -0.041437
v -0.061735 -0.390201 0.041437
v 0.061784 -0.390201 -0.041437
v 0.061784 -0.390201 0.041437
v -0.040796 -0.211281 -0.041437
v 0.040843 -0.211282 -0.041437
v 0.040843 -0.211282 0.041437
v -0.040796 -0.211281 0.041437
v -0.103603 -0.346184 -0.041437
v -0.088179 -0.240681 -0.041437
v -0.116053 -0.285570 -0.041437
v -0.088179 -0.240681 0.041437
v -0.103603 -0.346184 0.041437
v -0.116053 -0.285571 0.041437
v 0.088229 -0.240681 -0.041437
v 0.103652 -0.346184 -0.041437
v 0.116102 -0.285570 -0.041437
v 0.103652 -0.346184 0.041437
v 0.116102 -0.285570 0.041437
v 0.047977 0.313121 -0.018854
v 0.047977 0.313121 0.018854
v -0.000021 0.287902 0.018854
v -0.000021 0.287902 -0.018854
v 0.054897 0.409499 0.018854
v 0.054897 0.409499 -0.018854
v -0.054936 0.409499 0.018854
v -0.054936 0.409499 -0.018854
v -0.048016 0.313121 -0.018854
v -0.048016 0.313121 0.018854
v -0.053895 0.203705 -0.018854
v -0.053895 0.203705 0.018854
v 0.053860 0.203705 0.018854
v 0.053860 0.203705 -0.018854
v 0.099729 0.229460 0.018854
v 0.099729 0.229460 -0.018854
v 0.131889 0.282916 0.018854
v 0.131889 0.282916 -0.018854
v 0.118006 0.353346 -0.018854
v 0.118006 0.353346 0.018854
v -0.118044 0.353346 0.018854
v -0.118044 0.353346 -0.018854
v -0.131928 0.282916 0.018854
v -0.131928 0.282916 -0.018854
v -0.099768 0.229459 -0.018854
v -0.099768 0.229459 0.018854
v -0.047972 -0.313121 -0.018854
v -0.047972 -0.313121 0.018854
v 0.000026 -0.287902 0.018854
v 0.000026 -0.287902 -0.018854
v -0.054892 -0.409499 0.018854
v -0.054892 -0.409499 -0.018854
v 0.054941 -0.409499 0.018854
v 0.054941 -0.409499 -0.018854
v 0.048021 -0.313121 -0.018854
v 0.048021 -0.313121 0.018854
v 0.053901 -0.203705 -0.018854
v 0.053901 -0.203705 0.018854
v -0.053854 -0.203705 0.018854
v -0.053854 -0.203705 -0.018854
v -0.099723 -0.229460 0.018854
v -0.099723 -0.229460 -0.018854
v -0.131884 -0.282916 0.018854
v -0.131884 -0.282916 -0.018854
v -0.118000 -0.353346 -0.018854
v -0.118000 -0.353346 0.018854
v 0.118050 -0.353346 0.018854
v 0.118050 -0.353346 -0.018854
v 0.131933 -0.282916 0.018854
v 0.131933 -0.282916 -0.018854
v 0.099773 -0.229459 -0.018854
v 0.099773 -0.229459 0.018854
v -0.080408 0.259617 0.041437
v -0.099030 0.258085 0.041437
v -0.070815 0.229881 0.041437
v 0.080413 -0.259617 0.041437
v 0.099036 -0.258085 0.041437
v 0.070821 -0.229881 0.041437
vt 0.825609 0.641013
vt 0.814467 0.634102
vt 0.816001 0.624231
vt 0.827077 0.630558
vt 0.818414 0.679093
vt 0.819390 0.676165
vt 0.819390 0.656078
vt 0.817660 0.657116
vt 0.790355 0.702953
vt 0.790355 0.723040
vt 0.780508 0.712692
vt 0.780508 0.665817
vt 0.778686 0.666664
vt 0.791327 0.679093
vt 0.790355 0.676165
vt 0.790355 0.702953
vt 0.780508 0.712692
vt 0.790355 0.723040
vt 0.792081 0.657116
vt 0.790355 0.656078
vt 0.804872 0.695203
vt 0.819390 0.702953
vt 0.825609 0.687888
vt 0.814467 0.680977
vt 0.819390 0.702953
vt 0.804872 0.695203
vt 0.814467 0.680977
vt 0.825609 0.687888
vt 0.793750 0.582690
vt 0.793743 0.633193
vt 0.795278 0.634102
vt 0.795285 0.581781
vt 0.829231 0.712692
vt 0.819390 0.723040
vt 0.795278 0.680977
vt 0.784135 0.687888
vt 0.788229 0.638474
vt 0.782667 0.630558
vt 0.793743 0.624231
vt 0.795278 0.634102
vt 0.804872 0.641239
vt 0.792081 0.648024
vt 0.790355 0.656078
vt 0.804872 0.648328
vt 0.795278 0.680977
vt 0.804872 0.648328
vt 0.804872 0.650349
vt 0.829231 0.712692
vt 0.832159 0.698442
vt 0.832159 0.698442
vt 0.777586 0.698442
vt 0.777586 0.698442
vt 0.777586 0.651567
vt 0.775603 0.642209
vt 0.783051 0.633291
vt 0.781596 0.645105
vt 0.834138 0.642209
vt 0.832159 0.651567
vt 0.777586 0.651567
vt 0.775603 0.651249
vt 0.780508 0.665817
vt 0.778686 0.657605
vt 0.790361 0.559807
vt 0.792091 0.549678
vt 0.804879 0.556423
vt 0.804879 0.567555
vt 0.819390 0.723040
vt 0.784135 0.641013
vt 0.782667 0.639637
vt 0.785973 0.692341
vt 0.834138 0.651249
vt 0.832159 0.651567
vt 0.829231 0.665817
vt 0.831052 0.666664
vt 0.831052 0.657605
vt 0.829231 0.665817
vt 0.790355 0.676165
vt 0.791327 0.670172
vt 0.818414 0.670172
vt 0.819390 0.676165
vt 0.817660 0.648024
vt 0.819390 0.656078
vt 0.795285 0.581781
vt 0.793750 0.573728
vt 0.827084 0.576248
vt 0.825616 0.574870
vt 0.814473 0.581781
vt 0.816008 0.582690
vt 0.782674 0.576248
vt 0.784142 0.574870
vt 0.777592 0.564316
vt 0.775613 0.564634
vt 0.791338 0.536792
vt 0.790361 0.539720
vt 0.790361 0.559807
vt 0.792091 0.558770
vt 0.819397 0.606682
vt 0.819397 0.586595
vt 0.829244 0.596943
vt 0.829244 0.550068
vt 0.831065 0.549221
vt 0.818424 0.536792
vt 0.819397 0.539720
vt 0.819397 0.606682
vt 0.829244 0.596943
vt 0.819397 0.586595
vt 0.817670 0.558770
vt 0.819397 0.559807
vt 0.804879 0.614430
vt 0.790361 0.606682
vt 0.784142 0.621745
vt 0.795285 0.628656
vt 0.790361 0.606682
vt 0.804879 0.614430
vt 0.795285 0.628656
vt 0.784142 0.621745
vt 0.821522 0.557195
vt 0.823778 0.577148
vt 0.826700 0.553079
vt 0.780521 0.596943
vt 0.790361 0.586595
vt 0.814473 0.628656
vt 0.825616 0.621745
vt 0.821522 0.577409
vt 0.827084 0.567169
vt 0.816008 0.573728
vt 0.814473 0.581781
vt 0.817670 0.549678
vt 0.819397 0.559807
vt 0.814473 0.628656
vt 0.827077 0.639637
vt 0.816001 0.633193
vt 0.814467 0.634102
vt 0.825609 0.641013
vt 0.804879 0.567555
vt 0.804879 0.565533
vt 0.780521 0.596943
vt 0.777592 0.611191
vt 0.777592 0.611191
vt 0.832165 0.611191
vt 0.832165 0.611191
vt 0.832165 0.564316
vt 0.834148 0.555593
vt 0.826700 0.569182
vt 0.828155 0.570778
vt 0.784142 0.574870
vt 0.782674 0.567169
vt 0.775613 0.555593
vt 0.777592 0.564316
vt 0.832165 0.564316
vt 0.834148 0.564634
vt 0.829244 0.550068
vt 0.831065 0.540163
vt 0.790361 0.586595
vt 0.828155 0.617653
vt 0.823778 0.617293
vt 0.780521 0.550068
vt 0.778699 0.549222
vt 0.778699 0.540163
vt 0.780521 0.550068
vt 0.819397 0.539720
vt 0.818424 0.527871
vt 0.791337 0.527871
vt 0.790361 0.539720
vt 0.781452 0.638905
vt 0.774440 0.650551
vt 0.774257 0.651515
vt 0.777299 0.666937
vt 0.832440 0.666937
vt 0.835481 0.651515
vt 0.835298 0.650551
vt 0.828293 0.638905
vt 0.793322 0.657861
vt 0.804872 0.651795
vt 0.816417 0.657861
vt 0.817564 0.679139
vt 0.792603 0.632518
vt 0.781995 0.638428
vt 0.777751 0.667645
vt 0.790576 0.679879
vt 0.819163 0.679879
vt 0.831987 0.667645
vt 0.827749 0.638428
vt 0.817142 0.632518
vt 0.792175 0.679139
vt 0.828299 0.576980
vt 0.835311 0.565333
vt 0.835494 0.564369
vt 0.832453 0.548948
vt 0.777311 0.548948
vt 0.774270 0.564369
vt 0.774453 0.565333
vt 0.781458 0.576980
vt 0.816430 0.558024
vt 0.804879 0.564086
vt 0.793334 0.558024
vt 0.792187 0.536746
vt 0.817149 0.583365
vt 0.827756 0.577457
vt 0.832000 0.548240
vt 0.819176 0.536006
vt 0.790588 0.536006
vt 0.777764 0.548240
vt 0.782002 0.577457
vt 0.792609 0.583365
vt 0.817577 0.536746
vt 0.785973 0.677901
vt 0.781596 0.677808
vt 0.783051 0.662664
vt 0.823778 0.611661
vt 0.828155 0.611754
vt 0.826700 0.599246
vt 0.781596 0.691980
vt 0.788229 0.618995
vt 0.785973 0.645943
vt 0.783051 0.616402
vt 0.821522 0.624284
vt 0.788229 0.685349
vn 0.5795 -0.5919 0.5602
vn 0.4297 -0.7264 0.5364
vn 0.4760 -0.8258 0.3026
vn 0.6710 -0.6864 0.2803
vn -0.9850 0.0593 -0.1620
vn -0.9012 0.0343 -0.4321
vn -0.9696 0.0528 -0.2390
vn -0.0000 -0.0000 1.0000
vn -0.7349 0.4160 -0.5357
vn -0.8400 0.4736 -0.2646
vn -0.6623 0.7265 -0.1831
vn -0.6076 0.6368 -0.4747
vn -0.0000 0.0000 -1.0000
vn 0.9850 0.0593 -0.1620
vn 0.9696 0.0528 -0.2390
vn 0.9012 0.0343 -0.4321
vn -0.9599 -0.0001 -0.2805
vn -0.8657 -0.0001 -0.5006
vn -0.4286 -0.7329 0.5284
vn -0.6837 -0.7013 0.2021
vn -0.4747 -0.8283 0.2977
vn 0.4458 0.8447 0.2963
vn 0.4455 0.8441 0.2985
vn 0.3978 0.7504 0.5278
vn 0.3978 0.7504 -0.5278
vn 0.4455 0.8441 -0.2985
vn 0.4458 0.8447 -0.2963
vn -0.7975 -0.1414 0.5865
vn -0.9428 -0.1651 0.2895
vn -0.7087 -0.4310 0.5585
vn 0.9426 -0.1652 0.2902
vn 0.7965 -0.1416 0.5878
vn -0.7965 -0.1416 -0.5878
vn -0.9426 -0.1652 -0.2902
vn -0.7349 0.4160 0.5357
vn -0.8400 0.4736 0.2646
vn 0.3978 -0.7505 0.5278
vn 0.4455 -0.8441 0.2985
vn 0.4458 -0.8447 0.2963
vn -0.5795 -0.5919 -0.5602
vn -0.6710 -0.6864 -0.2803
vn 0.9426 -0.1652 -0.2902
vn 0.7965 -0.1416 -0.5878
vn 0.7349 0.4160 -0.5357
vn 0.8401 0.4736 -0.2646
vn 0.8401 0.4736 0.2646
vn 0.7349 0.4160 0.5357
vn 0.6076 0.6368 -0.4747
vn 0.6623 0.7265 -0.1831
vn -0.4455 0.8441 -0.2985
vn -0.3978 0.7505 -0.5278
vn -0.4458 0.8447 -0.2963
vn -0.4296 -0.7265 -0.5364
vn -0.4759 -0.8258 -0.3026
vn 0.9012 0.0343 0.4321
vn 0.9696 0.0528 0.2390
vn 0.9850 0.0593 0.1620
vn 0.6623 0.7265 0.1831
vn 0.6076 0.6368 0.4747
vn -0.9012 0.0343 0.4321
vn -0.9850 0.0593 0.1620
vn -0.9696 0.0528 0.2390
vn -0.8657 -0.0001 0.5006
vn -0.9599 -0.0001 0.2805
vn -0.6076 0.6368 0.4747
vn -0.6623 0.7265 0.1831
vn 0.6710 0.6864 -0.2803
vn 0.5795 0.5919 -0.5602
vn 0.4296 0.7265 -0.5364
vn 0.4759 0.8258 -0.3026
vn -0.6710 0.6864 -0.2803
vn -0.5795 0.5919 -0.5602
vn -0.7965 0.1416 -0.5878
vn -0.9426 0.1652 -0.2902
vn 0.9850 -0.0593 -0.1620
vn 0.9012 -0.0343 -0.4321
vn 0.9696 -0.0528 -0.2390
vn 0.7349 -0.4160 -0.5357
vn 0.8400 -0.4736 -0.2646
vn 0.6623 -0.7265 -0.1831
vn 0.6076 -0.6368 -0.4747
vn -0.9850 -0.0593 -0.1620
vn -0.9696 -0.0528 -0.2390
vn -0.9012 -0.0343 -0.4321
vn 0.6016 0.1941 0.7749
vn 0.4286 0.7329 0.5284
vn 0.6837 0.7013 0.2021
vn 0.4747 0.8283 0.2977
vn -0.4458 -0.8447 0.2963
vn -0.4455 -0.8441 0.2985
vn -0.3978 -0.7504 0.5278
vn 0.6710 -0.6864 -0.2803
vn 0.4760 -0.8258 -0.3026
vn 0.4297 -0.7264 -0.5364
vn 0.5795 -0.5919 -0.5602
vn -0.3978 -0.7504 -0.5278
vn -0.4455 -0.8441 -0.2985
vn -0.4458 -0.8447 -0.2963
vn 0.7975 0.1414 0.5865
vn 0.9428 0.1651 0.2895
vn 0.7087 0.4310 0.5585
vn -0.5795 0.5919 0.5602
vn -0.6710 0.6864 0.2803
vn -0.9426 0.1652 0.2902
vn -0.7965 0.1416 0.5878
vn 0.7965 0.1416 -0.5878
vn 0.9426 0.1652 -0.2902
vn 0.7349 -0.4160 0.5357
vn 0.8400 -0.4736 0.2646
vn -0.7349 -0.4160 -0.5357
vn -0.8401 -0.4736 -0.2646
vn -0.8401 -0.4736 0.2646
vn -0.7349 -0.4160 0.5357
vn -0.6076 -0.6368 -0.4747
vn -0.6623 -0.7265 -0.1831
vn 0.4455 -0.8441 -0.2985
vn 0.3978 -0.7505 -0.5278
vn 0.4458 -0.8447 -0.2963
vn -0.4297 0.7264 0.5364
vn -0.4760 0.8258 0.3026
vn -0.9012 -0.0343 0.4321
vn -0.9696 -0.0528 0.2390
vn -0.9850 -0.0593 0.1620
vn -0.6623 -0.7265 0.1831
vn -0.6076 -0.6368 0.4747
vn 0.9012 -0.0343 0.4321
vn 0.9850 -0.0593 0.1620
vn 0.9696 -0.0528 0.2390
vn -0.4760 0.8258 -0.3026
vn -0.4297 0.7264 -0.5364
vn 0.6076 -0.6368 0.4747
vn 0.6623 -0.7265 0.1831
vn -0.4458 0.8447 0.2963
vn -0.4455 0.8441 0.2985
vn 0.8657 0.0001 -0.5006
vn 0.9599 0.0001 -0.2805
vn 0.9599 0.0001 0.2805
vn 0.8657 0.0001 0.5006
vn -0.3978 0.7505 0.5278
vn 0.0510 -0.6194 0.7834
vn -0.0510 0.6194 0.7834
vn -0.6016 -0.1941 0.7749
usemtl tools
s 1
f 18/1/1 14/2/2 63/3/3 65/4/4
f 56/5/5 7/6/6 1/7/6 51/8/7
f 6/9/8 10/10/8 24/11/8
f 22/12/9 72/13/10 58/14/11 9/15/12
f 5/16/13 22/17/13 9/18/13
f 58/14/14 59/19/15 5/20/16 9/15/16
f 3/21/13 1/22/13 16/23/13 11/24/13
f 2/25/8 4/26/8 14/27/8 18/28/8
f 90/29/17 61/30/17 12/31/18 36/32/18
f 2/25/8 19/33/8 8/34/8
f 5/16/13 3/21/13 12/35/13 21/36/13
f 105/37/19 76/38/20 62/39/21 13/40/19
f 53/41/22 60/42/23 6/43/24 4/44/24
f 11/24/13 12/35/13 3/21/13
f 13/45/8 14/27/8 4/26/8
f 3/46/25 5/20/25 59/19/26 54/47/27
f 15/48/13 17/49/13 1/22/13
f 17/49/13 16/23/13 1/22/13
f 18/28/8 20/50/8 2/25/8
f 20/50/8 19/33/8 2/25/8
f 21/36/13 23/51/13 5/16/13
f 23/51/13 22/17/13 5/16/13
f 24/11/8 25/52/8 6/9/8
f 25/53/28 73/54/29 76/55/20 104/56/30
f 18/1/1 65/4/4 67/57/31 20/58/32
f 72/13/10 22/12/9 23/59/33 74/60/34
f 24/61/35 71/62/36 73/54/29 25/53/28
f 27/63/37 78/64/38 79/65/39 29/66/37
f 1/22/13 7/67/13 15/48/13
f 74/60/34 23/59/33 21/68/40 75/69/41
f 4/26/8 6/9/8 103/70/8
f 68/71/42 17/72/43 15/73/44 69/74/45
f 20/58/32 67/57/31 70/75/46 19/76/47
f 7/6/48 56/5/49 69/74/45 15/73/44
f 51/8/50 1/7/51 3/46/51 54/47/52
f 75/69/41 21/68/40 12/31/53 61/30/54
f 10/77/55 6/43/55 60/42/56 57/78/57
f 55/79/58 8/80/59 19/76/47 70/75/46
f 8/80/60 55/79/61 52/81/62 2/82/60
f 39/83/63 13/40/63 62/39/64 89/84/64
f 71/62/36 24/61/35 10/77/65 57/78/66
f 101/85/67 46/86/68 37/87/69 87/88/70
f 92/89/71 41/90/72 42/91/73 94/92/74
f 82/93/75 32/94/76 26/95/76 77/96/77
f 31/97/8 35/98/8 49/99/8
f 47/100/78 98/101/79 84/102/80 34/103/81
f 30/104/13 47/105/13 34/106/13
f 84/102/82 85/107/83 30/108/84 34/103/84
f 28/109/13 26/110/13 41/111/13 36/112/13
f 27/113/8 29/114/8 39/115/8 43/116/8
f 108/117/85 106/118/85 102/119/85
f 27/113/8 44/120/8 33/121/8
f 30/104/13 28/109/13 37/122/13 46/123/13
f 108/124/86 102/125/87 88/126/88 38/127/86
f 79/65/89 86/128/90 31/129/91 29/66/91
f 36/112/13 37/122/13 28/109/13
f 38/130/8 39/115/8 29/114/8
f 66/131/92 64/132/93 11/133/94 16/134/95
f 28/135/96 30/108/96 85/107/97 80/136/98
f 40/137/13 42/138/13 26/110/13
f 42/138/13 41/111/13 26/110/13
f 43/116/8 45/139/8 27/113/8
f 45/139/8 44/120/8 27/113/8
f 46/123/13 48/140/13 30/104/13
f 48/140/13 47/105/13 30/104/13
f 49/99/8 50/141/8 31/97/8
f 50/142/99 99/143/100 102/144/87 107/145/101
f 43/146/102 91/147/103 93/148/104 45/149/105
f 98/101/79 47/100/78 48/150/106 100/151/107
f 49/152/108 97/153/109 99/143/100 50/142/99
f 26/110/13 32/154/13 40/137/13
f 36/112/13 12/35/13 11/24/13 37/122/13
f 38/130/8 14/27/8 13/45/8 39/115/8
f 66/131/92 16/134/95 17/72/43 68/71/42
f 50/141/8 107/155/8 106/156/8
f 100/151/107 48/150/106 46/86/68 101/85/67
f 29/114/8 31/97/8 106/156/8
f 94/92/74 42/91/73 40/157/110 95/158/111
f 45/149/105 93/148/104 96/159/112 44/160/113
f 32/94/114 82/93/115 95/158/111 40/157/110
f 77/96/116 26/95/117 28/135/117 80/136/118
f 43/146/102 39/83/119 89/84/120 91/147/103
f 35/161/121 31/129/121 86/128/122 83/162/123
f 81/163/124 33/164/125 44/160/113 96/159/112
f 33/164/126 81/163/127 78/64/128 27/63/126
f 92/89/71 90/29/129 36/32/130 41/90/72
f 97/153/109 49/152/108 35/161/131 83/162/132
f 74/60/34 75/69/41 76/165/20 73/166/29
f 72/13/10 74/60/34 73/167/29 71/168/36
f 68/71/42 69/74/45 70/169/46 67/170/31
f 66/131/92 68/71/42 67/171/31 65/172/4
f 60/173/23 53/174/22 54/47/27 59/19/26
f 56/5/5 51/8/7 52/175/62 55/176/61
f 75/69/41 61/30/54 62/177/21 76/178/20
f 71/179/36 57/180/66 58/14/11 72/13/10
f 55/181/58 70/182/46 69/74/45 56/5/49
f 51/8/50 54/47/52 53/174/133 52/175/134
f 64/132/93 66/131/92 65/183/4 63/184/3
f 59/19/15 58/14/14 57/185/57 60/173/56
f 100/151/107 101/85/67 102/186/87 99/187/100
f 98/101/79 100/151/107 99/188/100 97/189/109
f 94/92/74 95/158/111 96/190/112 93/191/104
f 92/89/71 94/92/74 93/192/104 91/193/103
f 86/194/90 79/195/89 80/136/98 85/107/97
f 82/93/75 77/96/77 78/196/128 81/197/127
f 101/85/67 87/88/70 88/198/88 102/199/87
f 97/200/109 83/201/132 84/102/80 98/101/79
f 81/202/124 96/203/112 95/158/111 82/93/115
f 77/96/116 80/136/118 79/195/39 78/196/38
f 90/29/129 92/89/71 91/204/103 89/205/120
f 85/107/83 84/102/82 83/206/123 86/194/122
f 37/87/135 11/133/135 64/132/136 87/88/136
f 88/126/137 63/3/137 14/2/138 38/127/138
f 2/82/139 52/81/134 53/41/133 4/44/139
f 89/205/64 62/177/64 61/30/17 90/29/17
f 103/207/140 104/208/140 76/209/140
f 106/210/141 107/211/141 102/212/141
f 25/52/8 104/213/8 103/70/8
f 105/214/142 103/215/142 76/216/142
f 38/130/8 29/114/8 108/217/8
f 31/97/8 50/141/8 106/156/8
f 6/9/8 25/52/8 103/70/8
f 4/26/8 103/70/8 105/218/8
f 13/45/8 4/26/8 105/218/8
f 108/217/8 29/114/8 106/156/8
f 87/88/136 64/132/136 63/184/137 88/198/137
