{
    "asset" : {
        "generator" : "Khronos glTF Blender I/O v3.4.50",
        "version" : "2.0"
    },
    "scene" : 0,
    "scenes" : [
        {
            "name" : "Scene",
            "nodes" : [
                0
            ]
        }
    ],
    "nodes" : [
        {
            "mesh" : 0,
            "name" : "bow_B_withString"
        }
    ],
    "materials" : [
        {
            "name" : "weapons",
            "pbrMetallicRoughness" : {
                "baseColorTexture" : {
                    "index" : 0
                },
                "metallicFactor" : 0,
                "roughnessFactor" : 0.5
            }
        }
    ],
    "meshes" : [
        {
            "extras" : {
                "targetNames" : [
                    "Draw"
                ]
            },
            "name" : "bow_B_withString",
            "primitives" : [
                {
                    "attributes" : {
                        "POSITION" : 0,
                        "TEXCOORD_0" : 1,
                        "NORMAL" : 2
                    },
                    "indices" : 3,
                    "material" : 0,
                    "targets" : [
                        {
                            "POSITION" : 4,
                            "NORMAL" : 5
                        }
                    ]
                }
            ],
            "weights" : [
                0
            ]
        }
    ],
    "textures" : [
        {
            "sampler" : 0,
            "source" : 0
        }
    ],
    "images" : [
        {
            "mimeType" : "image/png",
            "name" : "weapons_bits_texture",
            "uri" : "weapons_bits_texture.png"
        }
    ],
    "accessors" : [
        {
            "bufferView" : 0,
            "componentType" : 5126,
            "count" : 2844,
            "max" : [
                0.9571579694747925,
                0.08328307420015335,
                0.3588648736476898
            ],
            "min" : [
                -0.9571570754051208,
                -0.08328312635421753,
                -0.31176382303237915
            ],
            "type" : "VEC3"
        },
        {
            "bufferView" : 1,
            "componentType" : 5126,
            "count" : 2844,
            "type" : "VEC2"
        },
        {
            "bufferView" : 2,
            "componentType" : 5126,
            "count" : 2844,
            "type" : "VEC3"
        },
        {
            "bufferView" : 3,
            "componentType" : 5123,
            "count" : 7104,
            "type" : "SCALAR"
        },
        {
            "bufferView" : 4,
            "componentType" : 5126,
            "count" : 2844,
            "max" : [
                0.23730218410491943,
                2.1886080503463745e-08,
                0
            ],
            "min" : [
                -0.2373024821281433,
                -1.7763568394002505e-15,
                -0.5105211138725281
            ],
            "type" : "VEC3"
        },
        {
            "bufferView" : 5,
            "componentType" : 5126,
            "count" : 2844,
            "type" : "VEC3"
        }
    ],
    "bufferViews" : [
        {
            "buffer" : 0,
            "byteLength" : 34128,
            "byteOffset" : 0,
            "target" : 34962
        },
        {
            "buffer" : 0,
            "byteLength" : 22752,
            "byteOffset" : 34128,
            "target" : 34962
        },
        {
            "buffer" : 0,
            "byteLength" : 34128,
            "byteOffset" : 56880,
            "target" : 34962
        },
        {
            "buffer" : 0,
            "byteLength" : 14208,
            "byteOffset" : 91008,
            "target" : 34963
        },
        {
            "buffer" : 0,
            "byteLength" : 34128,
            "byteOffset" : 105216,
            "target" : 34962
        },
        {
            "buffer" : 0,
            "byteLength" : 34128,
            "byteOffset" : 139344,
            "target" : 34962
        }
    ],
    "samplers" : [
        {
            "magFilter" : 9729,
            "minFilter" : 9987
        }
    ],
    "buffers" : [
        {
            "byteLength" : 173472,
            "uri" : "bow_B_withString.bin"
        }
    ]
}
