# Blender v3.4.1 OBJ File: 'Fantasy Weapons_Export.blend'
# www.blender.org
mtllib arrow_A.mtl
o arrow_A
v 0.011266 0.019514 0.417903
v 0.023457 0.040620 0.435877
v -0.011268 0.019514 0.417903
v -0.022534 -0.000000 0.417903
v -0.011268 -0.019515 0.417903
v 0.011266 -0.019515 0.417903
v 0.022532 -0.000000 0.417903
v 0.046909 -0.000000 0.435877
v 0.023457 -0.040620 0.435877
v -0.023447 -0.040620 0.435877
v -0.046899 -0.000000 0.435877
v -0.023447 0.040620 0.435877
v 0.000005 -0.000000 0.539129
v 0.011266 0.019515 -0.400443
v -0.011268 0.019515 -0.400443
v -0.022535 0.000000 -0.400443
v -0.011268 -0.019514 -0.400443
v 0.011266 -0.019514 -0.400443
v 0.022532 0.000000 -0.400443
v -0.000009 0.031367 -0.513225
v 0.027186 -0.015697 -0.513225
v -0.027170 -0.015677 -0.513225
v -0.071088 0.041040 -0.453371
v -0.073744 0.042575 -0.555029
v -0.000010 -0.082081 -0.453370
v -0.000006 -0.085149 -0.555020
v 0.071077 0.041046 -0.453370
v 0.073737 0.042577 -0.555020
v -0.000009 0.031367 -0.613225
v 0.027186 -0.015697 -0.613225
v -0.027170 -0.015677 -0.613225
v -0.077087 0.044504 -0.675276
v -0.000006 -0.089009 -0.675267
v 0.077080 0.044507 -0.675267
vt 0.037968 0.055802
vt 0.053401 0.084229
vt 0.053401 0.084229
vt 0.809310 0.504943
vt 0.814909 0.504943
vt 0.827027 0.577115
vt 0.815371 0.577115
vt 0.780403 0.601228
vt 0.792054 0.601228
vt 0.803715 0.737617
vt 0.809310 0.504943
vt 0.815371 0.577115
vt 0.798111 0.504943
vt 0.792054 0.577115
vt 0.798111 0.504943
vt 0.792054 0.577115
vt 0.792511 0.504943
vt 0.780403 0.577115
vt 0.815371 0.601228
vt 0.827027 0.601228
vt 0.792054 0.601228
vt 0.815371 0.601228
vt 0.068834 0.055813
vt 0.058844 0.084229
vt 0.058844 0.084229
vt 0.564572 0.453654
vt 0.564572 0.314198
vt 0.562072 0.314198
vt 0.562072 0.453654
vt 0.562072 0.453654
vt 0.562072 0.314198
vt 0.557071 0.453654
vt 0.557071 0.314198
vt 0.554570 0.453654
vt 0.554570 0.314198
vt 0.557071 0.453654
vt 0.557071 0.314198
vt 0.049496 0.196206
vt 0.045591 0.196206
vt 0.047961 0.099854
vt 0.057306 0.183919
vt 0.049496 0.183919
vt 0.053398 0.141942
vt 0.049496 0.196206
vt 0.057306 0.196206
vt 0.053401 0.099854
vt 0.061211 0.196206
vt 0.057306 0.196206
vt 0.058844 0.099854
vt 0.037968 0.071427
vt 0.028761 0.154229
vt 0.053401 0.055813
vt 0.047961 0.084229
vt 0.047961 0.084229
vt 0.047961 0.122315
vt 0.045591 0.218667
vt 0.028761 0.176690
vt 0.045591 0.183919
vt 0.049496 0.183919
vt 0.028761 0.141942
vt 0.053401 0.071438
vt 0.053398 0.154229
vt 0.053401 0.078274
vt 0.053401 0.078274
vt 0.058844 0.106690
vt 0.058844 0.122315
vt 0.057306 0.218667
vt 0.053398 0.176690
vt 0.057306 0.183919
vt 0.061211 0.183919
vt 0.078041 0.141942
vt 0.068834 0.071438
vt 0.078041 0.154229
vt 0.053401 0.122315
vt 0.057306 0.218667
vt 0.078041 0.176690
vt 0.047961 0.064172
vt 0.053401 0.064172
vt 0.058844 0.064172
vt 0.068834 0.035756
vt 0.037968 0.035745
vt 0.053401 0.035756
vt 0.037968 0.078263
vt 0.037968 0.078263
vt 0.047961 0.106690
vt 0.068834 0.078274
vt 0.068834 0.078274
vt 0.053401 0.106690
vt 0.053401 0.093899
vt 0.037968 0.093888
vt 0.068834 0.093899
vt 0.068834 0.055813
vt 0.058844 0.106690
vt 0.053401 0.055813
vt 0.047961 0.106690
vt 0.037968 0.055802
vt 0.053401 0.106690
vn 0.1509 0.9885 0.0071
vn -0.0000 0.9992 0.0397
vn 0.0000 1.0000 0.0069
vn 0.2967 -0.5140 -0.8048
vn 0.5935 0.0000 -0.8049
vn 0.2968 -0.5140 -0.8048
vn -0.9105 -0.0000 0.4136
vn -0.4552 -0.7885 0.4136
vn 0.0000 -0.0000 1.0000
vn 0.2967 0.5140 -0.8048
vn 0.2968 0.5140 -0.8048
vn -0.2969 0.5141 -0.8048
vn -0.2968 0.5141 -0.8048
vn -0.2969 -0.5141 -0.8048
vn -0.2968 -0.5141 -0.8048
vn -0.5937 -0.0000 -0.8047
vn 0.4552 -0.7885 0.4136
vn 0.9105 -0.0000 0.4136
vn -0.4552 0.7885 0.4136
vn 0.4552 0.7885 0.4136
vn 0.7809 -0.6246 0.0071
vn 0.8653 -0.4996 0.0397
vn 0.8660 -0.5000 0.0069
vn 1.0000 -0.0000 -0.0000
vn 0.5000 0.8660 0.0000
vn 0.5000 -0.8660 -0.0000
vn -0.5000 -0.8660 -0.0000
vn -1.0000 -0.0000 0.0000
vn -0.5000 0.8660 0.0000
vn -0.9031 -0.4142 0.1132
vn -0.8103 -0.5750 0.1132
vn -0.8653 -0.4996 0.0397
vn 0.0000 -0.6458 0.7635
vn 0.0928 0.9892 0.1132
vn -0.0928 0.9892 0.1132
vn 0.8103 -0.5749 0.1135
vn 0.9030 -0.4143 0.1135
vn 0.2007 0.9763 0.0805
vn -0.9315 -0.3636 0.0071
vn -0.8660 -0.5000 0.0069
vn -0.7452 -0.6620 0.0805
vn -0.5593 0.3229 0.7635
vn -0.9459 -0.3143 0.0805
vn 0.9314 -0.3640 0.0071
vn 0.9343 -0.3562 0.0114
vn 0.9458 -0.3147 0.0807
vn 0.5593 0.3229 0.7635
vn 0.7454 -0.6617 0.0807
vn -0.2007 0.9763 0.0805
vn 0.2310 0.1332 -0.9638
vn 0.0001 -0.2666 -0.9638
vn -0.2308 0.1332 -0.9638
vn -0.5593 -0.3232 -0.7634
vn 0.5595 -0.3230 -0.7633
vn 0.0002 0.6459 -0.7634
vn -0.7806 -0.6249 0.0071
vn -0.7754 -0.6314 0.0114
vn -0.1509 0.9885 0.0071
vn -0.1591 0.9872 0.0114
vn 0.7757 -0.6310 0.0114
vn -0.9345 -0.3558 0.0114
vn 0.1591 0.9872 0.0114
usemtl weapons
s 1
f 24/1/1 20/2/2 29/3/3
f 6/4/4 7/5/5 8/6/5 9/7/6
f 11/8/7 10/9/8 13/10/9
f 7/5/5 1/11/10 2/12/11 8/6/5
f 1/11/10 3/13/12 12/14/13 2/12/11
f 5/15/14 6/4/4 9/7/6 10/16/15
f 3/13/12 4/17/16 11/18/16 12/14/13
f 4/17/16 5/15/14 10/16/15 11/18/16
f 9/19/17 8/20/18 13/10/9
f 12/21/19 11/8/7 13/10/9
f 10/9/8 9/19/17 13/10/9
f 8/20/18 2/22/20 13/10/9
f 2/22/20 12/21/19 13/10/9
f 28/23/21 21/24/22 30/25/23
f 7/26/24 19/27/24 14/28/25 1/29/25
f 6/30/26 18/31/26 19/27/24 7/26/24
f 5/32/27 17/33/27 18/31/26 6/30/26
f 4/34/28 16/35/28 17/33/27 5/32/27
f 3/36/29 15/37/29 16/35/28 4/34/28
f 1/29/25 14/28/25 15/37/29 3/36/29
f 17/38/30 16/39/31 22/40/32
f 18/41/33 17/42/33 25/43/33
f 15/44/34 14/45/35 20/46/2
f 19/47/36 18/48/37 21/49/22
f 20/46/2 24/50/1 23/51/38
f 26/52/39 22/53/32 31/54/40
f 22/55/32 16/56/31 23/57/41
f 16/58/42 15/59/42 23/60/42
f 22/40/32 26/61/39 25/62/43
f 26/63/44 33/64/45 30/65/23
f 21/66/22 18/67/37 25/68/46
f 14/69/47 19/70/47 27/71/47
f 21/49/22 28/72/21 27/73/48
f 20/74/2 14/75/35 27/76/49
f 31/77/50 29/78/51 30/79/52
f 30/79/52 29/78/51 34/80/53
f 29/78/51 31/77/50 32/81/54
f 31/77/50 30/79/52 33/82/55
f 24/83/56 32/84/57 31/85/40
f 28/86/58 34/87/59 29/88/3
f 19/47/36 21/49/22 27/73/48
f 26/89/44 21/66/22 25/68/46
f 17/38/30 22/40/32 25/62/43
f 24/90/56 22/55/32 23/57/41
f 15/44/34 20/46/2 23/51/38
f 28/91/58 20/74/2 27/76/49
f 34/92/60 28/23/21 30/25/23
f 21/93/22 26/63/44 30/65/23
f 33/94/61 26/52/39 31/54/40
f 22/95/32 24/83/56 31/85/40
f 32/96/62 24/1/1 29/3/3
f 20/97/2 28/86/58 29/88/3
