# Blender v3.4.1 OBJ File: 'Fantasy Weapons_Export.blend'
# www.blender.org
mtllib fistweapon_B.mtl
o fistweapon_B
v 0.000003 0.042817 -0.150273
v 0.000003 0.042816 0.150273
v 0.030279 0.030276 -0.152777
v 0.030279 0.030276 0.152777
v 0.042819 -0.000000 -0.158829
v 0.042819 -0.000000 0.158829
v 0.030279 -0.030276 -0.164888
v 0.030279 -0.030276 0.164888
v 0.000003 -0.042817 -0.167399
v 0.000003 -0.000000 0.171915
v 0.000003 -0.042817 0.167399
v 0.000003 -0.000000 -0.171915
v -0.030273 -0.030276 -0.164888
v -0.030273 -0.030276 0.164888
v -0.042814 -0.000000 -0.158829
v -0.042814 -0.000000 0.158829
v -0.030273 0.030276 -0.152777
v -0.030273 0.030276 0.152777
v 0.020295 0.020621 -0.167791
v 0.000003 0.029026 -0.166110
v 0.000003 0.029026 0.166110
v 0.020295 0.020621 0.167791
v 0.028836 -0.000000 -0.171915
v 0.028836 -0.000000 0.171915
v 0.020295 -0.020621 -0.176039
v 0.020295 -0.020621 0.176039
v 0.000003 -0.029026 -0.177720
v 0.000003 -0.029026 0.177720
v -0.020290 -0.020621 -0.176039
v -0.020290 -0.020621 0.176039
v -0.028831 -0.000000 -0.171915
v -0.028831 -0.000000 0.171915
v -0.020290 0.020621 -0.167791
v -0.020290 0.020621 0.167791
v -0.222154 0.032050 -0.014582
v -0.222154 0.032050 0.014581
v -0.125989 0.104864 -0.014582
v -0.431766 -0.006668 -0.014582
v -0.401893 0.039365 -0.014582
v -0.327592 0.073988 -0.014582
v -0.228528 0.096811 -0.014582
v -0.125989 0.104864 0.014581
v -0.431766 -0.006668 0.014581
v -0.401893 0.039365 0.014581
v -0.327592 0.073988 0.014581
v -0.228528 0.096811 0.014581
v -0.126581 0.133538 -0.000000
v -0.477748 -0.020199 -0.000000
v -0.437659 0.053225 -0.000000
v -0.345124 0.098943 -0.000000
v -0.231329 0.125266 -0.000000
v 0.027612 0.030223 -0.014582
v 0.027612 0.030223 0.014581
v -0.005038 0.096675 -0.014582
v -0.005038 0.096675 0.014581
v -0.019009 0.125109 -0.000000
v -0.315167 0.019387 -0.014582
v -0.315167 0.019387 0.014581
v -0.124603 0.037851 -0.014582
v -0.124603 0.037851 0.014581
v -0.194885 0.030658 -0.094436
v -0.197417 0.033199 -0.065495
v -0.098533 0.103194 -0.092377
v -0.403993 -0.007914 -0.109343
v -0.373885 0.037944 -0.110736
v -0.299604 0.072436 -0.107267
v -0.200743 0.095172 -0.100614
v -0.101065 0.105735 -0.063435
v -0.406525 -0.005372 -0.080402
v -0.376417 0.040486 -0.081795
v -0.302136 0.074977 -0.078326
v -0.203275 0.097713 -0.071673
v -0.100171 0.133030 -0.080447
v -0.451170 -0.020123 -0.097705
v -0.410675 0.053022 -0.100586
v -0.318145 0.098567 -0.096491
v -0.204584 0.124789 -0.088858
v 0.029002 0.028838 -0.074689
v 0.026470 0.031379 -0.045747
v -0.003019 0.095036 -0.083304
v -0.005551 0.097578 -0.054363
v -0.017987 0.124633 -0.072520
v -0.287640 0.018043 -0.101443
v -0.290173 0.020584 -0.072502
v -0.097662 0.036436 -0.086438
v -0.100194 0.038978 -0.057496
v -0.197417 0.033199 0.065494
v -0.194885 0.030658 0.094435
v -0.101065 0.105735 0.063435
v -0.406525 -0.005372 0.080401
v -0.376417 0.040486 0.081794
v -0.302136 0.074977 0.078325
v -0.203276 0.097713 0.071672
v -0.098533 0.103194 0.092376
v -0.403993 -0.007914 0.109342
v -0.373885 0.037944 0.110736
v -0.299604 0.072436 0.107266
v -0.200744 0.095172 0.100614
v -0.100171 0.133030 0.080447
v -0.451170 -0.020123 0.097705
v -0.410675 0.053022 0.100586
v -0.318145 0.098567 0.096490
v -0.204584 0.124790 0.088858
v 0.026470 0.031379 0.045747
v 0.029002 0.028838 0.074688
v -0.005551 0.097578 0.054362
v -0.003019 0.095036 0.083303
v -0.017987 0.124633 0.072519
v -0.290173 0.020585 0.072501
v -0.287641 0.018043 0.101442
v -0.100194 0.038978 0.057496
v -0.097662 0.036436 0.086437
v 0.007525 0.094916 -0.000000
v 0.033035 0.046912 -0.000000
v 0.008345 0.094499 -0.069245
v 0.033415 0.046669 -0.063127
v 0.008345 0.094499 0.069244
v 0.033414 0.046669 0.063126
vt 0.551087 0.393327
vt 0.551087 0.393327
vt 0.569398 0.400912
vt 0.569398 0.400912
vt 0.595294 0.375016
vt 0.595294 0.375016
vt 0.587709 0.356705
vt 0.587709 0.356705
vt 0.569398 0.349120
vt 0.569398 0.349120
vt 0.551087 0.356705
vt 0.551087 0.356705
vt 0.543502 0.375016
vt 0.543502 0.375016
vt 0.587709 0.393327
vt 0.587709 0.393327
vt 0.581671 0.387488
vt 0.569398 0.392572
vt 0.569398 0.392572
vt 0.581671 0.387488
vt 0.586837 0.375016
vt 0.586837 0.375016
vt 0.581671 0.362544
vt 0.581671 0.362544
vt 0.569398 0.357461
vt 0.569398 0.357461
vt 0.557125 0.362544
vt 0.557125 0.362544
vt 0.551959 0.375016
vt 0.551959 0.375016
vt 0.557125 0.387488
vt 0.557125 0.387488
vt 0.569398 0.390273
vt 0.580006 0.385878
vt 0.580006 0.385878
vt 0.584506 0.375016
vt 0.584506 0.375016
vt 0.580006 0.364154
vt 0.580006 0.364154
vt 0.569398 0.359760
vt 0.569398 0.359760
vt 0.558789 0.364154
vt 0.558789 0.364154
vt 0.554290 0.375016
vt 0.554290 0.375016
vt 0.558789 0.385879
vt 0.558789 0.385878
vt 0.569398 0.390273
vt 0.831433 0.652408
vt 0.831433 0.652408
vt 0.833195 0.669077
vt 0.833195 0.669077
vt 0.833885 0.674453
vt 0.792963 0.705378
vt 0.790903 0.693466
vt 0.786827 0.694305
vt 0.789079 0.707164
vt 0.790903 0.693466
vt 0.792963 0.705378
vt 0.824213 0.658503
vt 0.827446 0.666911
vt 0.829672 0.635740
vt 0.829672 0.635740
vt 0.821266 0.636887
vt 0.822153 0.646591
vt 0.829672 0.635740
vt 0.824213 0.658503
vt 0.822153 0.646591
vt 0.793224 0.717523
vt 0.802635 0.721328
vt 0.801945 0.715952
vt 0.796196 0.713786
vt 0.796196 0.713786
vt 0.801945 0.715952
vt 0.790016 0.683762
vt 0.785909 0.684289
vt 0.790016 0.683762
vt 0.821266 0.636887
vt 0.829672 0.635740
vt 0.821266 0.636887
vt 0.829672 0.635740
vt 0.829672 0.635740
vt 0.790016 0.683762
vt 0.785909 0.684289
vt 0.790016 0.683762
vt 0.829672 0.635740
vt 0.829672 0.635740
vt 0.827813 0.635993
vt 0.829672 0.635740
vt 0.821266 0.636887
vt 0.820617 0.636975
vt 0.827813 0.635993
vt 0.821266 0.636887
vt 0.827446 0.666911
vt 0.831433 0.652408
vt 0.831433 0.652408
vt 0.833195 0.669077
vt 0.833195 0.669077
vt 0.833885 0.674453
vt 0.792963 0.705378
vt 0.790903 0.693466
vt 0.786827 0.694305
vt 0.789079 0.707164
vt 0.790903 0.693466
vt 0.792963 0.705378
vt 0.824213 0.658503
vt 0.827446 0.666911
vt 0.829672 0.635740
vt 0.829672 0.635740
vt 0.821266 0.636887
vt 0.822153 0.646591
vt 0.829672 0.635740
vt 0.824213 0.658503
vt 0.822153 0.646591
vt 0.793224 0.717523
vt 0.802635 0.721328
vt 0.801945 0.715952
vt 0.796196 0.713786
vt 0.796196 0.713786
vt 0.801945 0.715952
vt 0.790016 0.683762
vt 0.785909 0.684289
vt 0.790016 0.683762
vt 0.821266 0.636887
vt 0.829672 0.635740
vt 0.829672 0.635740
vt 0.790016 0.683762
vt 0.785909 0.684289
vt 0.790016 0.683762
vt 0.789436 0.683836
vt 0.785909 0.684289
vt 0.790016 0.683762
vt 0.785909 0.684289
vt 0.821266 0.636887
vt 0.827446 0.666911
vt 0.831433 0.652408
vt 0.831433 0.652408
vt 0.833195 0.669077
vt 0.833195 0.669077
vt 0.833885 0.674453
vt 0.792963 0.705378
vt 0.790903 0.693466
vt 0.786827 0.694305
vt 0.789079 0.707164
vt 0.790903 0.693466
vt 0.792963 0.705378
vt 0.824213 0.658503
vt 0.827446 0.666911
vt 0.829672 0.635740
vt 0.829672 0.635740
vt 0.821266 0.636887
vt 0.822153 0.646591
vt 0.829672 0.635740
vt 0.824213 0.658503
vt 0.822153 0.646591
vt 0.793224 0.717523
vt 0.802635 0.721328
vt 0.801945 0.715952
vt 0.796196 0.713786
vt 0.796196 0.713786
vt 0.801945 0.715952
vt 0.790016 0.683762
vt 0.785909 0.684289
vt 0.790016 0.683762
vt 0.821266 0.636887
vt 0.829672 0.635740
vt 0.821266 0.636887
vt 0.790016 0.683762
vt 0.827813 0.635993
vt 0.821266 0.636887
vt 0.820617 0.636975
vt 0.827446 0.666911
vt 0.789436 0.683836
vt 0.785909 0.684289
vt 0.820615 0.636976
vt 0.789436 0.683836
vt 0.785909 0.684289
vn -0.3827 0.9239 0.0000
vn 0.9239 -0.3827 -0.0000
vn 0.6817 -0.7317 -0.0000
vn 0.0000 -1.0000 -0.0000
vn -0.3827 -0.9239 -0.0000
vn -0.9239 -0.3827 -0.0000
vn -0.9988 -0.0481 -0.0000
vn -0.9239 0.3827 0.0000
vn 0.7301 0.6834 0.0000
vn 0.9239 0.3827 0.0000
vn 0.3827 0.9239 0.0000
vn 0.0000 0.7542 -0.6567
vn 0.4403 0.5930 -0.6742
vn 0.2967 0.4493 -0.8426
vn 0.0000 0.5647 -0.8253
vn 0.4403 0.5930 0.6742
vn 0.0000 0.7542 0.6567
vn 0.0000 0.5647 0.8253
vn 0.2967 0.4493 0.8426
vn 0.6743 0.1617 -0.7206
vn 0.4367 0.1577 -0.8857
vn 0.6743 0.1617 0.7206
vn 0.4367 0.1577 0.8857
vn 0.5250 -0.3521 -0.7749
vn 0.4997 -0.3815 -0.7777
vn 0.5250 -0.3521 0.7749
vn 0.4997 -0.3815 0.7777
vn 0.0000 -0.5992 -0.8006
vn -0.0000 -0.5992 0.8006
vn -0.5250 -0.3521 -0.7749
vn -0.4997 -0.3815 -0.7777
vn -0.5250 -0.3521 0.7749
vn -0.4997 -0.3815 0.7777
vn -0.6743 0.1617 -0.7206
vn -0.4367 0.1577 -0.8857
vn -0.6743 0.1617 0.7206
vn -0.4367 0.1577 0.8857
vn -0.4403 0.5930 -0.6742
vn -0.2967 0.4493 -0.8426
vn -0.4403 0.5930 0.6742
vn -0.2967 0.4493 0.8426
vn -0.0000 0.1961 -0.9806
vn 0.0000 0.1961 0.9806
vn 0.1766 -0.9843 -0.0000
vn 0.2181 -0.9759 -0.0000
vn 0.2823 -0.9593 -0.0000
vn -0.1421 0.4289 0.8921
vn -0.0704 0.4496 0.8905
vn -0.0683 0.4498 0.8905
vn -0.1566 0.4222 0.8929
vn -0.0704 0.4496 -0.8905
vn -0.1421 0.4289 -0.8921
vn -0.1566 0.4222 -0.8929
vn -0.0683 0.4498 -0.8905
vn -0.0000 -0.0000 1.0000
vn -0.0000 0.0000 -1.0000
vn -0.2849 0.2674 0.9205
vn -0.3290 0.1927 0.9245
vn -0.2472 0.3268 0.9122
vn -0.2472 0.3268 -0.9122
vn -0.3290 0.1927 -0.9245
vn -0.2849 0.2674 -0.9205
vn -0.0008 0.4573 0.8893
vn -0.0015 0.4572 0.8894
vn -0.0015 0.4572 -0.8894
vn -0.0008 0.4573 -0.8893
vn 0.0047 -1.0000 -0.0000
vn -0.0500 -0.9987 -0.0000
vn 0.5250 0.5063 0.6842
vn 0.1625 0.5060 0.8471
vn 0.1625 0.5060 -0.8471
vn 0.5250 0.5063 -0.6842
vn 0.9460 -0.3051 -0.1096
vn 0.7218 0.2796 -0.6332
vn 0.5628 0.4362 -0.7022
vn 0.7101 0.3690 -0.5997
vn 0.0972 -0.9953 -0.0000
vn 0.1685 -0.9805 0.1009
vn 0.2098 -0.9722 0.1037
vn 0.2739 -0.9557 0.1079
vn -0.2157 0.5050 0.8357
vn -0.1440 0.5255 0.8385
vn -0.1419 0.5257 0.8388
vn -0.2303 0.4985 0.8358
vn 0.0106 0.3703 -0.9289
vn -0.0608 0.3495 -0.9350
vn -0.0753 0.3428 -0.9364
vn 0.0127 0.3705 -0.9288
vn -0.0868 0.0872 0.9924
vn 0.0868 -0.0872 -0.9924
vn -0.3617 0.3466 0.8655
vn -0.4066 0.2725 0.8720
vn -0.3230 0.4051 0.8553
vn -0.1646 0.2461 -0.9552
vn -0.2460 0.1114 -0.9628
vn -0.2018 0.1861 -0.9616
vn -0.0695 0.5340 0.8426
vn -0.0707 0.5339 0.8426
vn 0.0836 0.3789 -0.9216
vn 0.0849 0.3791 -0.9215
vn -0.0078 -0.9962 0.0868
vn -0.0672 -0.9944 0.0815
vn -0.0304 0.5385 0.8421
vn 0.2321 0.4261 -0.8744
vn 0.6903 0.4357 -0.5776
vn 0.2321 0.4261 0.8744
vn 0.5628 0.4362 0.7022
vn 0.7101 0.3690 0.5997
vn 0.0893 -0.9915 0.0949
vn 0.1685 -0.9805 -0.1009
vn 0.2098 -0.9722 -0.1037
vn 0.2739 -0.9557 -0.1079
vn -0.0608 0.3495 0.9350
vn 0.0106 0.3703 0.9289
vn 0.0127 0.3705 0.9288
vn -0.0753 0.3428 0.9364
vn -0.1440 0.5255 -0.8385
vn -0.2157 0.5050 -0.8357
vn -0.2303 0.4985 -0.8358
vn -0.1419 0.5257 -0.8388
vn 0.0868 -0.0872 0.9924
vn -0.0868 0.0872 -0.9924
vn -0.2018 0.1861 0.9616
vn -0.2460 0.1114 0.9628
vn -0.1646 0.2461 0.9552
vn -0.3230 0.4051 -0.8553
vn -0.4066 0.2725 -0.8720
vn -0.3617 0.3466 -0.8655
vn 0.0849 0.3791 0.9215
vn 0.0836 0.3789 0.9216
vn -0.0707 0.5339 -0.8426
vn -0.0695 0.5340 -0.8426
vn -0.0078 -0.9962 -0.0868
vn -0.0672 -0.9944 -0.0815
vn -0.0304 0.5385 -0.8421
vn 0.9510 -0.3090 0.0000
vn 0.7218 0.2796 0.6332
vn 0.0893 -0.9915 -0.0949
vn 0.6623 0.5289 0.5307
vn 0.6822 0.4190 0.5993
vn 0.6711 0.4889 0.5574
vn 0.6623 0.5289 -0.5307
vn 0.6386 0.6091 -0.4703
vn 0.6711 0.4889 -0.5574
vn 0.6386 0.6091 0.4703
vn 0.7024 0.3569 -0.6159
vn 0.9460 -0.3051 0.1096
vn 0.7024 0.3569 0.6159
vn 0.6903 0.4357 0.5776
vn 0.6822 0.4190 -0.5993
usemtl weapons
s 1
f 17/1/1 18/2/1 2/3/1 1/4/1
f 5/5/2 6/6/2 8/7/3 7/8/3
f 7/8/3 8/7/3 11/9/4 9/10/4
f 9/10/4 11/9/4 14/11/5 13/12/5
f 13/12/6 14/11/6 16/13/7 15/14/7
f 15/14/7 16/13/7 18/2/8 17/1/8
f 3/15/9 4/16/9 6/6/10 5/5/10
f 1/4/11 2/3/11 4/16/9 3/15/9
f 1/4/12 3/15/13 19/17/14 20/18/15
f 4/16/16 2/3/17 21/19/18 22/20/19
f 3/15/13 5/5/20 23/21/21 19/17/14
f 6/6/22 4/16/16 22/20/19 24/22/23
f 5/5/20 7/8/24 25/23/25 23/21/21
f 8/7/26 6/6/22 24/22/23 26/24/27
f 7/8/24 9/10/28 27/25/28 25/23/25
f 11/9/29 8/7/26 26/24/27 28/26/29
f 9/10/28 13/12/30 29/27/31 27/25/28
f 14/11/32 11/9/29 28/26/29 30/28/33
f 13/12/30 15/14/34 31/29/35 29/27/31
f 16/13/36 14/11/32 30/28/33 32/30/37
f 15/14/34 17/1/38 33/31/39 31/29/35
f 18/2/40 16/13/36 32/30/37 34/32/41
f 17/1/38 1/4/12 20/18/15 33/31/39
f 2/3/17 18/2/40 34/32/41 21/19/18
f 12/33/42 20/18/15 19/17/14
f 10/34/43 22/20/19 21/19/18
f 12/35/42 19/17/14 23/21/21
f 10/36/43 24/22/23 22/20/19
f 12/37/42 23/21/21 25/23/42
f 10/38/43 26/24/43 24/22/23
f 12/39/42 25/23/42 27/25/42
f 10/40/43 28/26/43 26/24/43
f 12/41/42 27/25/42 29/27/42
f 10/42/43 30/28/43 28/26/43
f 12/43/42 29/27/42 31/29/35
f 10/44/43 32/30/37 30/28/43
f 12/45/42 31/29/35 33/31/39
f 10/46/43 34/32/41 32/30/37
f 12/47/42 33/31/39 20/18/15
f 10/48/43 21/19/18 34/32/41
f 57/49/44 58/50/44 43/51/45 38/52/45
f 38/52/46 43/51/46 48/53/46
f 45/54/47 46/55/48 51/56/49 50/57/50
f 41/58/51 40/59/52 50/57/53 51/56/54
f 45/60/55 44/61/55 43/51/55 58/50/55
f 36/62/55 60/63/55 42/64/55 46/65/55
f 35/66/56 57/49/56 40/67/56 41/68/56
f 49/69/57 48/70/58 43/71/58 44/72/59
f 45/60/55 58/50/55 36/62/55 46/65/55
f 39/73/60 38/74/61 48/70/61 49/69/62
f 49/69/57 44/72/59 45/54/47 50/57/50
f 46/55/48 42/75/63 47/76/64 51/56/49
f 47/76/65 37/77/66 41/58/51 51/56/54
f 39/73/60 49/69/62 50/57/53 40/59/52
f 37/78/56 59/79/56 35/66/56 41/68/56
f 37/78/56 54/80/56 52/81/56 59/79/56
f 60/63/67 59/79/67 52/81/68 53/82/68
f 47/76/64 42/75/63 55/83/69 56/84/70
f 37/77/66 47/76/65 56/84/71 54/85/72
f 105/86/73 104/87/73 118/88/73
f 78/89/74 80/90/75 115/91/76 116/92/74
f 36/62/77 35/66/77 59/79/67 60/63/67
f 35/66/77 36/62/77 58/50/44 57/49/44
f 55/93/55 42/64/55 60/63/55 53/82/55
f 57/49/56 38/52/56 39/94/56 40/67/56
f 83/95/78 84/96/78 69/97/79 64/98/79
f 64/98/80 69/97/80 74/99/80
f 71/100/81 72/101/82 77/102/83 76/103/84
f 67/104/85 66/105/86 76/103/87 77/102/88
f 71/106/89 70/107/89 69/97/89 84/96/89
f 62/108/89 86/109/89 68/110/89 72/111/89
f 61/112/90 83/95/90 66/113/90 67/114/90
f 75/115/91 74/116/92 69/117/92 70/118/93
f 71/106/89 84/96/89 62/108/89 72/111/89
f 65/119/94 64/120/95 74/116/95 75/115/96
f 75/115/91 70/118/93 71/100/81 76/103/84
f 72/101/82 68/121/97 73/122/98 77/102/83
f 73/122/99 63/123/100 67/104/85 77/102/88
f 65/119/94 75/115/96 76/103/87 66/105/86
f 63/124/90 85/125/90 61/112/90 67/114/90
f 63/124/90 80/90/90 78/89/90 85/125/90
f 86/109/101 85/125/101 78/89/102 79/126/102
f 73/122/98 68/121/97 81/127/103 82/128/103
f 63/123/100 73/122/99 82/128/104 80/129/75
f 54/85/72 56/84/71 113/130/105
f 108/131/106 107/132/107 117/133/108
f 62/108/109 61/112/109 85/125/101 86/109/101
f 61/112/109 62/108/109 84/96/78 83/95/78
f 81/134/89 68/110/89 86/109/89 79/126/89
f 83/95/90 64/98/90 65/135/90 66/113/90
f 109/136/110 110/137/110 95/138/111 90/139/111
f 90/139/112 95/138/112 100/140/112
f 97/141/113 98/142/114 103/143/115 102/144/116
f 93/145/117 92/146/118 102/144/119 103/143/120
f 97/147/121 96/148/121 95/138/121 110/137/121
f 88/149/121 112/150/121 94/151/121 98/152/121
f 87/153/122 109/136/122 92/154/122 93/155/122
f 101/156/123 100/157/124 95/158/124 96/159/125
f 97/147/121 110/137/121 88/149/121 98/152/121
f 91/160/126 90/161/127 100/157/127 101/156/128
f 101/156/123 96/159/125 97/141/113 102/144/116
f 98/142/114 94/162/129 99/163/130 103/143/115
f 99/163/131 89/164/132 93/145/117 103/143/120
f 91/160/126 101/156/128 102/144/119 92/146/118
f 89/165/122 111/166/122 87/153/122 93/155/122
f 89/165/122 106/167/122 104/87/122 111/166/122
f 112/150/133 111/166/133 104/87/134 105/86/134
f 99/163/130 94/162/129 107/132/107 108/131/106
f 89/164/132 99/163/131 108/131/135 106/168/135
f 53/82/136 52/81/136 114/169/136
f 107/170/107 105/86/137 118/88/137 117/171/108
f 88/149/138 87/153/138 111/166/133 112/150/133
f 87/153/138 88/149/138 110/137/110 109/136/110
f 107/170/121 94/151/121 112/150/121 105/86/121
f 109/136/122 90/139/122 91/172/122 92/154/122
f 81/134/139 79/126/140 116/92/140 115/91/141
f 106/168/142 108/131/143 117/173/144
f 82/128/145 81/127/139 115/174/141
f 52/81/146 54/80/72 113/175/105 114/169/146
f 79/126/147 78/89/147 116/92/147
f 55/93/69 53/82/148 114/169/148 113/175/149
f 80/129/75 82/128/104 115/176/76
f 104/87/150 106/167/142 117/171/144 118/88/150
f 56/84/70 55/83/69 113/177/149
