# Blender v3.4.1 OBJ File: 'Fantasy Weapons_Export.blend'
# www.blender.org
mtllib sword_A.mtl
o sword_A
v -0.020167 -0.162621 -0.033290
v -0.026917 0.162621 -0.046608
v 0.020167 -0.162621 -0.033290
v 0.026917 0.162621 -0.046608
v 0.048686 -0.162621 -0.013789
v 0.064982 0.162621 -0.019306
v 0.048686 -0.162621 0.013789
v 0.064982 0.162621 0.019306
v 0.020167 -0.162621 0.033290
v 0.026917 0.162621 0.046608
v -0.020167 -0.162621 0.033290
v -0.026917 0.162621 0.046608
v -0.048686 -0.162621 0.013789
v -0.064982 0.162621 0.019306
v -0.048686 -0.162621 -0.013789
v -0.064982 0.162621 -0.019306
v -0.000008 -0.125741 -0.039024
v -0.000008 -0.125741 0.039025
v 0.057819 -0.141236 -0.039024
v 0.057819 -0.141236 0.039025
v 0.100151 -0.183568 -0.039024
v 0.100151 -0.183568 0.039025
v 0.115645 -0.241395 -0.039024
v 0.115645 -0.241395 0.039025
v 0.100151 -0.299222 -0.039024
v 0.100151 -0.299222 0.039025
v 0.057819 -0.341554 -0.039024
v 0.057819 -0.341554 0.039025
v -0.000008 -0.357048 -0.039024
v -0.000008 -0.241395 0.056530
v -0.000008 -0.357048 0.039025
v -0.000008 -0.241395 -0.056530
v -0.057835 -0.341554 -0.039024
v -0.057835 -0.341554 0.039025
v -0.100167 -0.299222 -0.039024
v -0.100167 -0.299222 0.039025
v -0.115662 -0.241395 -0.039024
v -0.115662 -0.241395 0.039025
v -0.100167 -0.183568 -0.039024
v -0.100167 -0.183568 0.039025
v -0.057835 -0.141236 -0.039024
v -0.057835 -0.141236 0.039025
v 0.048757 -0.156931 -0.056530
v -0.000008 -0.143865 -0.056530
v -0.000008 -0.143865 0.056530
v 0.048757 -0.156931 0.056530
v 0.084456 -0.192630 -0.056530
v 0.084456 -0.192630 0.056530
v 0.097522 -0.241395 -0.056530
v 0.097522 -0.241395 0.056530
v 0.084456 -0.290160 -0.056530
v 0.084456 -0.290160 0.056530
v 0.048757 -0.325859 -0.056530
v 0.048757 -0.325859 0.056530
v -0.000008 -0.338925 -0.056530
v -0.000008 -0.338925 0.056530
v -0.048773 -0.325859 -0.056530
v -0.048773 -0.325859 0.056530
v -0.084472 -0.290160 -0.056530
v -0.084472 -0.290160 0.056530
v -0.097538 -0.241395 -0.056530
v -0.097538 -0.241395 0.056530
v -0.084472 -0.192630 -0.056530
v -0.084472 -0.192630 0.056530
v -0.048773 -0.156931 -0.056530
v -0.048773 -0.156931 0.056530
v 0.000214 0.196158 -0.024396
v 0.000214 0.196158 0.024396
v -0.093737 0.207390 0.015608
v -0.093737 0.207390 -0.015607
v 0.094166 0.207390 -0.015608
v 0.094166 0.207390 0.015608
v 0.034813 1.381560 0.018109
v -0.034383 1.381560 0.018109
v 0.000215 1.358072 0.029794
v 0.000215 1.416807 0.016725
v -0.034383 1.381560 -0.018109
v 0.034813 1.381560 -0.018109
v 0.000215 1.358072 -0.029793
v 0.000215 1.416808 -0.016725
v 0.000215 1.037360 0.029396
v 0.000215 1.213153 0.034340
v 0.000215 1.037360 -0.029396
v 0.000215 1.213153 -0.034340
v -0.092792 1.266359 -0.018216
v -0.125142 1.099593 -0.018155
v -0.125142 1.099593 0.018155
v -0.092792 1.266359 0.018217
v 0.093222 1.266359 0.018217
v 0.125572 1.099593 0.018155
v 0.125572 1.099593 -0.018155
v 0.093222 1.266359 -0.018216
v -0.000000 0.186703 -0.064061
v -0.000000 0.186703 0.064061
v -0.296868 0.193494 -0.016733
v -0.303874 0.206706 -0.014714
v -0.294676 0.203166 -0.026827
v -0.296868 0.193494 0.016733
v -0.294676 0.203166 0.026828
v -0.303874 0.206706 0.014714
v -0.279261 0.266642 0.026967
v -0.276710 0.276258 0.016899
v -0.288531 0.269791 0.014751
v -0.276710 0.276258 -0.016899
v -0.279261 0.266642 -0.026967
v -0.288531 0.269791 -0.014751
v 0.279261 0.266642 -0.026967
v 0.276710 0.276258 -0.016899
v 0.288531 0.269791 -0.014751
v 0.294676 0.203166 -0.026827
v 0.303874 0.206706 -0.014714
v 0.296868 0.193494 -0.016733
v 0.296868 0.193494 0.016733
v 0.303874 0.206706 0.014714
v 0.294676 0.203166 0.026828
v 0.276710 0.276259 0.016899
v 0.279261 0.266642 0.026967
v 0.288531 0.269791 0.014751
v -0.227149 0.167485 -0.032717
v -0.225856 0.177483 -0.042694
v 0.225856 0.177483 -0.042694
v 0.227149 0.167485 -0.032717
v -0.122265 0.151647 -0.058677
v -0.122932 0.141508 -0.048686
v -0.000000 0.142569 -0.064338
v -0.000000 0.132386 -0.054295
v 0.122265 0.151647 -0.058677
v 0.122932 0.141508 -0.048686
v 0.215789 0.255328 -0.031479
v 0.217088 0.245288 -0.041736
v -0.217088 0.245288 -0.041736
v -0.215789 0.255328 -0.031479
v 0.115948 0.222044 -0.057892
v 0.116938 0.232607 -0.047617
v -0.116938 0.232607 -0.047617
v -0.115944 0.222032 -0.057892
v 0.227149 0.167485 0.032717
v 0.225856 0.177483 0.042695
v -0.225856 0.177483 0.042694
v -0.227149 0.167485 0.032717
v 0.122932 0.141508 0.048686
v 0.122265 0.151647 0.058677
v -0.000000 0.132386 0.054295
v -0.000000 0.142569 0.064338
v -0.122932 0.141508 0.048686
v -0.122265 0.151647 0.058677
v -0.215790 0.255328 0.031479
v -0.217088 0.245288 0.041736
v 0.217088 0.245288 0.041736
v 0.215789 0.255328 0.031479
v -0.115948 0.222044 0.057892
v -0.116938 0.232607 0.047617
v 0.116938 0.232607 0.047617
v 0.115944 0.222032 0.057892
v -0.030595 0.253208 -0.060902
v -0.034905 0.262577 -0.050360
v 0.034905 0.262577 -0.050360
v 0.030595 0.253208 -0.060902
v 0.030595 0.253208 0.060902
v 0.034905 0.262577 0.050360
v -0.034905 0.262577 0.050360
v -0.030595 0.253208 0.060902
vt 0.931830 0.845650
vt 0.929932 0.937101
vt 0.945069 0.937101
vt 0.943171 0.845650
vt 0.955772 0.937101
vt 0.951190 0.845650
vt 0.955772 0.937101
vt 0.951190 0.845650
vt 0.945069 0.937101
vt 0.943171 0.845650
vt 0.929932 0.937101
vt 0.931830 0.845650
vt 0.919229 0.937101
vt 0.923810 0.845650
vt 0.919229 0.937101
vt 0.923810 0.845650
vt 0.551029 0.440282
vt 0.551029 0.440282
vt 0.562499 0.445642
vt 0.562499 0.445642
vt 0.582366 0.425636
vt 0.582366 0.425636
vt 0.585439 0.405631
vt 0.585439 0.405631
vt 0.582366 0.385625
vt 0.582366 0.385625
vt 0.573969 0.370979
vt 0.573969 0.370979
vt 0.562499 0.365619
vt 0.562499 0.365619
vt 0.551029 0.370979
vt 0.551029 0.370979
vt 0.542632 0.385625
vt 0.542632 0.385625
vt 0.539558 0.405631
vt 0.539558 0.405631
vt 0.542632 0.425636
vt 0.542632 0.425636
vt 0.573969 0.440282
vt 0.573969 0.440282
vt 0.562499 0.475947
vt 0.573969 0.470587
vt 0.572172 0.465157
vt 0.562499 0.469677
vt 0.573969 0.470587
vt 0.562499 0.475947
vt 0.562499 0.469677
vt 0.572172 0.465157
vt 0.582366 0.455941
vt 0.579253 0.452806
vt 0.582366 0.455941
vt 0.579253 0.452806
vt 0.585439 0.435936
vt 0.581844 0.435936
vt 0.585439 0.435936
vt 0.581844 0.435936
vt 0.582366 0.415930
vt 0.579253 0.419065
vt 0.582366 0.415930
vt 0.579253 0.419065
vt 0.573969 0.401284
vt 0.572172 0.406714
vt 0.573969 0.401284
vt 0.572172 0.406714
vt 0.562499 0.395924
vt 0.562499 0.402194
vt 0.562499 0.395924
vt 0.562499 0.402194
vt 0.551029 0.401284
vt 0.552826 0.406714
vt 0.551029 0.401284
vt 0.552826 0.406714
vt 0.542632 0.415930
vt 0.545745 0.419065
vt 0.542632 0.415930
vt 0.545745 0.419065
vt 0.539558 0.435936
vt 0.543153 0.435936
vt 0.539558 0.435936
vt 0.543153 0.435936
vt 0.542632 0.455941
vt 0.545745 0.452806
vt 0.542632 0.455941
vt 0.545745 0.452806
vt 0.551029 0.470587
vt 0.552826 0.465157
vt 0.551029 0.470587
vt 0.552826 0.465157
vt 0.562499 0.405631
vt 0.562499 0.439372
vt 0.572172 0.434852
vt 0.562499 0.405631
vt 0.572172 0.434852
vt 0.562499 0.439372
vt 0.579253 0.422502
vt 0.579253 0.422502
vt 0.581844 0.405631
vt 0.581844 0.405631
vt 0.579253 0.388760
vt 0.579253 0.388760
vt 0.572172 0.376409
vt 0.572172 0.376409
vt 0.562499 0.371889
vt 0.562499 0.371889
vt 0.552826 0.376409
vt 0.552826 0.376409
vt 0.545745 0.388760
vt 0.545745 0.388760
vt 0.543153 0.405631
vt 0.543153 0.405631
vt 0.545745 0.422502
vt 0.545745 0.422502
vt 0.552826 0.434852
vt 0.552826 0.434852
vt 0.944535 0.962399
vt 0.941809 0.962754
vt 0.941809 0.938655
vt 0.949559 0.956300
vt 0.927153 0.954066
vt 0.919573 0.867557
vt 0.925436 0.867115
vt 0.930701 0.955955
vt 0.941809 0.956596
vt 0.941809 0.971446
vt 0.939083 0.971091
vt 0.934059 0.964992
vt 0.939083 0.962077
vt 0.941809 0.962432
vt 0.941809 0.938655
vt 0.934059 0.955978
vt 0.941809 0.839502
vt 0.925436 0.858102
vt 0.930701 0.946941
vt 0.941809 0.929183
vt 0.952917 0.947263
vt 0.941809 0.929183
vt 0.941809 0.839502
vt 0.958181 0.858424
vt 0.941809 0.946802
vt 0.952917 0.957237
vt 0.958181 0.868398
vt 0.941809 0.857121
vt 0.941809 0.947124
vt 0.941809 0.857443
vt 0.964045 0.858865
vt 0.956465 0.945374
vt 0.944535 0.972373
vt 0.949559 0.966274
vt 0.941809 0.956274
vt 0.941809 0.972728
vt 0.935288 0.970979
vt 0.930349 0.964627
vt 0.944265 0.973349
vt 0.941809 0.972937
vt 0.941809 0.963923
vt 0.941809 0.963265
vt 0.948330 0.962287
vt 0.945798 0.964862
vt 0.941809 0.965175
vt 0.941809 0.973867
vt 0.937820 0.973553
vt 0.953269 0.955935
vt 0.526260 0.439821
vt 0.515882 0.448585
vt 0.513306 0.422534
vt 0.524796 0.411993
vt 0.600204 0.409976
vt 0.611694 0.420517
vt 0.609119 0.446568
vt 0.598741 0.437804
vt 0.524580 0.412003
vt 0.524580 0.412003
vt 0.541978 0.401342
vt 0.541978 0.401342
vt 0.613229 0.418880
vt 0.610667 0.444771
vt 0.610667 0.444771
vt 0.613229 0.418880
vt 0.600420 0.412003
vt 0.600420 0.412003
vt 0.612059 0.422677
vt 0.612059 0.422677
vt 0.526477 0.436941
vt 0.526477 0.436941
vt 0.516307 0.445531
vt 0.516307 0.445531
vt 0.600204 0.411993
vt 0.598741 0.439821
vt 0.609119 0.448585
vt 0.611694 0.422534
vt 0.524796 0.409976
vt 0.513307 0.420517
vt 0.515882 0.446568
vt 0.526260 0.437804
vt 0.598524 0.436941
vt 0.608694 0.445531
vt 0.608694 0.445531
vt 0.598524 0.436941
vt 0.542979 0.427616
vt 0.542979 0.427616
vt 0.562500 0.397598
vt 0.562500 0.397598
vt 0.583022 0.401342
vt 0.583022 0.401342
vt 0.569265 0.428472
vt 0.569265 0.428471
vt 0.578420 0.430001
vt 0.578420 0.430001
vt 0.543139 0.428262
vt 0.542089 0.399373
vt 0.542490 0.401323
vt 0.546311 0.429649
vt 0.562500 0.406161
vt 0.562500 0.395861
vt 0.581857 0.430183
vt 0.582911 0.401390
vt 0.542089 0.401390
vt 0.543139 0.430284
vt 0.560459 0.427902
vt 0.553596 0.426763
vt 0.562500 0.406161
vt 0.582510 0.401323
vt 0.578690 0.429649
vt 0.562500 0.395861
vt 0.581862 0.430284
vt 0.543144 0.430183
vt 0.511772 0.418880
vt 0.514333 0.444771
vt 0.514333 0.444771
vt 0.511772 0.418880
vt 0.581861 0.428262
vt 0.582911 0.399373
vt 0.568429 0.429234
vt 0.546580 0.430001
vt 0.546580 0.430001
vt 0.555736 0.428471
vt 0.555736 0.428471
vt 0.577956 0.430830
vt 0.547044 0.430830
vt 0.556571 0.429234
vt 0.564542 0.427902
vt 0.571404 0.426763
vt 0.582022 0.427616
vt 0.582022 0.427616
vt 0.512941 0.436508
vt 0.511772 0.441930
vt 0.513307 0.440478
vt 0.512941 0.436508
vt 0.513306 0.440478
vt 0.511772 0.441930
vt 0.515882 0.466528
vt 0.516307 0.470475
vt 0.514333 0.467821
vt 0.516307 0.470475
vt 0.515882 0.466528
vt 0.514333 0.467821
vt 0.609119 0.466528
vt 0.608694 0.470475
vt 0.610667 0.467821
vt 0.611694 0.440478
vt 0.613229 0.441930
vt 0.612059 0.436508
vt 0.612059 0.436508
vt 0.613229 0.441930
vt 0.611694 0.440478
vt 0.608694 0.470475
vt 0.609119 0.466528
vt 0.610667 0.467821
vt 0.581861 0.448223
vt 0.598741 0.457765
vt 0.598524 0.461885
vt 0.582022 0.452560
vt 0.598741 0.457765
vt 0.581862 0.448227
vt 0.582022 0.452560
vt 0.598524 0.461885
vt 0.526260 0.457765
vt 0.543139 0.448227
vt 0.542979 0.452560
vt 0.526477 0.461885
vt 0.543139 0.448223
vt 0.526260 0.457765
vt 0.526477 0.461885
vt 0.542979 0.452560
vt 0.542089 0.419334
vt 0.524796 0.429937
vt 0.524580 0.425834
vt 0.541978 0.415172
vt 0.524796 0.429937
vt 0.542089 0.419334
vt 0.541978 0.415172
vt 0.524580 0.425834
vt 0.562500 0.413805
vt 0.562500 0.411428
vt 0.542490 0.419267
vt 0.562500 0.413805
vt 0.562500 0.411428
vt 0.582510 0.419267
vt 0.583022 0.415172
vt 0.582911 0.419334
vt 0.583022 0.415172
vt 0.600204 0.429937
vt 0.582911 0.419334
vt 0.600420 0.425834
vt 0.600204 0.429937
vt 0.600420 0.425834
vt 0.555736 0.449445
vt 0.564829 0.447925
vt 0.564542 0.444862
vt 0.556571 0.446194
vt 0.569265 0.449445
vt 0.560171 0.447925
vt 0.560459 0.444862
vt 0.568429 0.446194
vt 0.546580 0.450975
vt 0.547044 0.447790
vt 0.564853 0.447921
vt 0.571424 0.446823
vt 0.571404 0.443723
vt 0.578420 0.450975
vt 0.577956 0.447790
vt 0.560147 0.447921
vt 0.553576 0.446823
vt 0.553596 0.443723
vt 0.512941 0.422677
vt 0.512941 0.422677
vn -0.2998 -0.0445 -0.9529
vn -0.3026 -0.0445 -0.9521
vn 0.3026 -0.0445 -0.9521
vn 0.2998 -0.0445 -0.9529
vn 0.5745 -0.0440 -0.8173
vn 0.9987 -0.0500 0.0000
vn 0.5745 -0.0440 0.8173
vn 0.3026 -0.0445 0.9521
vn 0.2998 -0.0445 0.9529
vn -0.3026 -0.0445 0.9521
vn -0.2998 -0.0445 0.9529
vn -0.5745 -0.0440 0.8173
vn -0.9987 -0.0500 -0.0000
vn -0.5745 -0.0440 -0.8173
vn -0.5000 0.8660 0.0000
vn 0.0000 1.0000 0.0000
vn 0.8660 0.5000 -0.0000
vn 1.0000 -0.0000 -0.0000
vn 0.8660 -0.5000 -0.0000
vn 0.5000 -0.8660 -0.0000
vn -0.0000 -1.0000 -0.0000
vn -0.5000 -0.8660 -0.0000
vn -0.8660 -0.5000 -0.0000
vn -1.0000 0.0000 0.0000
vn -0.8660 0.5000 0.0000
vn 0.5000 0.8660 0.0000
vn 0.0000 0.6947 -0.7193
vn 0.3474 0.6017 -0.7193
vn 0.3474 0.6017 0.7193
vn 0.0000 0.6947 0.7193
vn 0.6017 0.3474 -0.7193
vn 0.6017 0.3474 0.7193
vn 0.6947 0.0000 -0.7193
vn 0.6947 -0.0000 0.7193
vn 0.6017 -0.3474 -0.7193
vn 0.6017 -0.3474 0.7193
vn 0.3474 -0.6017 -0.7193
vn 0.3474 -0.6017 0.7193
vn -0.0000 -0.6947 -0.7193
vn -0.0000 -0.6947 0.7193
vn -0.3474 -0.6017 -0.7193
vn -0.3474 -0.6017 0.7193
vn -0.6017 -0.3474 -0.7193
vn -0.6017 -0.3474 0.7193
vn -0.6947 0.0000 -0.7193
vn -0.6947 -0.0000 0.7193
vn -0.6017 0.3474 -0.7193
vn -0.6017 0.3474 0.7193
vn -0.3474 0.6017 -0.7193
vn -0.3474 0.6017 0.7193
vn -0.0000 0.0000 -1.0000
vn 0.0000 -0.0000 1.0000
vn 0.1798 0.1350 0.9744
vn -0.0000 0.1074 0.9942
vn -0.0000 0.0179 0.9998
vn 0.1561 0.0316 0.9872
vn -0.9969 0.0782 0.0000
vn -0.9994 -0.0352 0.0000
vn -0.1798 0.1350 0.9744
vn -0.1561 0.0316 0.9872
vn -0.1798 0.1350 -0.9744
vn -0.0000 0.1074 -0.9942
vn -0.0000 0.0179 -0.9998
vn -0.1561 0.0316 -0.9872
vn -0.0000 -0.0060 -1.0000
vn -0.0929 -0.0060 -0.9957
vn -0.1136 -0.0039 -0.9935
vn -0.0000 -0.0048 -1.0000
vn 0.1136 -0.0039 0.9935
vn -0.0000 -0.0048 1.0000
vn -0.0000 -0.0060 1.0000
vn 0.0929 -0.0060 0.9957
vn 0.1136 -0.0039 -0.9935
vn 0.0929 -0.0060 -0.9957
vn -0.1136 -0.0039 0.9935
vn -0.0929 -0.0060 0.9957
vn 0.9994 -0.0352 0.0000
vn 0.9969 0.0782 0.0000
vn 0.1798 0.1350 -0.9744
vn 0.1561 0.0316 -0.9872
vn -0.9459 0.3244 0.0000
vn -0.8132 0.5820 0.0000
vn -0.0000 0.2172 0.9761
vn 0.0000 0.2172 -0.9761
vn 0.8132 0.5820 0.0000
vn 0.7137 0.7005 0.0000
vn -0.7137 0.7005 0.0000
vn 0.9459 0.3244 0.0000
vn -0.1832 0.0377 0.9823
vn -0.2121 0.0452 0.9762
vn -0.1767 0.0360 0.9836
vn 0.1767 0.0360 0.9836
vn 0.2121 0.0452 0.9762
vn 0.1832 0.0377 0.9823
vn -0.2899 -0.9571 -0.0000
vn -0.1532 -0.9882 -0.0000
vn 0.9717 0.2363 0.0000
vn 0.2899 -0.9571 0.0000
vn 0.3495 -0.9369 0.0000
vn 0.2686 0.9633 0.0000
vn 0.3249 0.9457 0.0000
vn 0.1767 0.0360 -0.9836
vn 0.1832 0.0377 -0.9823
vn 0.2121 0.0452 -0.9762
vn -0.1767 0.0360 -0.9836
vn -0.2121 0.0452 -0.9762
vn -0.1832 0.0377 -0.9823
vn -0.2686 0.9633 0.0000
vn -0.3249 0.9457 0.0000
vn -0.0807 0.9967 -0.0000
vn 0.1532 -0.9882 -0.0000
vn 0.1725 0.9850 0.0000
vn 0.0807 0.9967 0.0000
vn -0.0934 0.0222 -0.9954
vn -0.0956 0.0199 -0.9952
vn -0.0000 0.0208 -0.9998
vn -0.0000 0.0119 -0.9999
vn 0.0934 0.0222 -0.9954
vn 0.0956 0.0199 -0.9952
vn -0.0956 0.0199 0.9952
vn -0.0934 0.0222 0.9954
vn -0.0266 0.0352 0.9990
vn 0.0000 0.0208 0.9998
vn 0.0956 0.0199 0.9952
vn 0.0934 0.0222 0.9954
vn -0.0000 0.0119 0.9999
vn -0.9717 0.2363 0.0000
vn 0.0266 0.0352 0.9990
vn -0.1725 0.9850 0.0000
vn -0.0266 0.0352 -0.9990
vn 0.0266 0.0352 -0.9990
vn -0.7322 -0.5334 -0.4236
vn -0.8979 -0.2107 -0.3865
vn -0.6812 -0.2896 -0.6724
vn -0.7322 -0.5334 0.4236
vn -0.6812 -0.2896 0.6724
vn -0.8979 -0.2107 0.3865
vn -0.3996 0.5719 0.7164
vn -0.3163 0.8390 0.4428
vn -0.6464 0.6546 0.3920
vn -0.3163 0.8390 -0.4428
vn -0.3996 0.5719 -0.7164
vn -0.6464 0.6546 -0.3920
vn 0.3996 0.5719 -0.7164
vn 0.3163 0.8390 -0.4428
vn 0.6464 0.6546 -0.3920
vn 0.6812 -0.2896 -0.6724
vn 0.8979 -0.2107 -0.3865
vn 0.7322 -0.5334 -0.4236
vn 0.7322 -0.5334 0.4236
vn 0.8979 -0.2107 0.3865
vn 0.6812 -0.2896 0.6724
vn 0.3163 0.8390 0.4428
vn 0.3996 0.5719 0.7164
vn 0.6464 0.6546 0.3920
vn 0.1210 0.6902 0.7135
vn -0.0599 0.7067 0.7050
vn -0.0643 0.7074 0.7039
vn 0.1027 0.6927 0.7139
vn -0.0599 0.7068 -0.7049
vn 0.1210 0.6904 -0.7133
vn 0.1027 0.6929 -0.7137
vn -0.0643 0.7075 -0.7038
vn 0.0599 0.7068 0.7049
vn -0.1210 0.6904 0.7133
vn -0.1027 0.6929 0.7137
vn 0.0643 0.7075 0.7038
vn -0.1210 0.6902 -0.7135
vn 0.0599 0.7067 -0.7050
vn 0.0643 0.7074 -0.7039
vn -0.1027 0.6927 -0.7139
vn -0.1792 -0.6842 0.7069
vn -0.3310 -0.6450 0.6888
vn -0.3315 -0.6449 0.6887
vn -0.1795 -0.6842 0.7069
vn -0.3310 -0.6450 -0.6888
vn -0.1792 -0.6842 -0.7069
vn -0.1795 -0.6842 -0.7069
vn -0.3315 -0.6449 -0.6887
vn -0.0000 -0.7006 0.7135
vn 0.0000 -0.7006 -0.7135
vn 0.1792 -0.6842 0.7069
vn 0.1795 -0.6842 0.7069
vn 0.1792 -0.6842 -0.7069
vn 0.1795 -0.6842 -0.7069
vn 0.3310 -0.6450 0.6888
vn 0.3315 -0.6449 0.6887
vn 0.3310 -0.6450 -0.6888
vn 0.3315 -0.6449 -0.6887
vn -0.1514 0.7058 -0.6920
vn 0.1514 0.7059 -0.6919
vn 0.1191 0.7164 -0.6874
vn -0.1191 0.7163 -0.6875
vn 0.1514 0.7058 0.6920
vn -0.1514 0.7059 0.6919
vn -0.1191 0.7164 0.6874
vn 0.1191 0.7163 0.6875
vn -0.3495 -0.9369 0.0000
usemtl weapons
s 1
f 1/1/1 2/2/2 4/3/3 3/4/4
f 3/4/4 4/3/3 6/5/5 5/6/5
f 5/6/6 6/5/6 8/7/6 7/8/6
f 7/8/7 8/7/7 10/9/8 9/10/9
f 9/10/9 10/9/8 12/11/10 11/12/11
f 11/12/11 12/11/10 14/13/12 13/14/12
f 13/14/13 14/13/13 16/15/13 15/16/13
f 15/16/14 16/15/14 2/2/2 1/1/1
f 41/17/15 42/18/15 18/19/16 17/20/16
f 21/21/17 22/22/17 24/23/18 23/24/18
f 23/24/18 24/23/18 26/25/19 25/26/19
f 25/26/19 26/25/19 28/27/20 27/28/20
f 27/28/20 28/27/20 31/29/21 29/30/21
f 29/30/21 31/29/21 34/31/22 33/32/22
f 33/32/22 34/31/22 36/33/23 35/34/23
f 35/34/23 36/33/23 38/35/24 37/36/24
f 37/36/24 38/35/24 40/37/25 39/38/25
f 39/38/25 40/37/25 42/18/15 41/17/15
f 19/39/26 20/40/26 22/22/17 21/21/17
f 17/20/16 18/19/16 20/40/26 19/39/26
f 17/41/27 19/42/28 43/43/28 44/44/27
f 20/45/29 18/46/30 45/47/30 46/48/29
f 19/42/28 21/49/31 47/50/31 43/43/28
f 22/51/32 20/45/29 46/48/29 48/52/32
f 21/49/31 23/53/33 49/54/33 47/50/31
f 24/55/34 22/51/32 48/52/32 50/56/34
f 23/53/33 25/57/35 51/58/35 49/54/33
f 26/59/36 24/55/34 50/56/34 52/60/36
f 25/57/35 27/61/37 53/62/37 51/58/35
f 28/63/38 26/59/36 52/60/36 54/64/38
f 27/61/37 29/65/39 55/66/39 53/62/37
f 31/67/40 28/63/38 54/64/38 56/68/40
f 29/65/39 33/69/41 57/70/41 55/66/39
f 34/71/42 31/67/40 56/68/40 58/72/42
f 33/69/41 35/73/43 59/74/43 57/70/41
f 36/75/44 34/71/42 58/72/42 60/76/44
f 35/73/43 37/77/45 61/78/45 59/74/43
f 38/79/46 36/75/44 60/76/44 62/80/46
f 37/77/45 39/81/47 63/82/47 61/78/45
f 40/83/48 38/79/46 62/80/46 64/84/48
f 39/81/47 41/85/49 65/86/49 63/82/47
f 42/87/50 40/83/48 64/84/48 66/88/50
f 41/85/49 17/41/27 44/44/27 65/86/49
f 18/46/30 42/87/50 66/88/50 45/47/30
f 32/89/51 44/90/51 43/91/51
f 30/92/52 46/93/52 45/94/52
f 32/89/51 43/91/51 47/95/51
f 30/92/52 48/96/52 46/93/52
f 32/89/51 47/95/51 49/97/51
f 30/92/52 50/98/52 48/96/52
f 32/89/51 49/97/51 51/99/51
f 30/92/52 52/100/52 50/98/52
f 32/89/51 51/99/51 53/101/51
f 30/92/52 54/102/52 52/100/52
f 32/89/51 53/101/51 55/103/51
f 30/92/52 56/104/52 54/102/52
f 32/89/51 55/103/51 57/105/51
f 30/92/52 58/106/52 56/104/52
f 32/89/51 57/105/51 59/107/51
f 30/92/52 60/108/52 58/106/52
f 32/89/51 59/107/51 61/109/51
f 30/92/52 62/110/52 60/108/52
f 32/89/51 61/109/51 63/111/51
f 30/92/52 64/112/52 62/110/52
f 32/89/51 63/111/51 65/113/51
f 30/92/52 66/114/52 64/112/52
f 32/89/51 65/113/51 44/90/51
f 30/92/52 45/94/52 66/114/52
f 73/115/53 75/116/54 82/117/55 89/118/56
f 86/119/57 70/120/58 69/121/58 87/122/57
f 82/123/55 75/124/54 74/125/59 88/126/60
f 77/127/61 79/128/62 84/129/63 85/130/64
f 67/131/65 70/132/66 86/133/67 83/134/68
f 90/135/69 81/136/70 68/137/71 72/138/72
f 83/139/68 91/140/73 71/141/74 67/142/65
f 81/143/70 87/122/75 69/121/76 68/144/71
f 71/145/77 91/146/78 90/135/78 72/138/77
f 78/147/79 92/148/80 84/149/63 79/150/62
f 88/126/81 74/125/82 77/151/82 85/152/81
f 73/153/53 76/154/83 75/124/54
f 76/154/83 74/125/59 75/124/54
f 77/127/61 80/155/84 79/128/62
f 80/155/84 78/156/79 79/128/62
f 73/115/85 78/157/85 80/158/86 76/159/86
f 76/160/87 80/161/87 77/151/82 74/125/82
f 89/118/56 82/117/55 81/136/70 90/135/69
f 84/149/63 92/148/80 91/140/73 83/139/68
f 85/130/64 84/129/63 83/134/68 86/133/67
f 90/135/78 91/146/78 92/162/88 89/118/88
f 86/119/57 87/122/57 88/126/81 85/152/81
f 148/163/89 101/164/90 99/165/90 139/166/91
f 138/167/92 115/168/93 117/169/93 149/170/94
f 140/171/95 119/172/95 124/173/96 145/174/96
f 111/175/97 109/176/97 118/177/97 114/178/97
f 137/179/98 122/180/98 112/181/99 113/182/99
f 147/183/100 132/184/100 104/185/101 102/186/101
f 121/187/102 130/188/103 107/189/104 110/190/104
f 120/191/105 97/192/106 105/193/106 131/194/107
f 150/195/108 116/196/109 108/197/109 129/198/108
f 152/199/110 135/200/110 132/184/100 147/183/100
f 143/201/21 126/202/21 128/203/111 141/204/111
f 157/205/112 160/206/112 153/207/113 134/208/113
f 120/191/105 131/194/107 136/209/114 123/210/115
f 123/211/115 136/212/114 93/213/116 125/214/117
f 125/214/117 93/213/116 133/215/118 127/216/119
f 145/174/96 124/173/96 126/202/21 143/201/21
f 146/217/120 151/218/121 148/163/89 139/166/91
f 162/219/122 151/220/121 94/221/123
f 142/222/124 154/223/125 94/221/123 144/224/126
f 127/216/119 133/225/118 130/188/103 121/187/102
f 144/224/126 94/221/123 151/226/121 146/217/120
f 141/204/111 128/203/111 122/180/98 137/179/98
f 100/227/127 103/228/127 106/229/127 96/230/127
f 138/167/92 149/170/94 154/231/125 142/232/124
f 159/233/128 162/219/122 94/221/123
f 135/234/110 152/235/110 161/236/129 156/237/129
f 156/237/129 161/236/129 160/206/112 157/205/112
f 154/238/125 159/233/128 94/221/123
f 136/239/114 155/240/130 93/213/116
f 155/240/130 158/241/131 93/213/116
f 158/241/131 133/242/118 93/213/116
f 150/195/108 129/198/108 134/243/113 153/244/113
f 95/245/132 96/246/133 97/247/134
f 98/248/135 99/249/136 100/250/137
f 101/251/138 102/252/139 103/253/140
f 104/254/141 105/255/142 106/256/143
f 107/257/144 108/258/145 109/259/146
f 110/260/147 111/261/148 112/262/149
f 113/263/150 114/264/151 115/265/152
f 116/266/153 117/267/154 118/268/155
f 95/245/132 98/248/135 100/250/137 96/246/133
f 99/249/136 101/251/138 103/253/140 100/250/137
f 102/252/139 104/254/141 106/256/143 103/253/140
f 105/255/142 97/247/134 96/246/133 106/256/143
f 109/259/146 111/261/148 110/260/147 107/257/144
f 113/263/150 112/262/149 111/261/148 114/264/151
f 108/258/145 116/266/153 118/268/155 109/259/146
f 117/267/154 115/265/152 114/264/151 118/268/155
f 154/269/156 149/270/157 150/271/158 153/272/159
f 130/273/160 133/274/161 134/275/162 129/276/163
f 148/277/164 151/278/165 152/279/166 147/280/167
f 136/281/168 131/282/169 132/283/170 135/284/171
f 146/285/172 139/286/173 140/287/174 145/288/175
f 120/289/176 123/290/177 124/291/178 119/292/179
f 144/293/180 146/285/172 145/288/175 143/294/180
f 123/295/177 125/296/181 126/297/181 124/291/178
f 142/298/182 144/293/180 143/294/180 141/299/183
f 125/296/181 127/300/184 128/301/185 126/297/181
f 138/302/186 142/303/182 141/299/183 137/304/187
f 127/300/184 121/305/188 122/306/189 128/301/185
f 139/286/173 99/249/136 98/248/135 140/287/174
f 97/247/134 120/289/176 119/292/179 95/245/132
f 112/262/149 122/306/189 121/305/188 110/260/147
f 129/276/163 108/258/145 107/257/144 130/273/160
f 115/265/152 138/302/186 137/304/187 113/263/150
f 104/254/141 132/283/170 131/282/169 105/255/142
f 149/270/157 117/267/154 116/266/153 150/271/158
f 101/251/138 148/277/164 147/280/167 102/252/139
f 156/307/190 157/308/191 158/309/192 155/310/193
f 160/311/194 161/312/195 162/313/196 159/314/197
f 135/315/171 156/307/190 155/310/193 136/316/168
f 157/317/191 134/318/162 133/319/161 158/309/192
f 153/320/159 160/311/194 159/314/197 154/321/156
f 161/322/195 152/323/166 151/324/165 162/313/196
f 140/171/95 98/325/198 95/326/198 119/172/95
f 82/123/55 88/126/60 87/122/75 81/143/70
f 78/157/85 73/115/85 89/118/88 92/162/88
